<svg width="105" height="104" viewBox="0 0 105 104" fill="none" xmlns="http://www.w3.org/2000/svg">
    <path fill-rule="evenodd" clip-rule="evenodd" d="M52.5 104C59.3287 104 66.0906 102.655 72.3995 100.042C78.7085 97.4285 84.4409 93.5982 89.2695 88.7695C94.0982 83.9409 97.9285 78.2085 100.542 71.8995C103.155 65.5906 104.5 58.8287 104.5 52C104.5 45.1713 103.155 38.4094 100.542 32.1005C97.9285 25.7915 94.0982 20.0591 89.2695 15.2304C84.4409 10.4018 78.7085 6.57151 72.3995 3.95826C66.0906 1.34502 59.3287 -1.01756e-07 52.5 0C38.7087 2.05506e-07 25.4823 5.47855 15.7304 15.2304C5.97856 24.9823 0.5 38.2087 0.5 52C0.5 65.7913 5.97856 79.0177 15.7304 88.7695C25.4823 98.5214 38.7087 104 52.5 104ZM51.1596 73.0311L80.0484 38.3644L71.1738 30.9689L46.3293 60.7764L33.4738 47.9151L25.304 56.0849L42.6373 73.4182L47.1093 77.8902L51.1596 73.0311Z" fill="#512210"/>
</svg>
