<svg width="258" height="257" viewBox="0 0 258 257" fill="none" xmlns="http://www.w3.org/2000/svg">
    <g clip-path="url(#clip0_5_4723)">
        <path d="M257.198 196.554H0.198242V196.682H257.198V196.554Z" fill="#EBEBEB"/>
        <path d="M162.453 200.054H149.366V200.182H162.453V200.054Z" fill="#EBEBEB"/>
        <path d="M234.294 202.835H203.285V202.963H234.294V202.835Z" fill="#EBEBEB"/>
        <path d="M146.58 200.116H114.542V200.244H146.58V200.116Z" fill="#EBEBEB"/>
        <path d="M93.767 203.96H87.0645V204.089H93.767V203.96Z" fill="#EBEBEB"/>
        <path d="M130.801 203.96H100.279V204.089H130.801V203.96Z" fill="#EBEBEB"/>
        <path d="M46.9259 201.791H27.1626V201.92H46.9259V201.791Z" fill="#EBEBEB"/>
        <path d="M122.016 173.629H22.7682C21.9907 173.628 21.2455 173.318 20.6962 172.768C20.1469 172.218 19.8384 171.472 19.8384 170.694V31.1793C19.8451 30.4062 20.1566 29.6671 20.7052 29.1223C21.2538 28.5776 21.9951 28.2713 22.7682 28.27H122.016C122.795 28.27 123.541 28.5792 124.092 29.1296C124.642 29.6801 124.951 30.4266 124.951 31.205V170.694C124.951 171.473 124.642 172.219 124.092 172.77C123.541 173.32 122.795 173.629 122.016 173.629ZM22.7682 28.3728C22.0248 28.3742 21.3122 28.6705 20.787 29.1966C20.2619 29.7228 19.9669 30.4358 19.9669 31.1793V170.694C19.9669 171.438 20.2619 172.151 20.787 172.677C21.3122 173.203 22.0248 173.499 22.7682 173.501H122.016C122.76 173.499 123.473 173.203 123.999 172.677C124.525 172.151 124.822 171.438 124.823 170.694V31.1793C124.822 30.4354 124.525 29.7223 123.999 29.1963C123.473 28.6703 122.76 28.3742 122.016 28.3728H22.7682Z" fill="#EBEBEB"/>
        <path d="M233.2 173.629H133.946C133.168 173.628 132.422 173.318 131.872 172.768C131.322 172.218 131.013 171.472 131.011 170.694V31.1793C131.019 30.4057 131.332 29.6666 131.881 29.122C132.431 28.5774 133.173 28.2713 133.946 28.27H233.2C233.972 28.2727 234.712 28.5796 235.259 29.1241C235.807 29.6687 236.117 30.4071 236.124 31.1793V170.694C236.124 171.471 235.816 172.216 235.268 172.766C234.72 173.316 233.976 173.626 233.2 173.629ZM133.946 28.3728C133.202 28.3742 132.489 28.6703 131.963 29.1963C131.437 29.7223 131.141 30.4354 131.14 31.1793V170.694C131.141 171.438 131.437 172.151 131.963 172.677C132.489 173.203 133.202 173.499 133.946 173.501H233.2C233.943 173.499 234.657 173.203 235.183 172.677C235.709 172.151 236.005 171.438 236.006 170.694V31.1793C236.005 30.4354 235.709 29.7223 235.183 29.1963C234.657 28.6703 233.943 28.3742 233.2 28.3728H133.946Z" fill="#EBEBEB"/>
        <path d="M100.922 151.974H66.7921L64.7207 128.073H98.8503L100.922 151.974Z" fill="#E6E6E6"/>
        <path d="M102.69 151.974H68.5602L66.4888 128.073H100.618L102.69 151.974Z" fill="#F0F0F0"/>
        <path d="M73.2275 146.84L72.0864 133.203H95.9514L97.0925 146.84H73.2275Z" fill="white"/>
        <path d="M108.596 151.974H104.592V196.554H108.596V151.974Z" fill="#E6E6E6"/>
        <path d="M109.86 151.974H107.08V196.554H109.86V151.974Z" fill="#F0F0F0"/>
        <path d="M71.0996 156.893H109.86V151.974H71.0996V156.893Z" fill="#F0F0F0"/>
        <path d="M72.4665 156.893H68.4624V196.554H72.4665V156.893Z" fill="#E6E6E6"/>
        <path d="M73.7309 156.893H70.9502V196.554H73.7309V156.893Z" fill="#F0F0F0"/>
        <path d="M43.9655 156.893H39.9614V196.554H43.9655V156.893Z" fill="#E6E6E6"/>
        <path d="M45.23 156.893H42.4492V196.554H45.23V156.893Z" fill="#F0F0F0"/>
        <path d="M83.2555 156.893H79.2515V196.554H83.2555V156.893Z" fill="#E6E6E6"/>
        <path d="M84.5146 156.893H81.7339V196.554H84.5146V156.893Z" fill="#F0F0F0"/>
        <path d="M71.0995 151.974H39.9614V156.893H71.0995V151.974Z" fill="#E6E6E6"/>
        <path d="M187.212 40.8168H66.7666V107.873H187.212V40.8168Z" fill="#E0E0E0"/>
        <path d="M193.827 40.8168H67.373V107.873H193.827V40.8168Z" fill="#F5F5F5"/>
        <path d="M191.761 105.807V42.8831L69.439 42.8831V105.807H191.761Z" fill="white"/>
        <path d="M118.968 105.807L142.062 42.8831H103.949L80.855 105.807H118.968Z" fill="#F5F5F5"/>
        <path d="M155.653 105.807L178.747 42.8831H149.993L126.899 105.807H155.653Z" fill="#F5F5F5"/>
        <path d="M225.387 132.509H215.148V196.554H225.387V132.509Z" fill="#E6E6E6"/>
        <path d="M222.693 196.554H225.387V191.624H219.872L222.693 196.554Z" fill="#FAFAFA"/>
        <path d="M130.985 132.509H120.747V196.554H130.985V132.509Z" fill="#E6E6E6"/>
        <path d="M225.387 132.509H128.637V195.222H225.387V132.509Z" fill="#FAFAFA"/>
        <path d="M223.557 152.745H130.472V135.033H223.557V152.745ZM130.986 152.231H223.043V135.547H130.986V152.231Z" fill="#E6E6E6"/>
        <path d="M207.17 143.632H148.662C145.948 143.632 143.332 141.443 141.466 137.618L141.291 137.253H214.536L214.361 137.618C212.48 141.443 209.91 143.632 207.17 143.632ZM142.134 137.752C143.871 141.16 146.246 143.103 148.662 143.103H207.17C209.596 143.103 211.961 141.16 213.698 137.752H142.134Z" fill="#E6E6E6"/>
        <path d="M131.33 196.554H128.637V191.624H134.152L131.33 196.554Z" fill="#FAFAFA"/>
        <path d="M223.557 172.704H130.472V155.012H223.557V172.704ZM130.986 172.19H223.043V155.526H130.986V172.19Z" fill="#E6E6E6"/>
        <path d="M207.17 163.611H148.662C145.948 163.611 143.332 161.417 141.466 157.598L141.291 157.228H214.536L214.361 157.598C212.48 161.396 209.91 163.611 207.17 163.611ZM142.134 157.742C143.871 161.149 146.246 163.097 148.662 163.097H207.17C209.596 163.097 211.961 161.149 213.698 157.742H142.134Z" fill="#E6E6E6"/>
        <path d="M223.557 192.699H130.472V174.986H223.557V192.699ZM130.986 192.185H223.043V175.5H130.986V192.185Z" fill="#E6E6E6"/>
        <path d="M207.17 183.585H148.662C145.948 183.585 143.332 181.396 141.466 177.577L141.291 177.207H214.536L214.361 177.577C212.48 181.396 209.91 183.585 207.17 183.585ZM142.134 177.721C143.871 181.128 146.246 183.071 148.662 183.071H207.17C209.596 183.071 211.961 181.128 213.698 177.721H142.134Z" fill="#E6E6E6"/>
        <path d="M62.382 140.98V142.224H61.5905L60.9326 151.974H51.2488L50.596 142.224H49.7993V140.98H62.382Z" fill="#E6E6E6"/>
        <path d="M59.1953 116.786C58.4038 110.978 50.5653 109.323 40.6194 109.107C31.1566 108.906 28.124 105.56 28.124 105.56C28.124 105.56 28.1549 119.114 41.7913 124.028C54.7389 128.685 59.992 122.604 59.1953 116.786Z" fill="#E6E6E6"/>
        <path d="M54.3634 129.949C54.5279 127.564 58.3418 123.175 67.5167 125.169C74.1473 126.614 76.6145 123.175 76.6145 123.175C76.6145 123.175 75.9977 132.879 66.0261 135.794C56.5531 138.564 54.0704 134.154 54.3634 129.949Z" fill="#E6E6E6"/>
        <path d="M56.4557 144.64C56.5073 144.64 56.5585 144.629 56.6055 144.608C56.6526 144.587 56.6944 144.555 56.7281 144.516C57.3912 143.73 56.8463 141.849 56.0959 139.243C55.1296 135.902 53.9268 131.738 54.9445 128.721C55.5086 127.127 56.1677 125.569 56.9183 124.054C58.3575 121.011 59.6014 118.4 58.5631 115.635C58.5469 115.591 58.5221 115.55 58.4902 115.516C58.4583 115.482 58.42 115.454 58.3773 115.434C58.3346 115.415 58.2885 115.404 58.2417 115.403C58.1948 115.401 58.1481 115.409 58.1043 115.426C58.0605 115.442 58.0204 115.467 57.9864 115.5C57.9523 115.532 57.925 115.571 57.906 115.613C57.887 115.656 57.8767 115.702 57.8757 115.749C57.8747 115.796 57.8829 115.843 57.9 115.886C58.8304 118.349 57.7047 120.733 56.2758 123.756C55.5157 125.295 54.8463 126.877 54.2712 128.495C53.1866 131.723 54.4202 136.004 55.4123 139.438C55.9982 141.494 56.6047 143.55 56.1884 144.064C56.1553 144.099 56.13 144.141 56.1141 144.187C56.0982 144.233 56.0919 144.282 56.0958 144.33C56.0997 144.378 56.1135 144.425 56.1366 144.468C56.1596 144.511 56.1912 144.548 56.2295 144.578C56.2952 144.625 56.3754 144.647 56.4557 144.64Z" fill="#E6E6E6"/>
        <path d="M128.698 219.766C183.738 219.766 228.358 217.161 228.358 213.947C228.358 210.734 183.738 208.129 128.698 208.129C73.6576 208.129 29.0386 210.734 29.0386 213.947C29.0386 217.161 73.6576 219.766 128.698 219.766Z" fill="#F5F5F5"/>
        <path d="M128.678 185.58H55.6896L51.6958 68.1975H124.684L128.678 185.58Z" fill="#512210"/>
        <path d="M132.322 181.935H59.3339L55.335 64.5532H128.323L132.322 181.935Z" fill="#512210"/>
        <path opacity="0.3" d="M132.322 181.935H59.3339L55.335 64.5532H128.323L132.322 181.935Z" fill="white"/>
        <path d="M107.867 112.856C115.682 104.906 115.349 91.9068 107.124 83.8212C98.8993 75.7356 85.8963 75.6255 78.0814 83.5753C70.2664 91.525 70.5989 104.524 78.824 112.61C87.0491 120.695 100.052 120.806 107.867 112.856Z" fill="#512210"/>
        <path d="M109.922 98.2202C110.027 101.017 109.416 103.795 108.148 106.29C106.78 108.979 104.689 111.234 102.11 112.801C99.532 114.368 96.5679 115.185 93.5507 115.162C90.4626 115.145 87.4332 114.317 84.7664 112.759C82.0996 111.202 79.8892 108.971 78.3569 106.29C76.9281 103.833 76.13 101.061 76.0336 98.2202C75.9388 96.0178 76.2927 93.8191 77.074 91.7576C77.8552 89.6962 79.0473 87.8151 80.578 86.2287C82.1087 84.6422 83.9459 83.3835 85.9781 82.5291C88.0103 81.6746 90.1949 81.2423 92.3994 81.2582C96.9407 81.2904 101.295 83.0707 104.558 86.2294C107.821 89.3881 109.742 93.6824 109.922 98.2202Z" fill="white"/>
        <path opacity="0.6" d="M108.138 106.29C106.77 108.979 104.679 111.234 102.1 112.801C99.5218 114.368 96.5577 115.185 93.5405 115.162C90.4524 115.145 87.423 114.316 84.7562 112.759C82.0894 111.202 79.879 108.971 78.3467 106.29C82.6937 103.326 87.8374 101.751 93.0985 101.772C98.4444 101.783 103.671 103.354 108.138 106.29Z" fill="#512210"/>
        <path opacity="0.6" d="M98.2548 97.7976C101.128 94.8744 101.006 90.0944 97.9817 87.1213C94.9573 84.1482 90.1759 84.1077 87.3023 87.0309C84.4287 89.9541 84.5509 94.7341 87.5753 97.7072C90.5998 100.68 95.3811 100.721 98.2548 97.7976Z" fill="#512210"/>
        <path d="M117.657 139.428H71.0992L70.7856 130.176H117.344L117.657 139.428Z" fill="white"/>
        <path d="M118.223 155.963H71.6597L71.3462 146.711H117.909L118.223 155.963Z" fill="white"/>
        <path d="M100.253 147.986L89.0327 149.528C88.9256 149.54 88.8222 149.574 88.729 149.628C88.6358 149.682 88.5548 149.755 88.4911 149.842C88.4274 149.929 88.3823 150.028 88.3588 150.133C88.3352 150.238 88.3336 150.347 88.3542 150.453L89.8294 157.973C89.8776 158.193 90.0067 158.388 90.1913 158.518C90.3758 158.649 90.6024 158.705 90.8265 158.677L102.047 157.135C102.154 157.121 102.257 157.086 102.349 157.031C102.442 156.976 102.522 156.903 102.586 156.816C102.649 156.729 102.693 156.629 102.716 156.524C102.74 156.419 102.741 156.31 102.72 156.205L101.25 148.685C101.202 148.464 101.073 148.27 100.888 148.141C100.703 148.011 100.477 147.956 100.253 147.986ZM97.0305 155.603L94.9745 155.876L94.774 153.45C94.5622 153.358 94.3755 153.217 94.2297 153.038C94.0838 152.859 93.9832 152.648 93.9362 152.422C93.8984 152.247 93.8978 152.065 93.9344 151.89C93.971 151.715 94.044 151.549 94.1486 151.404C94.2533 151.258 94.3873 151.137 94.5419 151.046C94.6966 150.956 94.8685 150.899 95.0465 150.88C95.4115 150.833 95.781 150.924 96.0817 151.137C96.3824 151.349 96.5926 151.666 96.6707 152.026C96.7152 152.243 96.7016 152.468 96.6312 152.678C96.5608 152.889 96.4361 153.077 96.2698 153.223L97.0305 155.603Z" fill="#512210"/>
        <path d="M99.1432 147.58C98.9449 147.605 98.7442 147.555 98.5807 147.44C98.4171 147.325 98.3024 147.153 98.2592 146.958L98.1152 146.223C97.9098 145.22 97.3476 144.325 96.5328 143.705C95.7181 143.085 94.7061 142.782 93.6846 142.851C93.1691 142.88 92.666 143.02 92.2094 143.261C91.7528 143.502 91.3534 143.839 91.0384 144.248C90.7234 144.657 90.5002 145.129 90.3838 145.632C90.2675 146.135 90.2608 146.657 90.3641 147.163L90.5286 148.011C90.5478 148.105 90.5471 148.202 90.5266 148.296C90.5061 148.39 90.4663 148.478 90.4097 148.556C90.3531 148.633 90.2809 148.698 90.1978 148.746C90.1148 148.794 90.0226 148.824 89.9272 148.834C89.7285 148.862 89.5266 148.813 89.3625 148.697C89.1984 148.582 89.0842 148.408 89.0431 148.212L88.9044 147.497C88.7632 146.83 88.7585 146.14 88.8906 145.471C89.0227 144.801 89.2887 144.165 89.6728 143.601C90.0569 143.037 90.5511 142.556 91.1257 142.188C91.7003 141.82 92.3434 141.571 93.0164 141.458C94.4756 141.213 95.9731 141.539 97.1982 142.369C98.4232 143.199 99.2818 144.468 99.5956 145.914L99.76 146.757C99.7792 146.852 99.7781 146.951 99.7567 147.045C99.7353 147.14 99.6941 147.229 99.6359 147.307C99.5776 147.384 99.5036 147.449 99.4187 147.496C99.3338 147.543 99.24 147.571 99.1432 147.58Z" fill="#512210"/>
        <path d="M110.538 168.921H80.2278L80.0273 162.897H110.333L110.538 168.921Z" fill="#512210"/>
        <path d="M95.915 134.802C95.9241 135.021 95.8884 135.241 95.8102 135.446C95.732 135.652 95.6128 135.839 95.46 135.997C95.3072 136.155 95.1238 136.281 94.9211 136.366C94.7183 136.451 94.5004 136.494 94.2805 136.493C93.8273 136.489 93.3927 136.312 93.0665 135.997C92.7404 135.682 92.5475 135.254 92.5277 134.802C92.5187 134.582 92.5543 134.363 92.6326 134.157C92.7108 133.952 92.8299 133.764 92.9827 133.606C93.1356 133.448 93.3189 133.322 93.5217 133.237C93.7244 133.152 93.9424 133.109 94.1623 133.111C94.6159 133.113 95.0511 133.29 95.3776 133.605C95.704 133.92 95.8965 134.348 95.915 134.802Z" fill="#263238"/>
        <path d="M88.6062 134.802C88.6159 135.021 88.5808 135.241 88.5029 135.447C88.4249 135.653 88.3058 135.841 88.1528 135.999C87.9998 136.157 87.8162 136.283 87.6131 136.367C87.41 136.452 87.1917 136.495 86.9716 136.493C86.5189 136.489 86.085 136.311 85.7596 135.997C85.4343 135.682 85.2425 135.254 85.224 134.802C85.215 134.582 85.2506 134.363 85.3289 134.157C85.4071 133.952 85.5262 133.764 85.679 133.606C85.8319 133.448 86.0152 133.322 86.218 133.237C86.4207 133.152 86.6387 133.109 86.8586 133.111C87.3116 133.113 87.7463 133.29 88.072 133.605C88.3976 133.92 88.5889 134.349 88.6062 134.802Z" fill="#263238"/>
        <path d="M81.3435 134.802C81.3525 135.021 81.3169 135.241 81.2386 135.446C81.1604 135.652 81.0413 135.839 80.8885 135.997C80.7356 136.155 80.5523 136.281 80.3495 136.366C80.1468 136.451 79.9288 136.494 79.7089 136.493C79.2559 136.49 78.8212 136.313 78.4955 135.998C78.1699 135.683 77.9786 135.254 77.9613 134.802C77.9523 134.582 77.9879 134.363 78.0662 134.157C78.1444 133.952 78.2635 133.764 78.4163 133.606C78.5692 133.448 78.7525 133.322 78.9553 133.237C79.158 133.152 79.376 133.109 79.5959 133.111C80.049 133.113 80.4836 133.29 80.8093 133.605C81.1349 133.92 81.3262 134.349 81.3435 134.802Z" fill="#263238"/>
        <path d="M103.199 134.802C103.208 135.021 103.172 135.241 103.094 135.446C103.016 135.652 102.896 135.839 102.744 135.997C102.591 136.155 102.407 136.281 102.205 136.366C102.002 136.451 101.784 136.494 101.564 136.493C101.111 136.49 100.676 136.313 100.351 135.998C100.025 135.683 99.8336 135.254 99.8164 134.802C99.8087 134.583 99.8456 134.364 99.9249 134.16C100.004 133.955 100.124 133.769 100.277 133.613C100.431 133.456 100.614 133.332 100.817 133.248C101.019 133.165 101.237 133.123 101.456 133.126C101.906 133.129 102.337 133.305 102.661 133.617C102.985 133.928 103.178 134.352 103.199 134.802Z" fill="#263238"/>
        <path d="M110.482 134.802C110.492 135.021 110.457 135.241 110.379 135.447C110.301 135.653 110.182 135.841 110.029 135.999C109.876 136.157 109.692 136.283 109.489 136.367C109.286 136.452 109.068 136.495 108.848 136.493C108.395 136.489 107.961 136.311 107.636 135.997C107.31 135.682 107.118 135.254 107.1 134.802C107.091 134.582 107.127 134.363 107.205 134.157C107.283 133.952 107.402 133.764 107.555 133.606C107.708 133.448 107.891 133.322 108.094 133.237C108.297 133.152 108.515 133.109 108.735 133.111C109.188 133.113 109.622 133.29 109.948 133.605C110.274 133.92 110.465 134.349 110.482 134.802Z" fill="#263238"/>
        <path d="M171.828 89.5798C172.512 90.6798 173.082 91.7284 173.668 92.8232C174.254 93.918 174.784 95.018 175.303 96.1436C176.362 98.4229 177.239 100.783 177.924 103.201C178.017 103.504 178.083 103.828 178.161 104.141L178.274 104.619L178.33 104.856L178.397 105.247C178.513 106.133 178.459 107.033 178.238 107.899C177.883 109.243 177.343 110.532 176.634 111.728C175.366 113.902 173.832 115.91 172.07 117.706L169.906 116.071C170.992 114.075 171.958 112.015 172.8 109.903C173.174 108.973 173.438 108.002 173.586 107.01C173.633 106.707 173.619 106.397 173.545 106.1L173.339 105.473C173.257 105.216 173.18 104.959 173.082 104.697C172.3 102.576 171.396 100.503 170.373 98.4875C169.345 96.4315 168.24 94.3755 167.135 92.412L171.828 89.5798Z" fill="#FF8B7B"/>
        <path d="M170.456 115.357L168.091 116.606L170.805 119.782C170.805 119.782 172.501 118.636 172.579 116.889L170.456 115.357Z" fill="#FF8B7B"/>
        <path d="M164.92 118.564L167.824 120.872L170.805 119.782L168.091 116.606L164.92 118.564Z" fill="#FF8B7B"/>
        <path d="M154.989 72.7618C154.933 73.0496 154.732 73.2501 154.547 73.2141C154.362 73.1781 154.254 72.9108 154.311 72.6281C154.367 72.3454 154.568 72.1141 154.758 72.1758C154.948 72.2375 155.046 72.4739 154.989 72.7618Z" fill="#263238"/>
        <path d="M154.758 73.2552C154.241 74.0603 153.614 74.7902 152.897 75.4243C153.067 75.5998 153.272 75.7366 153.499 75.8253C153.726 75.914 153.97 75.9526 154.213 75.9383L154.758 73.2552Z" fill="#FF5652"/>
        <path d="M153.833 83.34V79.9681L158.295 80.4821C158.295 80.4821 158.223 83.3811 155.725 84.2343L153.833 83.34Z" fill="#FF8B7B"/>
        <path d="M155.118 77.542L158.258 78.4466L158.315 80.5078L153.854 79.9681L155.118 77.542Z" fill="#FF8B7B"/>
        <path opacity="0.2" d="M158.259 78.4466L155.118 77.542L154.506 78.7139C154.54 79.6373 154.828 80.5335 155.34 81.3028C155.852 82.0722 156.567 82.6848 157.405 83.0726C157.945 82.3189 158.26 81.428 158.315 80.5026L158.259 78.4466Z" fill="black"/>
        <path d="M156.357 71.3895C156.39 71.3886 156.422 71.3784 156.449 71.3601C156.476 71.3418 156.498 71.3161 156.512 71.286C156.525 71.2559 156.53 71.2227 156.525 71.19C156.52 71.1574 156.506 71.1268 156.485 71.1016C156.305 70.8978 156.078 70.74 155.824 70.6417C155.57 70.5433 155.296 70.5072 155.025 70.5362C154.981 70.5438 154.942 70.5686 154.916 70.6052C154.89 70.6418 154.879 70.6873 154.887 70.7316C154.894 70.7762 154.919 70.8161 154.955 70.8429C154.992 70.8698 155.037 70.8814 155.082 70.8755C155.296 70.8544 155.513 70.885 155.713 70.9646C155.913 71.0441 156.092 71.1704 156.233 71.3329C156.249 71.3501 156.268 71.364 156.289 71.3737C156.31 71.3834 156.333 71.3888 156.357 71.3895Z" fill="#263238"/>
        <path d="M162.926 77.9635C162.412 80.6106 162.093 84.2754 163.954 86.0384C163.954 86.0384 163.234 88.7215 158.3 88.7215C152.897 88.7215 155.704 86.3674 155.704 86.3674C157.95 85.6684 157.929 83.1138 157.415 81.0578L162.926 77.9635Z" fill="#FF8B7B"/>
        <path d="M164.956 87.8066C165.439 87.1281 165.419 84.9744 164.905 84.5941C164.077 83.9824 160.525 83.8385 155.75 84.9385C156.264 87.0253 155.159 88.115 155.159 88.115L164.956 87.8066Z" fill="#512210"/>
        <path d="M181.023 209.835C180.877 209.887 180.721 209.909 180.566 209.9C180.411 209.891 180.259 209.852 180.119 209.784C180.066 209.735 180.029 209.67 180.015 209.599C180 209.528 180.008 209.454 180.037 209.388C180.053 209.333 180.081 209.281 180.119 209.238C180.157 209.194 180.205 209.16 180.258 209.136C180.746 208.9 181.866 209.357 181.918 209.378C181.933 209.384 181.946 209.395 181.955 209.408C181.965 209.422 181.969 209.438 181.969 209.455C181.969 209.471 181.965 209.488 181.957 209.502C181.949 209.516 181.937 209.529 181.923 209.537C181.633 209.665 181.332 209.764 181.023 209.835ZM180.432 209.254C180.398 209.262 180.366 209.275 180.335 209.29C180.303 209.302 180.274 209.321 180.251 209.346C180.227 209.371 180.21 209.402 180.201 209.434C180.155 209.589 180.201 209.64 180.232 209.655C180.427 209.82 181.147 209.655 181.656 209.465C181.269 209.305 180.851 209.233 180.432 209.254Z" fill="#512210"/>
        <path d="M181.902 209.542H181.861C181.45 209.424 180.576 208.802 180.566 208.396C180.566 208.332 180.587 208.269 180.627 208.218C180.668 208.168 180.724 208.133 180.787 208.119C180.848 208.096 180.913 208.087 180.978 208.092C181.043 208.097 181.106 208.117 181.162 208.149C181.645 208.396 181.954 209.393 181.964 209.44C181.971 209.452 181.975 209.466 181.975 209.481C181.975 209.495 181.971 209.509 181.964 209.522C181.956 209.53 181.946 209.536 181.936 209.539C181.925 209.543 181.913 209.544 181.902 209.542ZM180.874 208.263H180.833C180.73 208.298 180.73 208.35 180.73 208.376C180.73 208.617 181.316 209.105 181.758 209.301C181.65 209.013 181.414 208.442 181.1 208.273C181.031 208.241 180.952 208.237 180.879 208.263H180.874Z" fill="#512210"/>
        <path d="M154.326 210.442C153.864 210.442 153.416 210.375 153.267 210.169C153.228 210.115 153.208 210.049 153.208 209.982C153.208 209.915 153.228 209.849 153.267 209.794C153.297 209.744 153.336 209.7 153.383 209.666C153.43 209.631 153.483 209.607 153.54 209.594C154.141 209.429 155.406 210.149 155.457 210.18C155.473 210.187 155.485 210.2 155.493 210.216C155.5 210.232 155.502 210.25 155.498 210.267C155.496 210.285 155.489 210.301 155.477 210.314C155.465 210.327 155.449 210.336 155.431 210.339C155.067 210.406 154.697 210.44 154.326 210.442ZM153.756 209.738C153.701 209.729 153.646 209.729 153.591 209.738C153.556 209.745 153.523 209.759 153.494 209.779C153.465 209.8 153.44 209.826 153.422 209.856C153.36 209.964 153.386 210.015 153.422 210.046C153.591 210.283 154.501 210.288 155.174 210.19C154.735 209.95 154.253 209.796 153.756 209.738Z" fill="#512210"/>
        <path d="M155.426 210.339H155.39C154.953 210.144 154.09 209.362 154.156 208.951C154.156 208.854 154.239 208.735 154.475 208.715C154.56 208.705 154.645 208.713 154.727 208.737C154.808 208.762 154.883 208.803 154.948 208.859C155.277 209.253 155.475 209.74 155.513 210.252C155.513 210.266 155.51 210.281 155.504 210.294C155.498 210.307 155.489 210.319 155.477 210.329C155.462 210.337 155.444 210.34 155.426 210.339ZM154.542 208.874H154.491C154.336 208.874 154.326 208.946 154.326 208.967C154.285 209.213 154.871 209.83 155.318 210.097C155.279 209.685 155.112 209.295 154.84 208.982C154.756 208.91 154.648 208.872 154.537 208.874H154.542Z" fill="#512210"/>
        <path d="M159.394 210.257H155.781L155.421 201.884H159.034L159.394 210.257Z" fill="#FF8B7B"/>
        <path d="M185.932 208.581L182.401 209.347L178.849 201.55L182.385 200.784L185.932 208.581Z" fill="#FF8B7B"/>
        <path d="M182.056 208.992L186.03 208.134C186.099 208.119 186.171 208.129 186.235 208.16C186.298 208.192 186.349 208.244 186.379 208.309L187.757 211.3C187.793 211.373 187.812 211.453 187.812 211.534C187.812 211.615 187.792 211.695 187.755 211.767C187.718 211.84 187.664 211.902 187.599 211.949C187.533 211.997 187.457 212.028 187.376 212.04C185.989 212.313 185.295 212.38 183.552 212.755C182.478 212.991 180.052 213.582 178.566 213.901C177.081 214.22 176.572 212.796 177.153 212.534C179.749 211.347 180.828 210.303 181.532 209.332C181.659 209.158 181.846 209.038 182.056 208.992Z" fill="#263238"/>
        <path d="M155.807 209.835H159.754C159.826 209.836 159.895 209.86 159.951 209.905C160.007 209.95 160.046 210.012 160.063 210.082L160.777 213.295C160.798 213.372 160.801 213.454 160.784 213.532C160.768 213.611 160.733 213.685 160.683 213.748C160.633 213.811 160.569 213.861 160.496 213.895C160.423 213.929 160.343 213.945 160.263 213.942C158.839 213.916 156.783 213.834 154.995 213.834C152.898 213.834 151.093 213.947 148.636 213.947C147.151 213.947 146.74 212.446 147.362 212.308C150.189 211.691 152.502 211.624 154.943 210.118C155.2 209.946 155.498 209.848 155.807 209.835Z" fill="#263238"/>
        <path d="M170.419 86.866C173.807 87.6422 176.587 96.2928 176.587 96.2928L169.818 101.469C168.061 99.5901 166.821 97.2878 166.22 94.7868C165.022 90.2533 166.955 86.0642 170.419 86.866Z" fill="#512210"/>
        <path opacity="0.4" d="M170.419 86.866C173.807 87.6422 176.587 96.2928 176.587 96.2928L169.818 101.469C168.061 99.5901 166.821 97.2878 166.22 94.7868C165.022 90.2533 166.955 86.0642 170.419 86.866Z" fill="black"/>
        <path d="M152.599 97.182C151.756 98.0918 150.913 98.9039 150.029 99.752C149.592 100.163 149.15 100.574 148.698 100.97L148.014 101.572L147.845 101.721L147.552 101.957C147.25 102.198 146.916 102.395 146.56 102.543C146.163 102.711 145.737 102.799 145.306 102.8C144.937 102.802 144.572 102.737 144.226 102.61C143.843 102.464 143.493 102.242 143.198 101.957C142.822 101.589 142.546 101.131 142.396 100.626C142.318 100.377 142.268 100.12 142.247 99.8599C142.22 99.5555 142.22 99.2494 142.247 98.945C142.273 98.6983 142.304 98.4824 142.345 98.2819C142.486 97.5811 142.685 96.8933 142.941 96.2259C143.172 95.5916 143.438 94.9704 143.738 94.3653C144.067 93.7125 144.38 93.2345 144.694 92.6896C145.967 90.6034 147.421 88.6324 149.037 86.7992C150.637 84.9768 152.401 83.3044 154.306 81.8031L156.197 83.7512C154.871 85.5296 153.566 87.4365 152.358 89.3126C151.155 91.1781 150.057 93.1085 149.068 95.0951C148.847 95.5783 148.554 96.1231 148.415 96.5138C148.231 96.9676 148.072 97.4308 147.937 97.9016C147.808 98.3255 147.71 98.7585 147.644 99.1969C147.641 99.2654 147.641 99.334 147.644 99.4025C147.644 99.4436 147.644 99.4641 147.644 99.3562C147.636 99.2408 147.613 99.1269 147.577 99.017C147.466 98.6526 147.263 98.3232 146.986 98.0609C146.74 97.8351 146.452 97.6604 146.138 97.5469C145.862 97.4424 145.57 97.3884 145.275 97.3876C144.991 97.3842 144.709 97.4384 144.447 97.5469C144.358 97.5832 144.272 97.6261 144.19 97.6754L144.385 97.4955L145.007 96.9301L146.236 95.7788C147.048 95.0129 147.865 94.1956 148.636 93.4349L152.599 97.182Z" fill="#FF8B7B"/>
        <path opacity="0.2" d="M167.516 93.219C169.356 95.0386 169.957 98.359 170.086 101.237L169.787 101.469C168.03 99.5901 166.791 97.2877 166.189 94.7867C166.123 94.5194 166.061 94.2727 166.015 93.9797L167.516 93.219Z" fill="black"/>
        <path d="M149.006 90.4639C148.266 94.3703 147.804 102.394 149.947 118.276H169.304C169.438 115.311 167.572 100.826 170.435 86.8402C168.296 86.4295 166.133 86.1565 163.959 86.023C161.219 85.8659 158.474 85.8659 155.735 86.023C154.83 86.1052 153.936 86.2388 153.165 86.3776C152.139 86.5575 151.193 87.0445 150.45 87.7742C149.708 88.5039 149.204 89.4418 149.006 90.4639Z" fill="#512210"/>
        <path opacity="0.4" d="M149.006 90.4639C148.266 94.3703 147.804 102.394 149.947 118.276H169.304C169.438 115.311 167.572 100.826 170.435 86.8402C168.296 86.4295 166.133 86.1565 163.959 86.023C161.219 85.8659 158.474 85.8659 155.735 86.023C154.83 86.1052 153.936 86.2388 153.165 86.3776C152.139 86.5575 151.193 87.0445 150.45 87.7742C149.708 88.5039 149.204 89.4418 149.006 90.4639Z" fill="black"/>
        <path opacity="0.2" d="M151.967 96.2568L148.472 95.4189C148.364 97.5366 148.353 100.158 148.508 103.401C150.116 101.572 152.172 98.7137 151.967 96.2568Z" fill="black"/>
        <path opacity="0.2" d="M155.421 201.884L155.606 206.201H159.225L159.039 201.884H155.421Z" fill="black"/>
        <path opacity="0.2" d="M182.385 200.784L178.849 201.55L180.679 205.569L184.215 204.803L182.385 200.784Z" fill="black"/>
        <path d="M164.642 74.0982C163.717 77.5625 163.347 79.6391 161.209 81.0783C157.996 83.2679 153.987 80.7596 153.884 77.0999C153.771 73.7949 155.308 68.6806 159.024 67.9815C159.841 67.8283 160.683 67.8855 161.472 68.1478C162.26 68.4101 162.969 68.8688 163.531 69.4808C164.093 70.0927 164.49 70.8377 164.684 71.6456C164.879 72.4534 164.864 73.2974 164.642 74.0982Z" fill="#FF8B7B"/>
        <path d="M156.531 74.2267C156.356 73.7641 155.56 70.1815 156.31 69.2512C157.061 68.3208 165.619 68.9942 166.883 70.238C168.985 72.294 167.526 74.1444 165.228 76.5243C163.501 78.313 163.434 80.3279 162.56 80.6363C161.018 81.1503 158.664 80.6671 158.191 79.0377C157.719 77.4083 156.531 74.2267 156.531 74.2267Z" fill="#263238"/>
        <path d="M165.845 66.162C162.823 64.877 157.153 66.3008 154.09 65.5607C154.051 66.6998 154.425 67.8145 155.144 68.6989C155.863 69.5832 156.878 70.1774 158.001 70.3717C160.542 70.856 163.124 71.0953 165.711 71.0862C169.073 70.932 168.415 67.2569 165.845 66.162Z" fill="#263238"/>
        <path d="M166.318 70.346C167.422 70.4547 168.534 70.2423 169.52 69.7344C170.085 71.1016 166.976 71.4768 166.318 70.346Z" fill="#263238"/>
        <path d="M158.176 74.3706C158.107 75.262 157.745 76.1056 157.148 76.771C156.357 77.6396 155.534 77.0948 155.395 76.0411C155.272 75.0851 155.529 73.4711 156.495 73.0085C157.462 72.5459 158.243 73.2963 158.176 74.3706Z" fill="#FF8B7B"/>
        <path d="M156.809 118.292C156.809 118.292 160.921 145.919 163.167 156.271C165.629 167.605 178.86 205.101 178.86 205.101L185.331 203.698C185.331 203.698 176.079 173.136 174.023 157.289C172.43 145.118 169.299 118.282 169.299 118.282L156.809 118.292Z" fill="#512210"/>
        <path d="M177.307 202.948C177.281 202.948 178.515 205.292 178.515 205.292L185.793 203.714L185.182 201.524L177.307 202.948Z" fill="#263238"/>
        <path opacity="0.3" d="M159.405 128.135C164.149 129.065 163.645 146.757 163.075 155.86C161.707 149.425 159.703 137.048 158.335 128.263C158.667 128.1 159.044 128.055 159.405 128.135Z" fill="black"/>
        <path d="M149.947 118.292C149.947 118.292 149.433 145.323 149.844 156.328C150.255 167.795 154.259 205.343 154.259 205.343H160.386C160.386 205.343 160.607 168.463 160.9 157.202C161.198 144.927 162.679 118.271 162.679 118.271L149.947 118.292Z" fill="#512210"/>
        <path d="M153.082 202.927C153.052 202.927 153.427 205.466 153.427 205.466H160.875L161.08 203.2L153.082 202.927Z" fill="#263238"/>
        <path d="M156.583 91.6667C158.315 96.339 148.133 101.844 148.133 101.844L143.723 96.1899C143.723 96.1899 146.688 90.3201 150.286 87.6781C154.733 84.4193 155.262 88.1099 156.583 91.6667Z" fill="#512210"/>
        <path opacity="0.4" d="M156.583 91.6667C158.315 96.339 148.133 101.844 148.133 101.844L143.723 96.1899C143.723 96.1899 146.688 90.3201 150.286 87.6781C154.733 84.4193 155.262 88.1099 156.583 91.6667Z" fill="black"/>
        <path d="M196.479 56.1956C206.724 56.1956 215.029 50.9027 215.029 44.3736C215.029 37.8445 206.724 32.5516 196.479 32.5516C186.234 32.5516 177.929 37.8445 177.929 44.3736C177.929 50.9027 186.234 56.1956 196.479 56.1956Z" fill="#512210"/>
        <path d="M189.787 50.3258C188.565 50.3218 187.383 49.8873 186.45 49.0986C185.517 48.3099 184.891 47.2175 184.683 46.0133C184.479 44.7089 184.773 43.3753 185.507 42.2781C186.242 41.1808 187.362 40.4004 188.646 40.092C189.699 39.8492 190.803 39.9428 191.8 40.3596C192.798 40.7763 193.64 41.4952 194.207 42.4153L206.117 39.9584C206.574 39.8581 207.053 39.9342 207.457 40.1715C207.861 40.4088 208.161 40.7897 208.296 41.2382C208.358 41.474 208.372 41.7201 208.336 41.9613C208.3 42.2026 208.215 42.4339 208.087 42.6413C207.958 42.8486 207.789 43.0276 207.589 43.1673C207.389 43.3069 207.163 43.4044 206.924 43.4536L206.615 43.5153C206.57 43.5235 206.526 43.5421 206.489 43.5697C206.451 43.5974 206.421 43.6333 206.4 43.6746C206.38 43.7166 206.371 43.7621 206.371 43.8082C206.371 43.8543 206.38 43.8999 206.4 43.9419L206.61 44.4867C206.681 44.6633 206.688 44.859 206.63 45.0401C206.571 45.2212 206.452 45.3763 206.292 45.4787C206.165 45.5568 206.058 45.6627 205.979 45.7882C205.9 45.9138 205.85 46.0558 205.834 46.2035C205.819 46.3729 205.751 46.5332 205.639 46.6616C205.527 46.7899 205.378 46.8796 205.212 46.9179L204.971 46.9693C204.803 47.0003 204.63 46.9771 204.477 46.9032C204.323 46.8292 204.197 46.7084 204.117 46.5581C204.011 46.3789 203.851 46.2373 203.66 46.1533C203.469 46.0693 203.256 46.0469 203.052 46.0894C202.848 46.1318 202.662 46.2369 202.52 46.39C202.379 46.5432 202.288 46.7367 202.262 46.9436C202.247 47.112 202.18 47.2714 202.069 47.3989C201.958 47.5264 201.81 47.6154 201.645 47.6529L201.403 47.7043C201.236 47.7345 201.063 47.7109 200.91 47.6371C200.757 47.5632 200.631 47.4429 200.55 47.2932C200.473 47.1657 200.369 47.0564 200.246 46.973C200.123 46.8896 199.983 46.834 199.836 46.81C199.638 46.7862 199.456 46.6911 199.323 46.5425C199.191 46.3939 199.117 46.2021 199.116 46.003V45.4171C199.114 45.3712 199.102 45.3264 199.081 45.2856C199.06 45.2448 199.03 45.209 198.994 45.1807C198.958 45.1524 198.916 45.1322 198.872 45.1216C198.827 45.1109 198.781 45.11 198.736 45.1189L194.937 45.9002C194.782 46.9526 194.307 47.9316 193.576 48.7042C192.845 49.4767 191.893 50.0052 190.851 50.2178C190.501 50.2894 190.144 50.3256 189.787 50.3258ZM188.759 40.5598C187.593 40.8321 186.574 41.536 185.906 42.5298C185.239 43.5236 184.972 44.7334 185.161 45.9156C185.363 47.0155 185.952 48.0068 186.822 48.71C187.691 49.4133 188.784 49.7821 189.902 49.7498C191.019 49.7175 192.089 49.2862 192.916 48.5339C193.744 47.7817 194.275 46.7581 194.413 45.6483V45.4633L198.602 44.6152C198.722 44.5861 198.847 44.5842 198.968 44.6095C199.089 44.6348 199.203 44.6868 199.302 44.7616C199.4 44.8364 199.481 44.9322 199.538 45.042C199.594 45.1518 199.626 45.2729 199.63 45.3965V45.9825C199.631 46.0522 199.656 46.1194 199.701 46.1728C199.746 46.2262 199.808 46.2624 199.877 46.2754C200.102 46.3076 200.316 46.3905 200.504 46.5179C200.692 46.6452 200.848 46.8137 200.961 47.0104C200.989 47.0659 201.032 47.1115 201.087 47.141C201.141 47.1705 201.203 47.1823 201.265 47.1749L201.501 47.1235C201.561 47.1081 201.614 47.0738 201.653 47.0256C201.692 46.9775 201.714 46.9181 201.717 46.8563C201.749 46.5363 201.883 46.2349 202.098 45.9956C202.313 45.7564 202.598 45.5917 202.913 45.5253C203.227 45.4589 203.555 45.4944 203.848 45.6264C204.141 45.7585 204.385 45.9804 204.544 46.26C204.57 46.3151 204.613 46.3605 204.667 46.39C204.72 46.4195 204.781 46.4315 204.842 46.4245L205.089 46.3731C205.148 46.3567 205.2 46.322 205.238 46.2739C205.276 46.2259 205.297 46.167 205.3 46.1058C205.325 45.8801 205.402 45.6633 205.524 45.4717C205.646 45.2802 205.81 45.1191 206.004 45.0007C206.06 44.9599 206.102 44.9013 206.121 44.8342C206.141 44.7672 206.137 44.6955 206.112 44.6306L205.901 44.0858C205.857 43.9735 205.839 43.853 205.847 43.7328C205.854 43.6125 205.888 43.4955 205.946 43.3897C206.004 43.284 206.084 43.1922 206.181 43.1206C206.278 43.0491 206.389 42.9996 206.507 42.9756L206.821 42.9087C206.991 42.8726 207.151 42.8025 207.293 42.7028C207.435 42.6031 207.556 42.4758 207.647 42.3285C207.739 42.1812 207.8 42.0169 207.827 41.8454C207.853 41.674 207.845 41.499 207.803 41.3308C207.702 41.0073 207.483 40.7337 207.19 40.565C206.896 40.3962 206.55 40.3448 206.22 40.421L193.976 42.9653L193.884 42.8059C193.392 41.9302 192.628 41.2384 191.708 40.835C190.788 40.4317 189.762 40.3386 188.785 40.57L188.759 40.5598ZM189.787 48.4137C189.149 48.4208 188.522 48.2422 187.983 47.8997C187.346 47.4812 186.873 46.8547 186.646 46.1268C186.419 45.3989 186.451 44.6149 186.737 43.9082C187.024 43.2015 187.546 42.616 188.216 42.2516C188.886 41.8871 189.661 41.7661 190.41 41.9094C191.159 42.0526 191.835 42.4511 192.323 43.0371C192.811 43.623 193.08 44.36 193.086 45.1224C193.091 45.8849 192.832 46.6256 192.352 47.2182C191.872 47.8109 191.202 48.2189 190.455 48.3726C190.237 48.4121 190.014 48.4294 189.792 48.424L189.787 48.4137ZM189.787 42.3433C189.596 42.3444 189.404 42.3633 189.216 42.3999C188.858 42.4761 188.519 42.6222 188.217 42.8297C187.916 43.0372 187.658 43.3021 187.458 43.6092C187.259 43.9164 187.122 44.2597 187.056 44.6198C186.989 44.9798 186.994 45.3494 187.071 45.7075C187.147 46.0655 187.293 46.4051 187.5 46.7067C187.708 47.0084 187.973 47.2662 188.28 47.4655C188.587 47.6647 188.93 47.8016 189.29 47.8681C189.65 47.9347 190.02 47.9297 190.378 47.8534C190.916 47.7415 191.408 47.473 191.793 47.0816C192.178 46.6903 192.439 46.1937 192.542 45.6544C192.646 45.1151 192.587 44.5574 192.374 44.0514C192.161 43.5453 191.803 43.1138 191.344 42.8111C190.889 42.5084 190.354 42.3491 189.808 42.3536L189.787 42.3433Z" fill="white"/>
        <path opacity="0.6" d="M181.383 63.1295C184.75 63.1295 187.479 61.3897 187.479 59.2436C187.479 57.0975 184.75 55.3578 181.383 55.3578C178.016 55.3578 175.287 57.0975 175.287 59.2436C175.287 61.3897 178.016 63.1295 181.383 63.1295Z" fill="#512210"/>
        <path opacity="0.3" d="M171.684 64.7229C173.066 64.7229 174.187 64.0095 174.187 63.1295C174.187 62.2495 173.066 61.5361 171.684 61.5361C170.301 61.5361 169.181 62.2495 169.181 63.1295C169.181 64.0095 170.301 64.7229 171.684 64.7229Z" fill="#512210"/>
    </g>
    <defs>
        <clipPath id="clip0_5_4723">
            <rect width="257" height="257" fill="white" transform="translate(0.198242)"/>
        </clipPath>
    </defs>
</svg>
