<svg width="13" height="11" viewBox="0 0 13 11" fill="none" xmlns="http://www.w3.org/2000/svg">
    <path fill-rule="evenodd" clip-rule="evenodd" d="M8.33024 0.0464485C8.4508 -0.00571593 8.59037 -0.0143158 8.71825 0.0225393C8.84614 0.0593943 8.95189 0.138688 9.01224 0.242991L10.5044 2.82561C11.4216 2.88663 11.9972 3.04269 12.3687 3.43988C12.9788 4.09345 12.7355 5.07675 12.2487 7.04393L11.9579 8.21732C11.6277 9.55087 11.463 10.2174 10.9037 10.6087C10.3444 11 9.55662 11 7.9811 11H5.06598C3.49046 11 2.7027 11 2.14408 10.6087C1.58411 10.2174 1.41869 9.55087 1.08921 8.21732L0.798378 7.04393C0.311621 5.07675 0.0675639 4.09345 0.678384 3.43988C1.04989 3.0421 1.62546 2.88663 2.54271 2.82561L4.03484 0.242991C4.0957 0.139516 4.20135 0.0610524 4.32877 0.0246986C4.45619 -0.0116552 4.59505 -0.00295238 4.71508 0.0489107C4.83512 0.100774 4.92661 0.191593 4.9696 0.301577C5.0126 0.411561 5.00362 0.531794 4.94463 0.636075L3.70062 2.78924C4.02806 2.7863 4.38533 2.7863 4.77582 2.7863H8.27126C8.66175 2.7863 9.01902 2.7863 9.34646 2.78924L8.10245 0.636075C8.04222 0.531666 8.03239 0.410829 8.0751 0.300143C8.11782 0.189458 8.2096 0.0985774 8.33024 0.0464485ZM3.30335 5.71977C3.30335 5.60307 3.35692 5.49115 3.45227 5.40863C3.54762 5.32611 3.67695 5.27975 3.8118 5.27975H9.23528C9.37013 5.27975 9.49946 5.32611 9.59481 5.40863C9.69017 5.49115 9.74373 5.60307 9.74373 5.71977C9.74373 5.83647 9.69017 5.94839 9.59481 6.03091C9.49946 6.11343 9.37013 6.15979 9.23528 6.15979H3.8118C3.67695 6.15979 3.54762 6.11343 3.45227 6.03091C3.35692 5.94839 3.30335 5.83647 3.30335 5.71977ZM5.16767 7.03982C5.03282 7.03982 4.90349 7.08618 4.80814 7.1687C4.71279 7.25122 4.65922 7.36314 4.65922 7.47984C4.65922 7.59654 4.71279 7.70847 4.80814 7.79098C4.90349 7.8735 5.03282 7.91986 5.16767 7.91986H7.87941C8.01426 7.91986 8.14359 7.8735 8.23894 7.79098C8.33429 7.70847 8.38786 7.59654 8.38786 7.47984C8.38786 7.36314 8.33429 7.25122 8.23894 7.1687C8.14359 7.08618 8.01426 7.03982 7.87941 7.03982H5.16767Z" fill="#4DFF40"/>
</svg>
