<svg width="211" height="210" viewBox="0 0 211 210" fill="none" xmlns="http://www.w3.org/2000/svg">
    <path d="M100.326 143.443H19.2283C18.5926 143.442 17.9832 143.188 17.5337 142.739C17.0842 142.289 16.8312 141.68 16.8301 141.044V27.0438C16.8367 26.4118 17.0922 25.8078 17.5411 25.3628C17.99 24.9178 18.5962 24.6677 19.2283 24.6666H100.326C100.961 24.6677 101.57 24.9209 102.019 25.3705C102.468 25.8202 102.72 26.4295 102.72 27.0648V141.044C102.72 141.68 102.468 142.289 102.019 142.739C101.57 143.188 100.961 143.442 100.326 143.443ZM19.2283 24.7506C18.6204 24.7517 18.0378 24.9937 17.608 25.4235C17.1782 25.8533 16.9362 26.436 16.9351 27.0438V141.044C16.9362 141.652 17.1782 142.235 17.608 142.665C18.0378 143.095 18.6204 143.337 19.2283 143.338H100.326C100.934 143.337 101.516 143.094 101.945 142.664C102.374 142.235 102.615 141.652 102.615 141.044V27.0438C102.615 26.4364 102.374 25.8537 101.945 25.4238C101.516 24.9938 100.934 24.7517 100.326 24.7506H19.2283Z" fill="#E6E6E6"/>
    <path d="M191.172 143.443H110.07C109.435 143.442 108.826 143.188 108.377 142.739C107.928 142.289 107.676 141.68 107.676 141.044V27.0438C107.682 26.4122 107.936 25.8082 108.385 25.3631C108.833 24.918 109.439 24.6677 110.07 24.6666H191.172C191.804 24.6677 192.41 24.918 192.858 25.3631C193.306 25.8082 193.561 26.4122 193.566 27.0438V141.044C193.566 141.68 193.314 142.289 192.865 142.739C192.416 143.188 191.808 143.442 191.172 143.443ZM110.07 24.7506C109.463 24.7517 108.881 24.9938 108.451 25.4238C108.022 25.8537 107.781 26.4364 107.781 27.0438V141.044C107.781 141.652 108.022 142.235 108.451 142.664C108.881 143.094 109.463 143.337 110.07 143.338H191.172C191.781 143.337 192.364 143.095 192.794 142.665C193.225 142.235 193.467 141.653 193.47 141.044V27.0438C193.467 26.4356 193.225 25.853 192.794 25.4233C192.364 24.9936 191.781 24.7517 191.172 24.7506H110.07Z" fill="#E6E6E6"/>
    <path d="M87.453 82.9333L86.8776 132.3C84.8448 148.726 55.7262 161.767 55.7262 161.767C55.7262 161.767 26.6034 148.739 24.558 132.3L23.9658 82.9333L55.0878 72.6895L87.453 82.9333Z" fill="#F5F5F5"/>
    <path d="M83.3915 86.058L82.8917 130.385C81.1193 144.711 55.7219 156.085 55.7219 156.085C55.7219 156.085 30.3245 144.711 28.5563 130.385L28.0229 86.058L55.1676 77.1246L83.3915 86.058Z" fill="#E0E0E0"/>
    <path d="M81.6107 88.8553L81.1403 129.549C79.4603 142.989 55.6673 153.64 55.6673 153.64C55.6673 153.64 31.8575 142.976 30.1985 129.549L29.6987 88.8553L55.1465 80.4805L81.6107 88.8553Z" stroke="white" stroke-width="3" stroke-linecap="round" stroke-linejoin="round"/>
    <path d="M185.132 66.2719H129.113V164.569H185.132V66.2719Z" fill="#F5F5F5"/>
    <path d="M181.071 70.1359H133.254V164.569H181.071V70.1359Z" fill="#E0E0E0"/>
    <path d="M134.598 164.989C134.514 164.989 134.431 164.972 134.355 164.938C134.279 164.908 134.21 164.862 134.153 164.804C134.092 164.747 134.045 164.676 134.014 164.598C133.984 164.522 133.969 164.441 133.968 164.359C133.968 164.266 133.989 164.174 134.029 164.09C134.069 164.006 134.127 163.932 134.198 163.873C134.27 163.813 134.354 163.771 134.445 163.748C134.535 163.726 134.629 163.723 134.72 163.741L134.838 163.775L134.947 163.834C134.981 163.858 135.013 163.885 135.043 163.913C135.073 163.942 135.099 163.974 135.119 164.01C135.144 164.044 135.163 164.08 135.178 164.119C135.195 164.157 135.208 164.196 135.216 164.237C135.22 164.277 135.22 164.318 135.216 164.359C135.216 164.441 135.199 164.523 135.165 164.598C135.135 164.675 135.089 164.745 135.031 164.804C134.915 164.918 134.761 164.984 134.598 164.989Z" fill="white"/>
    <path d="M133.959 148.886C133.96 148.803 133.977 148.721 134.009 148.644C134.042 148.568 134.089 148.498 134.148 148.44C134.208 148.382 134.278 148.336 134.355 148.305C134.432 148.274 134.515 148.259 134.598 148.26C134.765 148.26 134.925 148.326 135.043 148.445C135.162 148.563 135.228 148.723 135.228 148.89C135.228 149.057 135.162 149.217 135.043 149.336C134.925 149.454 134.765 149.52 134.598 149.52C134.514 149.521 134.431 149.506 134.353 149.474C134.276 149.443 134.205 149.396 134.145 149.337C134.086 149.278 134.039 149.208 134.007 149.13C133.975 149.053 133.959 148.97 133.959 148.886ZM133.959 133.417C133.959 133.25 134.026 133.09 134.144 132.972C134.262 132.854 134.422 132.787 134.589 132.787C134.757 132.787 134.917 132.854 135.035 132.972C135.153 133.09 135.219 133.25 135.219 133.417C135.219 133.584 135.153 133.745 135.035 133.863C134.917 133.981 134.757 134.047 134.589 134.047C134.422 134.047 134.262 133.981 134.144 133.863C134.026 133.745 133.959 133.584 133.959 133.417ZM133.959 117.944C133.959 117.777 134.026 117.617 134.144 117.499C134.262 117.381 134.422 117.314 134.589 117.314C134.757 117.314 134.917 117.381 135.035 117.499C135.153 117.617 135.219 117.777 135.219 117.944C135.219 118.112 135.153 118.272 135.035 118.39C134.917 118.508 134.757 118.574 134.589 118.574C134.507 118.574 134.425 118.558 134.348 118.526C134.272 118.495 134.203 118.448 134.144 118.39C134.086 118.331 134.039 118.262 134.007 118.186C133.976 118.109 133.959 118.027 133.959 117.944ZM133.959 102.472C133.959 102.305 134.026 102.144 134.144 102.026C134.262 101.908 134.422 101.842 134.589 101.842C134.757 101.842 134.917 101.908 135.035 102.026C135.153 102.144 135.219 102.305 135.219 102.472C135.219 102.639 135.153 102.799 135.035 102.917C134.917 103.035 134.757 103.102 134.589 103.102C134.424 103.102 134.265 103.036 134.147 102.92C134.029 102.804 133.962 102.646 133.959 102.48V102.472ZM133.959 87.003C133.959 86.836 134.026 86.6757 134.144 86.5576C134.262 86.4394 134.422 86.373 134.589 86.373C134.757 86.373 134.917 86.4394 135.035 86.5576C135.153 86.6757 135.219 86.836 135.219 87.003C135.219 87.1701 135.153 87.3304 135.035 87.4485C134.917 87.5667 134.757 87.633 134.589 87.633C134.507 87.633 134.425 87.6168 134.348 87.5851C134.272 87.5534 134.203 87.507 134.144 87.4485C134.086 87.39 134.039 87.3206 134.007 87.2441C133.976 87.1677 133.959 87.0858 133.959 87.003Z" fill="white"/>
    <path d="M134.598 72.1602C134.515 72.1606 134.433 72.1445 134.357 72.1127C134.28 72.081 134.211 72.0343 134.153 71.9754C134.122 71.9472 134.095 71.9146 134.073 71.8788C134.051 71.8453 134.031 71.8102 134.014 71.7738C133.997 71.7352 133.986 71.6941 133.981 71.652C133.976 71.6115 133.976 71.5707 133.981 71.5302C133.982 71.3634 134.048 71.2036 134.166 71.085C134.193 71.0552 134.224 71.0285 134.258 71.0052C134.292 70.9829 134.329 70.9646 134.367 70.9506C134.405 70.9343 134.444 70.9216 134.485 70.9128C134.567 70.8961 134.651 70.8961 134.733 70.9128C134.773 70.9216 134.812 70.9343 134.85 70.9506C134.889 70.9646 134.925 70.9829 134.959 71.0052C134.993 71.0295 135.026 71.0562 135.056 71.085C135.173 71.2036 135.24 71.3634 135.241 71.5302C135.245 71.5707 135.245 71.6115 135.241 71.652C135.232 71.6937 135.219 71.7345 135.203 71.7738C135.188 71.811 135.168 71.8462 135.144 71.8788C135.124 71.9146 135.098 71.9471 135.069 71.9754C135.007 72.0366 134.933 72.0846 134.852 72.1164C134.772 72.1481 134.685 72.1631 134.598 72.1602Z" fill="white"/>
    <path d="M163.948 71.5303C163.948 71.3632 164.014 71.2029 164.132 71.0848C164.25 70.9666 164.411 70.9003 164.578 70.9003C164.745 70.9003 164.905 70.9666 165.023 71.0848C165.141 71.2029 165.208 71.3632 165.208 71.5303C165.208 71.6974 165.141 71.8576 165.023 71.9757C164.905 72.0939 164.745 72.1603 164.578 72.1603C164.411 72.1603 164.25 72.0939 164.132 71.9757C164.014 71.8576 163.948 71.6974 163.948 71.5303ZM148.954 71.5303C148.954 71.3632 149.02 71.2029 149.138 71.0848C149.256 70.9666 149.417 70.9003 149.584 70.9003C149.751 70.9003 149.911 70.9666 150.029 71.0848C150.147 71.2029 150.214 71.3632 150.214 71.5303C150.214 71.6974 150.147 71.8576 150.029 71.9757C149.911 72.0939 149.751 72.1603 149.584 72.1603C149.417 72.1603 149.256 72.0939 149.138 71.9757C149.02 71.8576 148.954 71.6974 148.954 71.5303Z" fill="white"/>
    <path d="M179.572 72.1602C179.531 72.1643 179.491 72.1643 179.45 72.1602L179.333 72.1266L179.223 72.0678C179.189 72.0435 179.157 72.0168 179.127 71.988C179.009 71.87 178.942 71.7098 178.942 71.5428C178.943 71.376 179.009 71.2162 179.127 71.0976C179.156 71.0689 179.188 71.0435 179.223 71.022C179.256 70.9968 179.293 70.9769 179.333 70.9632C179.37 70.9462 179.41 70.9335 179.45 70.9254C179.532 70.9087 179.616 70.9087 179.698 70.9254L179.816 70.9632C179.853 70.977 179.889 70.9969 179.921 71.022C179.956 71.0423 179.989 71.0678 180.017 71.0976C180.135 71.2162 180.201 71.376 180.202 71.5428C180.202 71.7098 180.135 71.87 180.017 71.988C179.988 72.0179 179.955 72.0446 179.921 72.0678C179.887 72.0899 179.852 72.1095 179.816 72.1266L179.698 72.1602C179.656 72.1643 179.614 72.1643 179.572 72.1602Z" fill="white"/>
    <path d="M178.942 148.886C178.942 148.719 179.008 148.559 179.126 148.44C179.245 148.322 179.405 148.256 179.572 148.256C179.739 148.256 179.899 148.322 180.017 148.44C180.136 148.559 180.202 148.719 180.202 148.886C180.202 149.053 180.136 149.213 180.017 149.331C179.899 149.449 179.739 149.516 179.572 149.516C179.405 149.516 179.245 149.449 179.126 149.331C179.008 149.213 178.942 149.053 178.942 148.886ZM178.942 133.417C178.942 133.25 179.008 133.09 179.126 132.972C179.245 132.854 179.405 132.787 179.572 132.787C179.739 132.787 179.899 132.854 180.017 132.972C180.136 133.09 180.202 133.25 180.202 133.417C180.202 133.584 180.136 133.745 180.017 133.863C179.899 133.981 179.739 134.047 179.572 134.047C179.405 134.047 179.245 133.981 179.126 133.863C179.008 133.745 178.942 133.584 178.942 133.417ZM178.942 117.944C178.942 117.777 179.008 117.617 179.126 117.499C179.245 117.381 179.405 117.314 179.572 117.314C179.739 117.314 179.899 117.381 180.017 117.499C180.136 117.617 180.202 117.777 180.202 117.944C180.202 118.112 180.136 118.272 180.017 118.39C179.899 118.508 179.739 118.574 179.572 118.574C179.489 118.574 179.407 118.558 179.331 118.526C179.254 118.495 179.185 118.448 179.126 118.39C179.068 118.331 179.022 118.262 178.99 118.186C178.958 118.109 178.942 118.027 178.942 117.944ZM178.942 102.472C178.942 102.305 179.008 102.144 179.126 102.026C179.245 101.908 179.405 101.842 179.572 101.842C179.739 101.842 179.899 101.908 180.017 102.026C180.136 102.144 180.202 102.305 180.202 102.472C180.202 102.639 180.136 102.799 180.017 102.917C179.899 103.035 179.739 103.102 179.572 103.102C179.406 103.102 179.247 103.036 179.129 102.92C179.011 102.804 178.944 102.646 178.942 102.48V102.472ZM178.942 87.003C178.942 86.836 179.008 86.6757 179.126 86.5576C179.245 86.4394 179.405 86.373 179.572 86.373C179.739 86.373 179.899 86.4394 180.017 86.5576C180.136 86.6757 180.202 86.836 180.202 87.003C180.202 87.1701 180.136 87.3304 180.017 87.4485C179.899 87.5667 179.739 87.633 179.572 87.633C179.489 87.633 179.407 87.6168 179.331 87.5851C179.254 87.5534 179.185 87.507 179.126 87.4485C179.068 87.39 179.022 87.3206 178.99 87.2441C178.958 87.1677 178.942 87.0858 178.942 87.003Z" fill="white"/>
    <path d="M179.572 164.989C179.447 164.988 179.326 164.951 179.222 164.882C179.119 164.813 179.038 164.715 178.99 164.6C178.943 164.485 178.93 164.358 178.954 164.236C178.979 164.114 179.039 164.002 179.127 163.913C179.157 163.885 179.189 163.858 179.223 163.834L179.332 163.775L179.45 163.741C179.532 163.724 179.616 163.724 179.698 163.741L179.815 163.775C179.852 163.792 179.887 163.812 179.92 163.834C179.955 163.857 179.988 163.884 180.017 163.913C180.135 164.031 180.202 164.192 180.202 164.359C180.203 164.441 180.187 164.524 180.155 164.6C180.123 164.677 180.076 164.746 180.017 164.804C179.899 164.922 179.739 164.988 179.572 164.989Z" fill="white"/>
    <path d="M40.0982 164.728H22.79V164.833H40.0982V164.728Z" fill="#E0E0E0"/>
    <path d="M75.3781 163.888H58.0195V163.993H75.3781V163.888Z" fill="#E0E0E0"/>
    <path d="M97.9656 163.888H93.7656V163.993H97.9656V163.888Z" fill="#E0E0E0"/>
    <path d="M55.9865 167.475H36.5615V167.58H55.9865V167.475Z" fill="#E0E0E0"/>
    <path d="M123.174 164.674H114.102V164.779H123.174V164.674Z" fill="#E0E0E0"/>
    <path d="M138.643 164.674H126.912V164.779H138.643V164.674Z" fill="#E0E0E0"/>
    <path d="M195.216 166.45H168.992V166.555H195.216V166.45Z" fill="#E0E0E0"/>
    <path d="M98.2303 36.813H78.8809L79.9393 24.7548H99.2845L98.2303 36.813Z" fill="#EBEBEB"/>
    <path d="M98.6209 23.1168L98.0917 29.4126L97.5625 36.981H78.9565L80.0149 23.1168H98.6209Z" fill="#FAFAFA"/>
    <path d="M96.8445 24.7549L97.8987 36.8131H78.5535L77.4951 24.7549H79.1415L79.7127 23.8477H84.9249L85.6725 24.7549H96.8445Z" fill="#E0E0E0"/>
    <path d="M128.218 39.5052H107.63V60.0937H128.218V39.5052Z" fill="#EBEBEB"/>
    <path d="M128.743 39.5052H128.218V60.0937H128.743V39.5052Z" fill="#E0E0E0"/>
    <path d="M126.312 41.412H109.528V58.1952H126.312V41.412Z" fill="#F5F5F5"/>
    <path d="M109.688 41.412H109.533V58.1952H109.688V41.412Z" fill="#E0E0E0"/>
    <path d="M118.079 52.227C119.886 52.227 121.351 50.3616 121.351 48.0606C121.351 45.7595 119.886 43.8942 118.079 43.8942C116.272 43.8942 114.808 45.7595 114.808 48.0606C114.808 50.3616 116.272 52.227 118.079 52.227Z" fill="#E0E0E0"/>
    <path d="M116.37 54.3354H119.818V50.8872H116.37V54.3354Z" fill="#E0E0E0"/>
    <path d="M124.296 58.1952H111.662V57.0192C111.662 55.9454 112.089 54.9156 112.848 54.1563C113.607 53.397 114.637 52.9704 115.711 52.9704H120.264C121.338 52.9704 122.367 53.397 123.127 54.1563C123.886 54.9156 124.313 55.9454 124.312 57.0192V58.1952H124.296Z" fill="#E0E0E0"/>
    <path d="M111.347 51.1896C111.347 51.8742 112.607 52.4496 112.607 52.4496C112.607 52.4496 113.867 51.891 113.867 51.1896C113.867 50.862 113.413 50.6772 113.115 50.7696C113.001 50.8095 112.895 50.8715 112.805 50.9523C112.715 51.033 112.642 51.1308 112.59 51.24C112.429 51.0234 112.217 50.8502 111.973 50.736C111.901 50.7109 111.824 50.7036 111.749 50.7145C111.674 50.7255 111.602 50.7546 111.541 50.7991C111.48 50.8437 111.43 50.9025 111.396 50.9705C111.362 51.0385 111.345 51.1137 111.347 51.1896Z" fill="#E0E0E0"/>
    <path d="M122.527 48.1278C122.527 49.0308 124.161 49.7616 124.161 49.7616C124.161 49.7616 125.795 49.0308 125.795 48.1278C125.795 47.7078 125.19 47.46 124.808 47.5692C124.519 47.6844 124.287 47.9074 124.161 48.1908C123.948 47.9078 123.67 47.6802 123.35 47.5272C123.256 47.4937 123.154 47.4838 123.055 47.4983C122.956 47.5128 122.861 47.5513 122.78 47.6105C122.699 47.6696 122.634 47.7477 122.59 47.8378C122.546 47.928 122.524 48.0275 122.527 48.1278Z" fill="#E0E0E0"/>
    <path d="M86.5964 150.914C86.7896 152.128 87.6674 153.174 87.7346 154.4C87.7892 155.362 87.3398 156.265 87.1172 157.202C86.8946 158.138 87.0038 159.302 87.8228 159.797C88.1208 159.949 88.4537 160.018 88.7874 159.998C89.121 159.978 89.4433 159.87 89.7212 159.684C90.2697 159.304 90.7226 158.803 91.0442 158.218C92.3325 156.136 93.0361 153.745 93.0812 151.297C93.0812 150.268 92.9762 149.176 92.3714 148.357C90.4982 145.74 86.1176 147.89 86.5964 150.914Z" fill="#F5F5F5"/>
    <path d="M85.0383 147.701C85.219 147.899 85.4544 148.038 85.7145 148.1C85.8718 148.152 86.0396 148.162 86.202 148.13C86.3644 148.099 86.516 148.026 86.6427 147.92C86.7392 147.796 86.8079 147.653 86.8441 147.5C86.8803 147.347 86.8833 147.188 86.8527 147.034C86.827 146.647 86.6947 146.275 86.4705 145.958C86.3579 145.803 86.2084 145.677 86.0355 145.593C85.8626 145.508 85.6715 145.468 85.4793 145.475C85.2874 145.491 85.1068 145.572 84.9677 145.705C84.8285 145.839 84.7393 146.015 84.7149 146.206C84.6682 146.726 84.781 147.248 85.0383 147.701Z" fill="#F5F5F5"/>
    <path d="M88.5282 145.177C88.4423 145.044 88.3193 144.94 88.1745 144.876C88.0296 144.813 87.8692 144.793 87.7134 144.82C87.5592 144.855 87.419 144.935 87.3111 145.05C87.2032 145.166 87.1326 145.311 87.1086 145.467C87.1018 145.569 87.1018 145.671 87.1086 145.774C87.1101 145.939 87.1284 146.103 87.1632 146.265C87.1983 146.421 87.2719 146.565 87.3774 146.685C87.5215 146.825 87.7044 146.919 87.9024 146.954C88.0249 146.983 88.1526 146.982 88.2747 146.952C88.3968 146.921 88.5097 146.861 88.6038 146.777C88.6874 146.676 88.7498 146.558 88.7873 146.432C88.8248 146.306 88.8366 146.173 88.8222 146.042C88.8126 145.731 88.7102 145.43 88.5282 145.177Z" fill="#F5F5F5"/>
    <path d="M90.4729 145.072C90.4041 144.945 90.292 144.848 90.1571 144.797C90.0221 144.746 89.8733 144.745 89.7379 144.795C89.6058 144.85 89.4893 144.937 89.3984 145.047C89.3076 145.158 89.2454 145.289 89.2171 145.429C89.2171 145.522 89.1919 145.614 89.1877 145.706C89.1852 145.859 89.2021 146.012 89.2381 146.16C89.2683 146.306 89.3449 146.439 89.4565 146.538C89.5756 146.638 89.722 146.699 89.8765 146.714C89.9772 146.727 90.0793 146.717 90.1758 146.686C90.2723 146.655 90.3608 146.603 90.4351 146.534C90.5984 146.348 90.688 146.109 90.6871 145.862C90.7056 145.582 90.6302 145.304 90.4729 145.072Z" fill="#F5F5F5"/>
    <path d="M92.2076 145.475C92.0018 145.169 91.7876 145.148 91.5524 145.278C91.3434 145.431 91.1947 145.652 91.1324 145.904C91.1088 145.985 91.0919 146.068 91.082 146.152C91.0593 146.291 91.0593 146.433 91.082 146.572C91.1094 146.706 91.1876 146.825 91.3004 146.903C91.4044 146.968 91.5268 146.998 91.649 146.987C91.8079 146.973 91.9567 146.903 92.069 146.79C92.2235 146.624 92.3219 146.414 92.3504 146.189C92.393 145.942 92.3421 145.687 92.2076 145.475Z" fill="#F5F5F5"/>
    <path d="M92.5475 147.176C92.5245 147.276 92.5245 147.379 92.5475 147.479C92.556 147.53 92.5769 147.578 92.6084 147.619C92.6399 147.66 92.681 147.693 92.7281 147.714C92.8139 147.734 92.9036 147.727 92.9858 147.696C93.0681 147.664 93.1392 147.609 93.1901 147.538C93.3143 147.411 93.4052 147.255 93.4547 147.084C93.4792 146.999 93.4863 146.909 93.4754 146.821C93.4646 146.733 93.4361 146.648 93.3917 146.572C93.0179 145.963 92.5979 146.874 92.5475 147.176Z" fill="#F5F5F5"/>
    <path d="M92.8881 178.966C93.1695 177.975 93.3333 176.887 92.9595 175.925C91.8045 172.931 87.0333 173.884 86.7183 176.933L92.8881 178.966Z" fill="#F5F5F5"/>
    <path d="M86.0544 173.431C86.1791 173.668 86.3722 173.863 86.6088 173.989C86.7473 174.079 86.9064 174.132 87.071 174.143C87.2356 174.154 87.4003 174.123 87.5496 174.052C87.6723 173.956 87.7732 173.834 87.8455 173.696C87.9179 173.558 87.9602 173.406 87.9696 173.25C88.0437 172.871 88.0117 172.478 87.8772 172.116C87.8075 171.935 87.6945 171.774 87.548 171.648C87.4015 171.521 87.2261 171.432 87.0372 171.389C86.8483 171.356 86.6536 171.388 86.4855 171.48C86.3174 171.573 86.186 171.72 86.1132 171.898C85.9393 172.391 85.9188 172.925 86.0544 173.431Z" fill="#F5F5F5"/>
    <path d="M90.0779 171.881C90.028 171.731 89.9356 171.598 89.8118 171.5C89.688 171.401 89.5382 171.341 89.3807 171.326C89.2228 171.321 89.0669 171.363 88.933 171.447C88.7991 171.531 88.6932 171.652 88.6289 171.797C88.5919 171.893 88.561 171.991 88.5365 172.091C88.494 172.25 88.4687 172.413 88.4609 172.578C88.4503 172.742 88.4837 172.906 88.5575 173.053C88.6571 173.22 88.8029 173.356 88.9775 173.443C89.0881 173.502 89.2114 173.533 89.3366 173.533C89.4618 173.533 89.5851 173.502 89.6957 173.443C89.8058 173.368 89.8998 173.272 89.9719 173.16C90.0441 173.049 90.093 172.923 90.1157 172.792C90.1911 172.491 90.1779 172.175 90.0779 171.881Z" fill="#F5F5F5"/>
    <path d="M91.9681 172.28C91.9338 172.142 91.8518 172.02 91.7366 171.936C91.6213 171.852 91.4802 171.812 91.3381 171.822C91.196 171.842 91.061 171.897 90.9446 171.981C90.8283 172.065 90.7342 172.177 90.6703 172.305C90.6324 172.389 90.5987 172.474 90.5695 172.561C90.5222 172.704 90.494 172.852 90.4855 173.002C90.4772 173.15 90.5153 173.297 90.5947 173.422C90.6877 173.554 90.8201 173.652 90.9727 173.704C91.0671 173.742 91.1688 173.759 91.2705 173.753C91.3721 173.747 91.4713 173.719 91.5607 173.67C91.7669 173.535 91.9163 173.329 91.9807 173.09C92.0659 172.826 92.0615 172.541 91.9681 172.28Z" fill="#F5F5F5"/>
    <path d="M93.5388 173.116C93.4212 172.763 93.1986 172.696 92.9592 172.754C92.7145 172.845 92.5094 173.019 92.3796 173.246C92.3376 173.319 92.2998 173.395 92.2662 173.473C92.2148 173.598 92.1836 173.732 92.1738 173.867C92.1657 174.003 92.2093 174.136 92.2956 174.241C92.3788 174.332 92.4895 174.392 92.6106 174.413C92.7678 174.444 92.9308 174.416 93.0684 174.334C93.2578 174.212 93.4046 174.034 93.4884 173.825C93.5909 173.603 93.6088 173.35 93.5388 173.116Z" fill="#F5F5F5"/>
    <path d="M93.4379 174.846C93.3865 174.935 93.3564 175.034 93.3497 175.136C93.3455 175.187 93.3537 175.239 93.3734 175.286C93.3931 175.334 93.4239 175.376 93.4631 175.409C93.5408 175.45 93.629 175.467 93.7164 175.458C93.8039 175.449 93.8867 175.414 93.9545 175.358C94.1065 175.266 94.2346 175.14 94.3283 174.989C94.3737 174.912 94.4034 174.828 94.4156 174.74C94.4279 174.652 94.4225 174.562 94.3997 174.476C94.1813 173.792 93.5723 174.573 93.4379 174.846Z" fill="#F5F5F5"/>
    <path d="M76.3313 161.137C76.4867 162.359 75.9113 163.607 76.2053 164.804C76.4195 165.74 77.1041 166.484 77.5745 167.324C78.0449 168.164 78.2675 169.306 77.6123 170.012C77.369 170.241 77.069 170.4 76.7433 170.474C76.4177 170.548 76.0782 170.533 75.7601 170.432C75.128 170.215 74.5535 169.858 74.0801 169.386C72.2661 167.742 70.9285 165.64 70.2077 163.3C69.9053 162.313 69.7205 161.234 70.0733 160.264C71.1779 157.244 75.9575 158.101 76.3313 161.137Z" fill="#F5F5F5"/>
    <path d="M76.9234 157.626C76.8054 157.865 76.618 158.062 76.3858 158.193C76.2495 158.287 76.0913 158.344 75.9265 158.358C75.7617 158.373 75.5958 158.345 75.445 158.277C75.3171 158.185 75.2107 158.067 75.1331 157.93C75.0555 157.792 75.0086 157.64 74.9956 157.483C74.9146 157.105 74.9378 156.711 75.0628 156.345C75.1308 156.162 75.2431 155.999 75.3897 155.87C75.5363 155.741 75.7126 155.65 75.9028 155.606C76.0911 155.568 76.2868 155.595 76.4572 155.684C76.6277 155.773 76.7626 155.917 76.8394 156.093C76.957 156.484 77.104 157.244 76.9234 157.626Z" fill="#F5F5F5"/>
    <path d="M72.8873 156.16C72.9336 156.009 73.023 155.874 73.1445 155.773C73.2661 155.671 73.4146 155.607 73.5719 155.589C73.7298 155.581 73.8865 155.62 74.022 155.702C74.1574 155.783 74.2654 155.904 74.3321 156.047C74.3727 156.141 74.4064 156.238 74.4329 156.337C74.4782 156.494 74.5064 156.656 74.5169 156.82C74.5321 156.984 74.5016 157.15 74.4287 157.298C74.3354 157.478 74.1887 157.625 74.0087 157.718C73.9006 157.782 73.7785 157.818 73.6533 157.823C73.528 157.828 73.4035 157.802 73.2905 157.748C73.1808 157.674 73.0872 157.578 73.015 157.467C72.9429 157.356 72.8937 157.231 72.8705 157.101C72.7793 156.793 72.7852 156.465 72.8873 156.16Z" fill="#F5F5F5"/>
    <path d="M70.9891 156.597C71.02 156.456 71.1007 156.331 71.2164 156.244C71.3321 156.158 71.4751 156.116 71.6191 156.127C71.7611 156.144 71.8967 156.195 72.0145 156.277C72.1322 156.358 72.2286 156.466 72.2953 156.593C72.3357 156.676 72.3707 156.761 72.4003 156.849C72.4517 156.991 72.4842 157.139 72.4969 157.29C72.5054 157.437 72.4688 157.584 72.3919 157.71C72.3024 157.843 72.173 157.945 72.0223 158C71.9289 158.04 71.8276 158.059 71.7259 158.056C71.6242 158.052 71.5246 158.026 71.4343 157.979C71.2289 157.846 71.0794 157.643 71.0143 157.408C70.9168 157.148 70.9079 156.863 70.9891 156.597Z" fill="#F5F5F5"/>
    <path d="M69.4352 157.466C69.5486 157.114 69.767 157.046 70.0106 157.093C70.257 157.18 70.4651 157.351 70.5986 157.576C70.6426 157.647 70.6818 157.722 70.7162 157.798C70.7727 157.921 70.8068 158.054 70.817 158.189C70.8302 158.325 70.7895 158.461 70.7036 158.567C70.6223 158.658 70.513 158.72 70.3928 158.743C70.2357 158.778 70.0714 158.754 69.9308 158.676C69.7358 158.559 69.5818 158.384 69.4898 158.176C69.3862 157.954 69.3668 157.702 69.4352 157.466Z" fill="#F5F5F5"/>
    <path d="M69.5779 159.18C69.6299 159.269 69.6628 159.368 69.6745 159.47C69.6792 159.521 69.6717 159.573 69.6528 159.621C69.6338 159.67 69.6039 159.713 69.5653 159.747C69.4874 159.789 69.3992 159.807 69.3113 159.799C69.2234 159.792 69.1395 159.759 69.0697 159.705C68.9159 159.618 68.7861 159.494 68.6917 159.344C68.644 159.268 68.6123 159.184 68.5986 159.096C68.5848 159.008 68.5894 158.918 68.6119 158.831C68.8093 158.155 69.4351 158.924 69.5779 159.18Z" fill="#F5F5F5"/>
    <path d="M66.0249 60.3078C65.0583 60.4437 64.0731 60.2899 63.194 59.8658C62.3148 59.4418 61.5811 58.7666 61.0857 57.9256C60.5903 57.0846 60.3554 56.1156 60.4108 55.1411C60.4661 54.1665 60.8092 53.2303 61.3966 52.4508C61.984 51.6713 62.7894 51.0835 63.711 50.7617C64.6325 50.4399 65.6287 50.3987 66.5737 50.6431C67.5187 50.8875 68.3699 51.4067 69.0198 52.1349C69.6697 52.8632 70.0891 53.7678 70.2249 54.7344C70.4046 56.03 70.0635 57.3441 69.2763 58.3888C68.4891 59.4334 67.3199 60.1235 66.0249 60.3078ZM65.0253 53.1258C64.5717 53.1883 64.1469 53.3839 63.8046 53.6879C63.4623 53.9919 63.2178 54.3906 63.1022 54.8336C62.9865 55.2765 63.0048 55.7438 63.1548 56.1764C63.3047 56.609 63.5796 56.9873 63.9447 57.2636C64.3097 57.5399 64.7485 57.7017 65.2056 57.7285C65.6626 57.7554 66.1173 57.6461 66.5122 57.4144C66.9071 57.1828 67.2244 56.8392 67.424 56.4272C67.6236 56.0152 67.6965 55.5532 67.6335 55.0998C67.548 54.4928 67.2256 53.9443 66.7368 53.5744C66.248 53.2045 65.6327 53.0432 65.0253 53.1258Z" fill="#E0E0E0"/>
    <path d="M64.1745 40.6993L62.3193 40.9584L63.9859 52.8924L65.8411 52.6333L64.1745 40.6993Z" fill="#E0E0E0"/>
    <path d="M65.7439 39.0384L62.2637 39.5305L62.5259 41.385L66.0062 40.8928L65.7439 39.0384Z" fill="#E0E0E0"/>
    <path d="M66.0301 41.5612L62.7563 42.0178L63.0151 43.8731L66.2888 43.4165L66.0301 41.5612Z" fill="#E0E0E0"/>
    <path d="M66.5072 44.9245L63.6494 45.3231L63.9082 47.1784L66.7659 46.7798L66.5072 44.9245Z" fill="#E0E0E0"/>
    <path d="M105.198 185.888C150.173 185.888 186.632 183.759 186.632 181.133C186.632 178.508 150.173 176.379 105.198 176.379C60.2238 176.379 23.7646 178.508 23.7646 181.133C23.7646 183.759 60.2238 185.888 105.198 185.888Z" fill="#F5F5F5"/>
    <path d="M62.1359 102.176C66.0081 98.1311 65.5692 91.427 61.1557 87.202C56.7422 82.977 50.0253 82.8309 46.1532 86.8758C42.2811 90.9207 42.7199 97.6248 47.1335 101.85C51.547 106.075 58.2638 106.221 62.1359 102.176Z" fill="#512210"/>
    <g opacity="0.8">
        <path d="M62.1359 102.176C66.0081 98.1311 65.5692 91.427 61.1557 87.202C56.7422 82.977 50.0253 82.8309 46.1532 86.8758C42.2811 90.9207 42.7199 97.6248 47.1335 101.85C51.547 106.075 58.2638 106.221 62.1359 102.176Z" fill="white"/>
    </g>
    <path d="M49.2081 87.8808C49.1199 87.8808 49.034 87.8531 48.9625 87.8015C48.891 87.75 48.8375 87.6773 48.8096 87.5936C48.7818 87.51 48.7809 87.4197 48.8072 87.3356C48.8335 87.2514 48.8856 87.1777 48.9561 87.1248C50.3703 86.1098 52.075 85.5794 53.8155 85.6128C53.9269 85.6128 54.0337 85.6571 54.1125 85.7358C54.1912 85.8146 54.2355 85.9214 54.2355 86.0328C54.2355 86.1442 54.1912 86.251 54.1125 86.3298C54.0337 86.4086 53.9269 86.4528 53.8155 86.4528C52.2566 86.4185 50.7285 86.89 49.4601 87.7968C49.3874 87.8513 49.299 87.8808 49.2081 87.8808Z" fill="#512210"/>
    <path d="M51.1949 102.329C51.126 102.329 51.0582 102.311 50.9975 102.278C49.7104 101.59 48.5935 100.623 47.7287 99.4469C46.8639 98.271 46.2731 96.9166 45.9995 95.4829C45.7327 94.2427 45.745 92.9586 46.0355 91.7237C46.3261 90.4888 46.8876 89.334 47.6795 88.3429C47.7508 88.2571 47.8533 88.2032 47.9643 88.1929C48.0754 88.1827 48.186 88.217 48.2717 88.2883C48.3575 88.3596 48.4114 88.462 48.4217 88.5731C48.4319 88.6841 48.3976 88.7947 48.3263 88.8805C47.611 89.7776 47.1045 90.8228 46.8437 91.9402C46.5829 93.0575 46.5743 94.219 46.8185 95.3401C47.0701 96.6508 47.6109 97.8888 48.4014 98.9641C49.1919 100.039 50.2122 100.925 51.3881 101.556C51.4702 101.6 51.5353 101.671 51.5729 101.756C51.6106 101.842 51.6187 101.937 51.5961 102.028C51.5735 102.118 51.5213 102.198 51.4479 102.256C51.3745 102.314 51.284 102.345 51.1907 102.346L51.1949 102.329Z" fill="#512210"/>
    <path d="M55.3991 103.425C54.459 103.421 53.5253 103.271 52.6313 102.98C52.5787 102.963 52.5299 102.935 52.4878 102.9C52.4456 102.864 52.411 102.82 52.3859 102.77C52.3607 102.721 52.3455 102.667 52.3412 102.612C52.3368 102.557 52.3433 102.501 52.3604 102.449C52.3775 102.396 52.4049 102.347 52.4408 102.305C52.4768 102.263 52.5207 102.228 52.57 102.203C52.6193 102.178 52.6731 102.163 52.7283 102.158C52.7835 102.154 52.8391 102.161 52.8917 102.178C55.4747 103.018 58.0535 102.547 59.9645 100.918C60.934 100.062 61.6667 98.9709 62.0919 97.7498C62.5171 96.5286 62.6205 95.2184 62.3921 93.9457C62.3743 93.8343 62.4015 93.7204 62.4676 93.629C62.5338 93.5376 62.6336 93.4763 62.7449 93.4585C62.8563 93.4406 62.9702 93.4678 63.0616 93.534C63.153 93.6001 63.2143 93.6999 63.2321 93.8113C63.4868 95.2256 63.3711 96.6817 62.8964 98.0381C62.4217 99.3945 61.6041 100.605 60.5231 101.552C59.0989 102.777 57.2778 103.443 55.3991 103.425Z" fill="#512210"/>
    <path d="M62.4632 92.8704C62.3741 92.87 62.2874 92.8414 62.2157 92.7885C62.144 92.7357 62.0909 92.6614 62.0642 92.5764C61.6779 91.3837 61.0453 90.2855 60.2075 89.3528C59.3697 88.4202 58.3452 87.674 57.2006 87.1626C57.0981 87.118 57.0175 87.0346 56.9766 86.9306C56.9356 86.8267 56.9377 86.7107 56.9822 86.6082C57.0268 86.5057 57.1102 86.4251 57.2142 86.3842C57.3181 86.3432 57.4341 86.3452 57.5366 86.3898C58.7901 86.9502 59.9119 87.7677 60.8294 88.7893C61.7468 89.8109 62.4394 91.0138 62.8622 92.3202C62.8967 92.426 62.8877 92.5412 62.8373 92.6404C62.7869 92.7396 62.6992 92.8148 62.5934 92.8494C62.5511 92.8622 62.5074 92.8692 62.4632 92.8704Z" fill="#512210"/>
    <path d="M55.8443 86.688C55.8123 86.6923 55.7798 86.6923 55.7477 86.688C55.1156 86.5407 54.4689 86.4661 53.8199 86.4654C53.7085 86.4654 53.6017 86.4211 53.5229 86.3424C53.4442 86.2636 53.3999 86.1568 53.3999 86.0454C53.3999 85.934 53.4442 85.8271 53.5229 85.7484C53.6017 85.6696 53.7085 85.6254 53.8199 85.6254C54.5271 85.6275 55.2317 85.7107 55.9199 85.8732C56.0313 85.886 56.133 85.9425 56.2027 86.0303C56.2725 86.1182 56.3044 86.2301 56.2916 86.3415C56.2788 86.4529 56.2223 86.5546 56.1344 86.6243C56.0466 86.694 55.9347 86.726 55.8233 86.7132L55.8443 86.688Z" fill="#512210"/>
    <path d="M48.4357 96.7219C48.3499 96.7222 48.266 96.6961 48.1954 96.6473C48.1248 96.5985 48.0709 96.5293 48.0409 96.4489C47.6472 95.4326 47.5087 94.3353 47.6376 93.253C47.7665 92.1708 48.1587 91.1367 48.7801 90.2413C49.3674 89.393 50.154 88.702 51.0709 88.2289C51.9878 87.7558 53.0068 87.5152 54.0385 87.5281C54.1499 87.5281 54.2567 87.5723 54.3355 87.6511C54.4142 87.7299 54.4585 87.8367 54.4585 87.9481C54.4585 88.0595 54.4142 88.1663 54.3355 88.2451C54.2567 88.3238 54.1499 88.3681 54.0385 88.3681C53.1421 88.3575 52.2568 88.5663 51.4596 88.9763C50.6624 89.3862 49.9775 89.9849 49.4647 90.7201C48.9198 91.5086 48.577 92.4189 48.4664 93.371C48.3559 94.323 48.4809 95.2877 48.8305 96.1801C48.8685 96.2843 48.8638 96.3992 48.8174 96.5C48.771 96.6007 48.6866 96.6789 48.5827 96.7177C48.5342 96.7271 48.4846 96.7286 48.4357 96.7219Z" fill="#512210"/>
    <path d="M55.0965 101.518C53.8376 101.476 52.6075 101.131 51.5107 100.511C50.4138 99.8921 49.4828 99.0171 48.7965 97.9609C48.7455 97.8681 48.7315 97.7594 48.7572 97.6567C48.7829 97.554 48.8464 97.4648 48.9351 97.4069C49.0237 97.349 49.131 97.3268 49.2353 97.3446C49.3397 97.3624 49.4335 97.419 49.4979 97.5031C50.1078 98.4427 50.935 99.2218 51.9094 99.7744C52.8839 100.327 53.977 100.637 55.0965 100.678C55.2079 100.678 55.3147 100.723 55.3935 100.801C55.4723 100.88 55.5165 100.987 55.5165 101.098C55.5165 101.21 55.4723 101.316 55.3935 101.395C55.3147 101.474 55.2079 101.518 55.0965 101.518Z" fill="#512210"/>
    <path d="M56.6673 101.338C56.5713 101.34 56.4773 101.31 56.4009 101.252C56.3245 101.194 56.2703 101.112 56.2473 101.018C56.2206 100.91 56.2379 100.796 56.2954 100.701C56.3529 100.606 56.4459 100.537 56.5539 100.51C59.9601 99.6703 60.8421 96.6841 60.5607 94.3909C60.1953 91.4005 57.8349 88.3723 54.0255 88.3681C53.9141 88.3681 53.8072 88.3238 53.7285 88.2451C53.6497 88.1663 53.6055 88.0595 53.6055 87.9481C53.6055 87.8367 53.6497 87.7299 53.7285 87.6511C53.8072 87.5723 53.9141 87.5281 54.0255 87.5281C58.3221 87.5281 60.9849 90.9301 61.3965 94.2901C61.8165 97.7551 59.9979 100.519 56.7555 101.325C56.7266 101.332 56.697 101.337 56.6673 101.338Z" fill="#512210"/>
    <path d="M52.3206 90.6864C52.241 90.6858 52.1632 90.6626 52.0963 90.6194C52.0294 90.5763 51.9761 90.515 51.9426 90.4428C51.8953 90.342 51.89 90.2265 51.9278 90.1217C51.9656 90.017 52.0434 89.9315 52.1442 89.8842C52.7881 89.5994 53.4856 89.4562 54.1896 89.4642C54.301 89.4642 54.4079 89.5084 54.4866 89.5872C54.5654 89.666 54.6096 89.7728 54.6096 89.8842C54.6096 89.9956 54.5654 90.1024 54.4866 90.1812C54.4079 90.2599 54.301 90.3042 54.1896 90.3042C53.61 90.3046 53.0371 90.4292 52.5096 90.6696C52.4487 90.6895 52.3841 90.6953 52.3206 90.6864Z" fill="#512210"/>
    <path d="M55.021 99.561C53.9573 99.544 52.9208 99.2224 52.0342 98.6343C51.1477 98.0462 50.4483 97.2164 50.0188 96.243C49.1494 94.3488 49.4056 92.3706 50.7034 90.9426C50.7787 90.861 50.8833 90.8125 50.9943 90.8078C51.1053 90.803 51.2137 90.8425 51.2956 90.9174C51.3773 90.9928 51.4258 91.0974 51.4305 91.2083C51.4352 91.3193 51.3958 91.4277 51.3208 91.5096C50.799 92.0999 50.4682 92.8345 50.3723 93.6165C50.2763 94.3985 50.4196 95.1913 50.7832 95.8902C51.1544 96.7386 51.7667 97.4592 52.5441 97.9625C53.3214 98.4658 54.2295 98.7296 55.1554 98.721C55.8559 98.716 56.54 98.5082 57.1251 98.1229C57.7101 97.7376 58.1711 97.1912 58.4524 96.5496C58.7688 95.7928 58.8641 94.9618 58.7273 94.153C58.5905 93.3442 58.2273 92.5908 57.6796 91.98C57.6438 91.9381 57.6165 91.8896 57.5995 91.8371C57.5824 91.7847 57.5758 91.7294 57.5801 91.6744C57.5844 91.6194 57.5995 91.5658 57.6245 91.5166C57.6495 91.4674 57.6839 91.4237 57.7258 91.3878C57.7678 91.352 57.8163 91.3248 57.8688 91.3077C57.9212 91.2906 57.9765 91.284 58.0315 91.2883C58.0865 91.2926 58.1401 91.3077 58.1893 91.3327C58.2384 91.3577 58.2822 91.3921 58.318 91.434C58.97 92.1653 59.401 93.0666 59.5608 94.0332C59.7207 94.9997 59.6028 95.9918 59.221 96.894C58.8764 97.6812 58.3118 98.352 57.595 98.8258C56.8782 99.2997 56.0398 99.5565 55.1806 99.5652L55.021 99.561Z" fill="#512210"/>
    <path d="M56.7893 91.056C56.7101 91.0565 56.6325 91.0331 56.5667 90.9888C55.8575 90.5324 55.0329 90.2876 54.1895 90.2832C54.0781 90.2832 53.9713 90.239 53.8925 90.1602C53.8138 90.0815 53.7695 89.9746 53.7695 89.8632C53.7695 89.7518 53.8138 89.645 53.8925 89.5663C53.9713 89.4875 54.0781 89.4432 54.1895 89.4432C55.1927 89.447 56.1737 89.7385 57.0161 90.2832C57.0922 90.3324 57.1504 90.4048 57.1819 90.4897C57.2135 90.5746 57.2168 90.6674 57.1912 90.7543C57.1657 90.8412 57.1128 90.9175 57.0404 90.9719C56.968 91.0263 56.8799 91.0558 56.7893 91.056Z" fill="#512210"/>
    <path d="M54.7984 97.6668C54.3076 97.6635 53.8236 97.5527 53.3802 97.3423C52.9369 97.1319 52.545 96.8269 52.2322 96.4488C51.8285 95.9868 51.5663 95.4184 51.477 94.8114C51.3876 94.2044 51.4748 93.5846 51.7282 93.0258C51.9544 92.5186 52.3245 92.0891 52.7926 91.7904C53.2608 91.4917 53.8063 91.3371 54.3616 91.3458C54.473 91.3458 54.5798 91.3901 54.6586 91.4688C54.7373 91.5476 54.7816 91.6544 54.7816 91.7658C54.7816 91.8772 54.7373 91.984 54.6586 92.0628C54.5798 92.1416 54.473 92.1858 54.3616 92.1858C53.9689 92.1786 53.5826 92.2865 53.2505 92.4962C52.9184 92.7059 52.6549 93.0083 52.4926 93.366C52.3079 93.7785 52.2458 94.2353 52.3135 94.6821C52.3813 95.1289 52.5761 95.5468 52.8748 95.886C53.1721 96.2504 53.5668 96.5227 54.013 96.6715C54.4591 96.8202 54.9383 96.8391 55.3948 96.726C55.7662 96.6424 56.1057 96.4539 56.373 96.1829C56.6403 95.9118 56.8241 95.5697 56.9026 95.1972C56.9267 95.0887 56.9928 94.9942 57.0865 94.9343C57.1802 94.8745 57.2938 94.8542 57.4024 94.878C57.4565 94.8895 57.5078 94.9115 57.5534 94.9429C57.5989 94.9742 57.6379 95.0143 57.6679 95.0607C57.698 95.1072 57.7186 95.1591 57.7285 95.2135C57.7384 95.2679 57.7375 95.3237 57.7258 95.3778C57.6146 95.9034 57.3554 96.3863 56.9789 96.7695C56.6024 97.1527 56.1241 97.4203 55.6006 97.5408C55.3392 97.6146 55.0698 97.6569 54.7984 97.6668Z" fill="#512210"/>
    <path d="M57.2429 94.3404C57.1503 94.3446 57.0588 94.3181 56.9828 94.2649C56.9069 94.2117 56.8506 94.1349 56.8229 94.0464C56.6553 93.5202 56.3277 93.0593 55.8858 92.7281C55.4439 92.3968 54.9096 92.2117 54.3575 92.1984C54.2461 92.1984 54.1393 92.1541 54.0605 92.0754C53.9817 91.9966 53.9375 91.8898 53.9375 91.7784C53.9375 91.667 53.9817 91.5602 54.0605 91.4814C54.1393 91.4026 54.2461 91.3584 54.3575 91.3584C55.0877 91.3747 55.7948 91.618 56.3804 92.0545C56.9659 92.4911 57.401 93.0992 57.6251 93.7944C57.6421 93.8471 57.6485 93.9026 57.6439 93.9577C57.6394 94.0129 57.624 94.0666 57.5986 94.1157C57.5732 94.1649 57.5384 94.2086 57.4961 94.2443C57.4538 94.2799 57.4049 94.3069 57.3521 94.3236C57.3166 94.334 57.2799 94.3396 57.2429 94.3404Z" fill="#512210"/>
    <path d="M54.9119 95.9197C54.8006 95.9197 54.6937 95.8754 54.615 95.7967C54.5362 95.7179 54.4919 95.6111 54.4919 95.4997C54.4919 95.3883 54.5362 95.2815 54.615 95.2027C54.6937 95.1239 54.8006 95.0797 54.9119 95.0797C54.9693 95.0798 55.026 95.0681 55.0787 95.0455C55.1314 95.0228 55.1789 94.9896 55.2182 94.9479C55.2576 94.9062 55.2879 94.8569 55.3075 94.803C55.3271 94.7491 55.3354 94.6917 55.3319 94.6345C55.3342 94.5527 55.3201 94.4713 55.2906 94.395C55.2611 94.3187 55.2168 94.249 55.1601 94.19C55.1034 94.131 55.0356 94.0838 54.9606 94.0513C54.8855 94.0187 54.8047 94.0014 54.7229 94.0003C54.6613 94.0019 54.6007 94.0157 54.5444 94.041C54.4882 94.0662 54.4375 94.1023 54.3953 94.1473C54.3523 94.1981 54.3198 94.2569 54.2996 94.3203C54.2794 94.3838 54.272 94.4506 54.2777 94.5169C54.2811 94.572 54.2735 94.6273 54.2554 94.6795C54.2374 94.7317 54.2092 94.7799 54.1725 94.8212C54.1359 94.8626 54.0914 94.8963 54.0418 94.9205C53.9921 94.9446 53.9381 94.9588 53.8829 94.9621C53.8278 94.9654 53.7725 94.9578 53.7203 94.9398C53.6681 94.9217 53.6199 94.8935 53.5786 94.8569C53.5372 94.8202 53.5035 94.7758 53.4794 94.7261C53.4552 94.6764 53.4411 94.6224 53.4377 94.5673C53.4228 94.391 53.444 94.2136 53.5002 94.0459C53.5563 93.8781 53.6461 93.7236 53.7641 93.5919C53.8821 93.4601 54.0258 93.3539 54.1863 93.2796C54.3469 93.2054 54.5209 93.1648 54.6977 93.1603C54.89 93.1608 55.0803 93.1995 55.2575 93.2741C55.4347 93.3487 55.5953 93.4577 55.7301 93.5948C55.8649 93.7319 55.9711 93.8944 56.0426 94.0729C56.1141 94.2513 56.1495 94.4422 56.1467 94.6345C56.1501 94.8021 56.12 94.9686 56.0582 95.1244C55.9963 95.2802 55.9041 95.4221 55.7867 95.5418C55.6694 95.6615 55.5294 95.7565 55.3748 95.8214C55.2203 95.8863 55.0544 95.9197 54.8867 95.9197H54.9119Z" fill="#512210"/>
    <path d="M65.7184 94.521C66.2308 100.372 61.9006 105.113 56.0584 105.113H55.6048C61.174 104.828 65.2186 100.199 64.723 94.5336C64.4368 91.7603 63.1791 89.1775 61.1722 87.2422C59.1653 85.3068 56.5387 84.1435 53.7568 83.958C53.9038 83.958 54.055 83.958 54.2062 83.958C60.0652 83.9328 65.2228 88.6746 65.7184 94.521Z" fill="#512210"/>
    <g opacity="0.4">
        <path d="M65.7184 94.521C66.2308 100.372 61.9006 105.113 56.0584 105.113H55.6048C61.174 104.828 65.2186 100.199 64.723 94.5336C64.4368 91.7603 63.1791 89.1775 61.1722 87.2422C59.1653 85.3068 56.5387 84.1435 53.7568 83.958C53.9038 83.958 54.055 83.958 54.2062 83.958C60.0652 83.9328 65.2228 88.6746 65.7184 94.521Z" fill="white"/>
    </g>
    <path d="M74.2946 42.8987C74.3049 43.0241 74.3217 43.1489 74.345 43.2725C74.5034 44.0818 74.9188 44.8183 75.5294 45.3725C76.2212 46.0203 77.1311 46.3846 78.0788 46.3931H113.565C113.979 46.4015 114.391 46.3274 114.776 46.1752C115.161 46.0229 115.512 45.7956 115.809 45.5064C116.106 45.2172 116.342 44.8718 116.504 44.4905C116.666 44.1092 116.75 43.6994 116.752 43.2851C116.759 43.1606 116.759 43.0359 116.752 42.9113C116.653 41.971 116.215 41.099 115.519 40.4588C114.823 39.8186 113.918 39.4541 112.972 39.4337H77.4782C77.0332 39.4248 76.5914 39.5105 76.1822 39.6854C75.7729 39.8602 75.4055 40.1201 75.1044 40.4478C74.8033 40.7755 74.5754 41.1636 74.4358 41.5861C74.2961 42.0087 74.248 42.4561 74.2946 42.8987Z" fill="#512210"/>
    <path opacity="0.8" d="M74.2946 42.8987C74.3049 43.0241 74.3217 43.1489 74.345 43.2725C74.5034 44.0818 74.9188 44.8183 75.5294 45.3725C76.2212 46.0203 77.1311 46.3846 78.0788 46.3931H113.565C113.979 46.4015 114.391 46.3274 114.776 46.1752C115.161 46.0229 115.512 45.7956 115.809 45.5064C116.106 45.2172 116.342 44.8718 116.504 44.4905C116.666 44.1092 116.75 43.6994 116.752 43.2851C116.759 43.1606 116.759 43.0359 116.752 42.9113C116.653 41.971 116.215 41.099 115.519 40.4588C114.823 39.8186 113.918 39.4541 112.972 39.4337H77.4782C77.0332 39.4248 76.5914 39.5105 76.1822 39.6854C75.7729 39.8602 75.4055 40.1201 75.1044 40.4478C74.8033 40.7755 74.5754 41.1636 74.4358 41.5861C74.2961 42.0087 74.248 42.4561 74.2946 42.8987Z" fill="white"/>
    <path d="M116.753 43.26C116.753 43.3725 116.744 43.4848 116.727 43.596C116.602 42.6769 116.152 41.833 115.459 41.2167C114.766 40.6005 113.875 40.2526 112.947 40.236L75.2188 40.32C75.5179 40.0291 75.8714 39.8 76.2591 39.6457C76.6468 39.4915 77.0611 39.4152 77.4784 39.4212H112.964C113.909 39.4416 114.815 39.806 115.511 40.4462C116.207 41.0864 116.645 41.9585 116.744 42.8988C116.753 43.019 116.756 43.1396 116.753 43.26Z" fill="#512210"/>
    <path opacity="0.5" d="M116.753 43.26C116.753 43.3725 116.744 43.4848 116.727 43.596C116.602 42.6769 116.152 41.833 115.459 41.2167C114.766 40.6005 113.875 40.2526 112.947 40.236L75.2188 40.32C75.5179 40.0291 75.8714 39.8 76.2591 39.6457C76.6468 39.4915 77.0611 39.4152 77.4784 39.4212H112.964C113.909 39.4416 114.815 39.806 115.511 40.4462C116.207 41.0864 116.645 41.9585 116.744 42.8988C116.753 43.019 116.756 43.1396 116.753 43.26Z" fill="white"/>
    <path d="M110.658 41.1012L110.809 42.7812L112.389 42.1932L112.762 43.0332L111.15 43.5708L112.309 44.9946L111.582 45.528L110.452 44.0496L109.612 45.528L108.819 44.9946L109.713 43.5708L108.033 43.0332L108.26 42.1932L109.961 42.7602L109.81 41.0802L110.658 41.1012Z" fill="#512210"/>
    <path d="M100.935 41.1012L101.087 42.7812L102.666 42.1932L103.044 43.0332L101.418 43.5834L102.578 45.0072L101.855 45.5406L100.725 44.0622L99.8854 45.5406L99.0874 45.0072L99.9862 43.5834L98.3062 43.0458L98.533 42.2058L100.234 42.7728L100.087 41.0928L100.935 41.1012Z" fill="#512210"/>
    <path d="M91.2334 41.1012L91.3804 42.7812L92.9596 42.1932L93.3376 43.0332L91.7206 43.5708L92.8798 44.9946L92.1784 45.5406L91.0486 44.0622L90.2086 45.5406L89.4148 45.0072L90.3094 43.5834L88.6294 43.0458L88.8604 42.2058L90.5404 42.7728L90.3934 41.0928L91.2334 41.1012Z" fill="#512210"/>
    <path d="M81.5269 41.1012L81.6739 42.7812L83.2573 42.1932L83.6311 43.0332L82.0141 43.5708L83.1775 44.9946L82.4509 45.528L81.3211 44.0496L80.4811 45.528L79.6873 44.9946L80.5819 43.5708L78.9019 43.0332L79.1287 42.1932L80.8087 42.7602L80.6617 41.0802L81.5269 41.1012Z" fill="#512210"/>
    <path d="M105.051 37.7748H103.396V38.1948H105.051V37.7748Z" fill="#512210"/>
    <path d="M112.162 37.7748H106.765V38.1948H112.162V37.7748Z" fill="#512210"/>
    <path opacity="0.8" d="M167.27 53.4408L165.552 73.08C165.486 73.7068 165.193 74.288 164.729 74.7147C164.266 75.1415 163.662 75.3845 163.032 75.3984H149.395C149.099 75.4 148.807 75.3394 148.537 75.2204C148.267 75.1015 148.025 74.927 147.827 74.7082C147.629 74.4895 147.479 74.2314 147.387 73.9508C147.295 73.6703 147.264 73.3736 147.295 73.08L149.012 53.4366C149.076 52.8088 149.368 52.226 149.832 51.7988C150.296 51.3715 150.901 51.1294 151.532 51.1182H165.17C165.465 51.1165 165.758 51.1773 166.028 51.2964C166.299 51.4156 166.541 51.5905 166.739 51.8098C166.938 52.029 167.087 52.2876 167.179 52.5687C167.27 52.8497 167.301 53.1469 167.27 53.4408Z" fill="#512210"/>
    <path opacity="0.8" d="M167.27 53.4408L165.552 73.08C165.486 73.7068 165.193 74.288 164.729 74.7147C164.266 75.1415 163.662 75.3845 163.032 75.3984H149.395C149.099 75.4 148.807 75.3394 148.537 75.2204C148.267 75.1015 148.025 74.927 147.827 74.7082C147.629 74.4895 147.479 74.2314 147.387 73.9508C147.295 73.6703 147.264 73.3736 147.295 73.08L149.012 53.4366C149.076 52.8088 149.368 52.226 149.832 51.7988C150.296 51.3715 150.901 51.1294 151.532 51.1182H165.17C165.465 51.1165 165.758 51.1773 166.028 51.2964C166.299 51.4156 166.541 51.5905 166.739 51.8098C166.938 52.029 167.087 52.2876 167.179 52.5687C167.27 52.8497 167.301 53.1469 167.27 53.4408Z" fill="white"/>
    <path d="M150.255 56.6076H150.218C150.107 56.598 150.004 56.5449 149.933 56.4599C149.861 56.3748 149.826 56.2648 149.835 56.154L149.995 54.3564C150.005 54.2517 150.053 54.1544 150.131 54.0836C150.208 54.0128 150.31 53.9738 150.415 53.9742H152.313C152.425 53.9742 152.532 54.0185 152.61 54.0973C152.689 54.176 152.733 54.2829 152.733 54.3942C152.733 54.5056 152.689 54.6125 152.61 54.6912C152.532 54.77 152.425 54.8142 152.313 54.8142H150.801L150.675 56.2254C150.666 56.3302 150.618 56.4275 150.54 56.4983C150.462 56.569 150.361 56.6081 150.255 56.6076Z" fill="#512210"/>
    <path d="M165.527 56.6076H165.489C165.378 56.598 165.276 56.5449 165.204 56.4599C165.133 56.3748 165.098 56.2648 165.107 56.154L165.225 54.8142H163.788C163.677 54.8142 163.57 54.77 163.491 54.6912C163.412 54.6125 163.368 54.5056 163.368 54.3942C163.368 54.2829 163.412 54.176 163.491 54.0973C163.57 54.0185 163.677 53.9742 163.788 53.9742H165.678C165.737 53.974 165.795 53.986 165.848 54.0094C165.902 54.0329 165.95 54.0672 165.989 54.1103C166.029 54.1534 166.059 54.2043 166.078 54.2597C166.096 54.3151 166.103 54.3738 166.098 54.4321L165.939 56.2254C165.929 56.3287 165.882 56.4249 165.806 56.4955C165.73 56.566 165.631 56.606 165.527 56.6076Z" fill="#512210"/>
    <path d="M150.978 70.1609H149.079C149.022 70.1608 148.965 70.1487 148.912 70.1256C148.859 70.1025 148.812 70.0688 148.773 70.0265C148.734 69.9838 148.704 69.9333 148.685 69.8784C148.666 69.8235 148.659 69.7652 148.664 69.7073L148.819 67.9097C148.828 67.7984 148.882 67.6953 148.967 67.6232C149.053 67.5511 149.163 67.516 149.275 67.5254C149.386 67.5349 149.489 67.5882 149.561 67.6737C149.633 67.7592 149.668 67.8698 149.659 67.9811L149.541 69.3209H150.978C151.089 69.3209 151.196 69.3652 151.275 69.444C151.354 69.5227 151.398 69.6296 151.398 69.7409C151.398 69.8523 151.354 69.9592 151.275 70.0379C151.196 70.1167 151.089 70.1609 150.978 70.1609Z" fill="#512210"/>
    <path d="M164.338 70.161H162.444C162.333 70.161 162.226 70.1168 162.147 70.038C162.068 69.9592 162.024 69.8524 162.024 69.741C162.024 69.6296 162.068 69.5228 162.147 69.444C162.226 69.3653 162.333 69.321 162.444 69.321H163.956L164.078 67.9098C164.087 67.799 164.14 67.6966 164.226 67.6249C164.311 67.5533 164.421 67.5183 164.531 67.5276C164.642 67.5372 164.745 67.5904 164.816 67.6754C164.888 67.7604 164.923 67.8704 164.914 67.9812L164.758 69.7788C164.749 69.8835 164.7 69.9809 164.623 70.0516C164.545 70.1224 164.443 70.1614 164.338 70.161Z" fill="#512210"/>
    <path d="M162.893 63.3892C163.841 59.7123 162.213 56.1137 159.257 55.3514C156.302 54.5892 153.137 56.952 152.188 60.6289C151.24 64.3058 152.868 67.9044 155.824 68.6667C158.78 69.4289 161.945 67.0661 162.893 63.3892Z" fill="white"/>
    <path d="M159.189 72.4626H153.75L154.225 67.0236H159.664L159.189 72.4626Z" fill="white"/>
    <path d="M165.552 73.0801C165.486 73.7069 165.193 74.288 164.729 74.7148C164.266 75.1415 163.662 75.3846 163.032 75.3985H149.395C149.099 75.4001 148.807 75.3394 148.537 75.2205C148.267 75.1016 148.025 74.9271 147.827 74.7083C147.629 74.4895 147.479 74.2315 147.387 73.9509C147.295 73.6703 147.264 73.3736 147.295 73.0801C147.295 73.0801 153.561 71.0977 154.334 71.0977H159.176L165.552 73.0801Z" fill="white"/>
    <path d="M168.062 59.1803L167.426 66.8948L167.845 66.9293L168.48 59.2148L168.062 59.1803Z" fill="#512210"/>
    <path d="M168.504 55.6501L168.379 57.1654L168.797 57.1999L168.922 55.6846L168.504 55.6501Z" fill="#512210"/>
    <path d="M153.868 102.509H152.213V102.929H153.868V102.509Z" fill="#512210"/>
    <path d="M160.979 102.509H155.582V102.929H160.979V102.509Z" fill="#512210"/>
    <path d="M170.857 95.34L169.811 107.31C169.757 107.839 169.511 108.33 169.119 108.69C168.728 109.05 168.218 109.254 167.686 109.263C167.436 109.267 167.188 109.219 166.958 109.12C166.728 109.021 166.522 108.874 166.353 108.689C166.184 108.505 166.056 108.286 165.979 108.048C165.901 107.811 165.874 107.559 165.901 107.31L166.939 95.34C167.035 94.4473 166.941 93.5442 166.662 92.6907C166.383 91.8372 165.925 91.0527 165.32 90.3894C164.715 89.7261 163.975 89.1991 163.151 88.8434C162.326 88.4877 161.436 88.3113 160.538 88.326H156.271C154.362 88.3622 152.533 89.0954 151.128 90.3875C149.723 91.6796 148.839 93.4412 148.643 95.34L148.223 100.229H144.317L144.737 95.34C145.262 89.3172 150.592 84.42 156.611 84.42H160.895C162.293 84.397 163.679 84.6715 164.963 85.2254C166.246 85.7792 167.397 86.5997 168.34 87.6325C169.282 88.6652 169.994 89.8866 170.428 91.2154C170.862 92.5443 171.008 93.9503 170.857 95.34Z" fill="#512210"/>
    <g opacity="0.5">
        <path d="M170.857 95.34L169.811 107.31C169.757 107.839 169.511 108.33 169.119 108.69C168.728 109.05 168.218 109.254 167.686 109.263C167.436 109.267 167.188 109.219 166.958 109.12C166.728 109.021 166.522 108.874 166.353 108.689C166.184 108.505 166.056 108.286 165.979 108.048C165.901 107.811 165.874 107.559 165.901 107.31L166.939 95.34C167.035 94.4473 166.941 93.5442 166.662 92.6907C166.383 91.8372 165.925 91.0527 165.32 90.3894C164.715 89.7261 163.975 89.1991 163.151 88.8434C162.326 88.4877 161.436 88.3113 160.538 88.326H156.271C154.362 88.3622 152.533 89.0954 151.128 90.3875C149.723 91.6796 148.839 93.4412 148.643 95.34L148.223 100.229H144.317L144.737 95.34C145.262 89.3172 150.592 84.42 156.611 84.42H160.895C162.293 84.397 163.679 84.6715 164.963 85.2254C166.246 85.7792 167.397 86.5997 168.34 87.6325C169.282 88.6652 169.994 89.8866 170.428 91.2154C170.862 92.5443 171.008 93.9503 170.857 95.34Z" fill="white"/>
    </g>
    <path d="M171.138 106.873L169.101 130.2C169.027 130.923 168.691 131.594 168.155 132.086C167.619 132.577 166.922 132.855 166.195 132.867H142.868C142.526 132.873 142.187 132.807 141.874 132.672C141.56 132.537 141.278 132.336 141.048 132.084C140.817 131.832 140.643 131.533 140.537 131.208C140.431 130.883 140.395 130.54 140.432 130.2L142.473 106.873C142.52 106.408 142.676 105.961 142.929 105.567C143.181 105.174 143.523 104.846 143.927 104.609C144.364 104.341 144.866 104.196 145.38 104.189H168.702C169.179 104.187 169.646 104.319 170.051 104.572C170.428 104.816 170.73 105.161 170.922 105.568C171.114 105.974 171.189 106.426 171.138 106.873Z" fill="#512210"/>
    <path d="M146.883 117.062L152.944 126.391L172.932 106.403C172.963 106.366 172.979 106.319 172.978 106.271C172.978 106.222 172.96 106.176 172.928 106.14C172.896 106.104 172.852 106.08 172.804 106.074C172.756 106.067 172.708 106.078 172.667 106.105L153.62 121.036L150.021 115.235L146.883 117.062Z" fill="white"/>
    <path d="M51.4382 71.9502H36.2426C35.5395 71.9374 34.8654 71.6676 34.3477 71.1917C33.83 70.7158 33.5045 70.0667 33.4328 69.3672L32.1182 54.18C32.0817 53.8511 32.1158 53.5182 32.2181 53.2036C32.3205 52.8889 32.4888 52.5997 32.7118 52.3553C32.9348 52.1108 33.2073 51.9167 33.5113 51.786C33.8152 51.6552 34.1436 51.5908 34.4744 51.597H49.6532C50.3536 51.6129 51.0241 51.8842 51.5385 52.3599C52.0529 52.8356 52.3757 53.4829 52.4462 54.18L53.7734 69.3588C53.8109 69.6865 53.7783 70.0185 53.6778 70.3327C53.5773 70.6468 53.4111 70.9361 53.1902 71.1811C52.9694 71.4262 52.699 71.6215 52.3969 71.7541C52.0949 71.8867 51.7681 71.9535 51.4382 71.9502Z" fill="#512210"/>
    <path opacity="0.8" d="M51.4382 71.9502H36.2426C35.5395 71.9374 34.8654 71.6676 34.3477 71.1917C33.83 70.7158 33.5045 70.0667 33.4328 69.3672L32.1182 54.18C32.0817 53.8511 32.1158 53.5182 32.2181 53.2036C32.3205 52.8889 32.4888 52.5997 32.7118 52.3553C32.9348 52.1108 33.2073 51.9167 33.5113 51.786C33.8152 51.6552 34.1436 51.5908 34.4744 51.597H49.6532C50.3536 51.6129 51.0241 51.8842 51.5385 52.3599C52.0529 52.8356 52.3757 53.4829 52.4462 54.18L53.7734 69.3588C53.8109 69.6865 53.7783 70.0185 53.6778 70.3327C53.5773 70.6468 53.4111 70.9361 53.1902 71.1811C52.9694 71.4262 52.699 71.6215 52.3969 71.7541C52.0949 71.8867 51.7681 71.9535 51.4382 71.9502Z" fill="white"/>
    <path d="M33.4414 63.3066C33.4414 63.3066 38.8384 55.7928 42.8116 55.986C46.7848 56.1792 53.3872 63.126 53.3872 63.126C53.3872 63.126 43.6558 68.2374 33.4414 63.3066Z" fill="white"/>
    <path d="M33.6136 63.42L33.2734 63.1764C33.4918 62.8698 38.6368 55.7634 42.6604 55.7634H42.8242C46.8394 55.9566 53.2654 62.685 53.5384 62.9706L53.236 63.2604C53.1688 63.1932 46.6504 56.3682 42.8032 56.1834H42.6604C38.8384 56.1918 33.664 63.357 33.6136 63.42Z" fill="#263238"/>
    <path d="M32.8828 63.5712C32.068 63.5712 31.0096 63.2688 30.6358 62.118C30.6186 62.0651 30.6231 62.0075 30.6483 61.9579C30.6735 61.9083 30.7173 61.8707 30.7702 61.8534C30.7964 61.8443 30.8241 61.8405 30.8518 61.8424C30.8794 61.8442 30.9064 61.8517 30.9311 61.8642C30.9558 61.8768 30.9778 61.8942 30.9956 61.9154C31.0134 61.9367 31.0267 61.9613 31.0348 61.9878C31.5178 63.4746 33.3238 63.1176 33.3994 63.1008C33.4539 63.0908 33.5101 63.1022 33.5563 63.1327C33.6025 63.1633 33.6351 63.2105 33.6472 63.2646C33.6527 63.2916 33.6529 63.3195 33.6476 63.3465C33.6424 63.3736 33.6319 63.3994 33.6166 63.4224C33.6014 63.4454 33.5818 63.4652 33.559 63.4807C33.5361 63.4961 33.5104 63.5069 33.4834 63.5124C33.2856 63.5515 33.0844 63.5712 32.8828 63.5712Z" fill="#263238"/>
    <path d="M36.0872 60.3456C36.0403 60.3465 35.9945 60.3318 35.957 60.3036C35.894 60.2532 34.403 59.1024 34.025 57.9306C34.0077 57.8777 34.0122 57.8201 34.0374 57.7705C34.0626 57.7209 34.1065 57.6833 34.1594 57.666C34.2123 57.6499 34.2694 57.6549 34.3187 57.68C34.368 57.705 34.4057 57.7482 34.424 57.8004C34.7642 58.8462 36.1964 59.9592 36.2132 59.9676C36.2571 60.0016 36.2857 60.0517 36.2928 60.1068C36.2999 60.1619 36.2848 60.2176 36.251 60.2616C36.2318 60.2871 36.2071 60.308 36.1788 60.3225C36.1504 60.3371 36.1191 60.345 36.0872 60.3456Z" fill="#263238"/>
    <path d="M39.1704 57.4854C39.1154 57.4822 39.0636 57.4584 39.0254 57.4187C38.9873 57.379 38.9655 57.3263 38.9646 57.2712C38.7193 56.3564 38.4149 55.4585 38.0532 54.5832C37.9482 54.306 37.8726 54.1044 37.8558 54.054C37.8474 54.0273 37.8445 53.9991 37.8472 53.9712C37.8498 53.9433 37.8581 53.9163 37.8714 53.8916C37.8847 53.8669 37.9028 53.8452 37.9246 53.8276C37.9465 53.8101 37.9716 53.7971 37.9986 53.7894C38.025 53.7817 38.0528 53.7793 38.0802 53.7822C38.1076 53.7852 38.1342 53.7936 38.1583 53.8069C38.1825 53.8201 38.2038 53.838 38.2211 53.8595C38.2384 53.881 38.2512 53.9057 38.259 53.9322C38.259 53.9826 38.3472 54.1674 38.4438 54.432C39.0318 55.9734 39.393 56.9856 39.3846 57.2796C39.3846 57.3074 39.379 57.3348 39.3681 57.3604C39.3573 57.3859 39.3414 57.409 39.3213 57.4282C39.3013 57.4474 39.2776 57.4624 39.2517 57.4722C39.2258 57.4821 39.1981 57.4865 39.1704 57.4854Z" fill="#263238"/>
    <path d="M42.8115 56.196C42.7591 56.1944 42.7091 56.1739 42.6706 56.1385C42.632 56.103 42.6075 56.0549 42.6015 56.0028L42.3075 52.6428C42.3025 52.5871 42.3198 52.5317 42.3556 52.4888C42.3915 52.4459 42.4429 52.4189 42.4986 52.4139C42.5543 52.4089 42.6097 52.4262 42.6526 52.4621C42.6955 52.4979 42.7225 52.5493 42.7275 52.605L43.0215 55.9902C43.0251 56.0451 43.0075 56.0992 42.9723 56.1414C42.9371 56.1836 42.8871 56.2107 42.8325 56.217L42.8115 56.196Z" fill="#263238"/>
    <path d="M54.0171 63.3401C53.8116 63.3411 53.6064 63.3243 53.4039 63.2897C53.3769 63.2842 53.3512 63.2735 53.3283 63.258C53.3055 63.2426 53.2859 63.2228 53.2707 63.1998C53.2554 63.1768 53.2449 63.151 53.2397 63.1239C53.2344 63.0968 53.2346 63.069 53.2401 63.0419C53.2446 63.0148 53.2545 62.9889 53.2694 62.9658C53.2843 62.9426 53.3037 62.9228 53.3265 62.9074C53.3493 62.8921 53.375 62.8816 53.4021 62.8765C53.4291 62.8715 53.4569 62.8721 53.4837 62.8781C53.4837 62.8781 54.5127 63.0755 55.1427 62.6303C55.2775 62.5323 55.3899 62.4066 55.4724 62.2618C55.555 62.117 55.6058 61.9563 55.6215 61.7903C55.6256 61.7628 55.6352 61.7363 55.6495 61.7124C55.6639 61.6885 55.6828 61.6677 55.7053 61.6511C55.7277 61.6345 55.7532 61.6225 55.7802 61.6158C55.8073 61.609 55.8354 61.6077 55.863 61.6118C55.8906 61.616 55.9171 61.6255 55.941 61.6399C55.9648 61.6543 55.9857 61.6732 56.0023 61.6956C56.0188 61.7181 56.0308 61.7435 56.0376 61.7706C56.0443 61.7976 56.0456 61.8258 56.0415 61.8533C56.0161 62.0743 55.9447 62.2876 55.8318 62.4793C55.719 62.671 55.5672 62.8369 55.3863 62.9663C54.9782 63.2265 54.5008 63.3568 54.0171 63.3401Z" fill="#263238"/>
    <path d="M50.2458 60.123C50.2163 60.1232 50.187 60.1169 50.1602 60.1046C50.1333 60.0922 50.1095 60.0741 50.0904 60.0516C50.0708 60.0321 50.0551 60.0088 50.0445 59.9832C50.0338 59.9576 50.0283 59.9302 50.0283 59.9025C50.0283 59.8748 50.0338 59.8473 50.0445 59.8217C50.0551 59.7961 50.0708 59.7729 50.0904 59.7534C50.0904 59.7534 51.3504 58.6446 51.4848 57.6114C51.4941 57.5567 51.5243 57.5078 51.5689 57.4749C51.6136 57.442 51.6693 57.4277 51.7242 57.435C51.7516 57.4391 51.7778 57.4485 51.8015 57.4628C51.8251 57.477 51.8457 57.4958 51.8621 57.5181C51.8785 57.5403 51.8903 57.5656 51.8969 57.5924C51.9036 57.6192 51.9048 57.6471 51.9006 57.6744C51.7242 58.8588 50.4222 60.018 50.3676 60.0684C50.3348 60.1005 50.2916 60.1198 50.2458 60.123Z" fill="#263238"/>
    <path d="M46.6965 57.6828H46.6587C46.6039 57.6725 46.5553 57.6414 46.5232 57.5959C46.491 57.5504 46.4779 57.4942 46.4865 57.4392C46.4865 57.414 46.9485 54.7134 47.0325 54.159C47.0366 54.1314 47.0461 54.1049 47.0605 54.081C47.0749 54.0571 47.0938 54.0363 47.1162 54.0197C47.1387 54.0032 47.1641 53.9912 47.1912 53.9844C47.2183 53.9777 47.2464 53.9764 47.274 53.9805C47.3015 53.9846 47.328 53.9942 47.3519 54.0085C47.3758 54.0229 47.3966 54.0419 47.4132 54.0643C47.4298 54.0867 47.4418 54.1122 47.4485 54.1392C47.4553 54.1663 47.4566 54.1944 47.4525 54.222C47.3685 54.7806 46.9107 57.4854 46.9065 57.5106C46.8975 57.5595 46.8715 57.6037 46.833 57.6352C46.7946 57.6667 46.7462 57.6836 46.6965 57.6828Z" fill="#263238"/>
    <path d="M46.82 64.1864C48.5587 62.3701 48.36 59.358 46.3761 57.4589C44.3922 55.5597 41.3744 55.4925 39.6356 57.3089C37.8969 59.1252 38.0956 62.1372 40.0795 64.0364C42.0634 65.9356 45.0812 66.0027 46.82 64.1864Z" fill="#512210"/>
    <path opacity="0.3" d="M45.1974 60.7446C45.2037 60.6383 45.2037 60.5317 45.1974 60.4254C45.141 59.8779 44.8859 59.3699 44.4804 58.9977C44.0749 58.6254 43.547 58.4147 42.9966 58.4052C42.7379 58.4007 42.4813 58.4513 42.2436 58.5537C42.006 58.6561 41.7929 58.8079 41.6185 58.999C41.4441 59.1901 41.3124 59.4161 41.2321 59.6621C41.1518 59.908 41.1248 60.1682 41.1528 60.4254C41.1598 60.5338 41.1795 60.6409 41.2116 60.7446H38.4732C38.4063 60.139 38.4692 59.5261 38.6577 58.9467C38.8463 58.3672 39.1561 57.8347 39.5666 57.3844C39.9772 56.9341 40.4789 56.5765 41.0385 56.3354C41.5981 56.0943 42.2026 55.9752 42.8118 55.986C44.1072 56.0099 45.3491 56.5071 46.3031 57.3838C47.2571 58.2604 47.8573 59.4559 47.9904 60.7446H45.1974Z" fill="black"/>
    <path opacity="0.7" d="M45.1929 60.4254C45.1991 60.5317 45.1991 60.6383 45.1929 60.7446C45.1627 61.2121 44.9532 61.6499 44.6081 61.9668C44.2631 62.2837 43.809 62.4552 43.3407 62.4456C42.8469 62.4364 42.37 62.2648 41.9836 61.9573C41.5971 61.6498 41.3228 61.2236 41.2029 60.7446C41.1707 60.6409 41.151 60.5337 41.1441 60.4254C41.116 60.1682 41.143 59.908 41.2233 59.662C41.3036 59.4161 41.4353 59.19 41.6097 58.9989C41.7842 58.8078 41.9973 58.656 42.2349 58.5537C42.4725 58.4513 42.7292 58.4007 42.9879 58.4052C43.539 58.4136 44.0679 58.6239 44.4743 58.9962C44.8807 59.3686 45.1364 59.8771 45.1929 60.4254Z" fill="black"/>
    <path opacity="0.7" d="M46.2892 58.443C46.3119 58.6526 46.2897 58.8647 46.2241 59.0651C46.1585 59.2655 46.0511 59.4497 45.9089 59.6054C45.7667 59.7611 45.593 59.8848 45.3993 59.9683C45.2057 60.0517 44.9965 60.093 44.7856 60.0894C44.3379 60.0805 43.9088 59.9082 43.5793 59.6049C43.2497 59.3017 43.0424 58.8884 42.9964 58.443C42.9731 58.2332 42.9948 58.0208 43.0601 57.8201C43.1254 57.6194 43.2328 57.4349 43.3751 57.2791C43.5175 57.1232 43.6915 56.9995 43.8855 56.9163C44.0795 56.8331 44.289 56.7923 44.5 56.7966C44.948 56.8046 45.3776 56.9766 45.7073 57.28C46.037 57.5834 46.2441 57.9972 46.2892 58.443Z" fill="white"/>
    <path d="M39.7876 49.7196H38.1328V50.1396H39.7876V49.7196Z" fill="#512210"/>
    <path d="M46.898 49.7196H41.501V50.1396H46.898V49.7196Z" fill="#512210"/>
    <path d="M116.118 80.493L116.261 80.6652L116.454 80.8878C116.593 81.0348 116.727 81.1902 116.874 81.333C117.164 81.6354 117.479 81.9294 117.798 82.2276C118.436 82.8158 119.105 83.3696 119.802 83.8866C120.512 84.4158 121.259 84.8988 122.007 85.3776C122.427 85.6044 122.771 85.8438 123.166 86.0622L124.077 86.5662C124.21 86.6246 124.359 86.6335 124.497 86.5914C124.791 86.5032 126.48 84.8316 127.017 84.21C128.21 82.845 130.016 81.0474 130.991 79.5186L132.078 81.018C131.391 82.891 130.478 84.6737 129.361 86.3268C128.76 87.2205 128.039 88.0274 127.219 88.725C126.726 89.1399 126.171 89.4731 125.573 89.712C124.814 90.0145 123.982 90.0775 123.187 89.8926C122.981 89.8425 122.78 89.775 122.586 89.691L122.208 89.5272L121.528 89.2164C121.07 89.0148 120.629 88.7712 120.184 88.5486C119.294 88.0736 118.43 87.5506 117.597 86.982C116.757 86.4042 115.95 85.7788 115.182 85.1088C114.783 84.7602 114.426 84.4074 114.06 84.0252C113.88 83.8362 113.695 83.6388 113.519 83.433L113.258 83.1138C113.162 82.9962 113.09 82.908 112.96 82.7274L116.118 80.493Z" fill="#FFB573"/>
    <path d="M130.818 79.7495L132.767 75.5831L134.628 78.9179C134.628 78.9179 133.406 81.0179 132.078 81.0179L130.818 79.7495Z" fill="#FFB573"/>
    <path d="M134.977 73.8528L136.942 76.3812L134.645 78.9138L132.784 75.5832L134.977 73.8528Z" fill="#FFB573"/>
    <path d="M134.292 80.0646H137.387C137.475 80.0639 137.559 80.0309 137.623 79.972C137.687 79.913 137.728 79.8323 137.736 79.7454L138.379 72.324C138.383 72.2755 138.378 72.2265 138.362 72.1802C138.347 72.134 138.322 72.0915 138.289 72.0555C138.256 72.0194 138.216 71.9907 138.172 71.9711C138.127 71.9516 138.079 71.9415 138.03 71.9418H134.939C134.851 71.9425 134.766 71.9761 134.702 72.0359C134.637 72.0958 134.598 72.1775 134.59 72.2652L133.939 79.6824C133.935 79.7311 133.941 79.7802 133.957 79.8264C133.973 79.8727 133.998 79.9151 134.032 79.9511C134.065 79.987 134.105 80.0157 134.15 80.0352C134.195 80.0547 134.243 80.0648 134.292 80.0646Z" fill="#512210"/>
    <path opacity="0.3" d="M134.326 79.3211H137.425L138.005 72.6893H134.905L134.326 79.3211Z" fill="white"/>
    <path d="M134.124 78.3804L134.674 78.099C134.954 77.9566 135.213 77.7756 135.443 77.5614L135.544 77.196C135.485 77.0987 135.397 77.0229 135.291 76.9798C135.186 76.9366 135.07 76.9285 134.96 76.9566L134.502 77.0826L132.23 77.2548L132.175 78.2124L132.839 79.2372H133.066C133.316 79.246 133.561 79.1642 133.755 79.0067C133.95 78.8493 134.081 78.6268 134.124 78.3804Z" fill="#FFB573"/>
    <path d="M112.154 76.4399C113.729 76.1543 124.838 85.7849 124.838 85.7849L121.545 90.6149C121.545 90.6149 109.399 82.1561 109.785 80.1149C110.159 77.9687 109.86 76.8599 112.154 76.4399Z" fill="#263238"/>
    <path opacity="0.2" d="M113.556 79.5186L113.435 84.5586C114.695 85.5372 119.247 89.0274 119.247 89.0274L113.556 79.5186Z" fill="black"/>
    <path d="M104.749 176.53L108.474 176.896L109.659 168.256L105.929 167.891L104.749 176.53Z" fill="#FFB573"/>
    <path d="M68.0706 125.836L67.1172 129.465L75.177 132.938L76.8486 129.255L68.0706 125.836Z" fill="#FFB573"/>
    <path d="M111.141 177.66C111.462 177.699 111.786 177.628 112.061 177.458C112.12 177.407 112.167 177.342 112.196 177.269C112.225 177.196 112.236 177.117 112.229 177.038C112.229 176.989 112.216 176.941 112.191 176.899C112.165 176.857 112.129 176.822 112.086 176.799C111.637 176.53 110.117 177.252 109.944 177.332C109.928 177.34 109.914 177.353 109.905 177.368C109.896 177.384 109.892 177.402 109.894 177.42C109.896 177.439 109.904 177.456 109.917 177.47C109.93 177.484 109.947 177.493 109.965 177.496C110.352 177.586 110.745 177.641 111.141 177.66ZM111.818 176.908C111.876 176.904 111.935 176.917 111.986 176.946C112.003 176.955 112.018 176.969 112.028 176.986C112.039 177.003 112.044 177.023 112.044 177.042C112.049 177.095 112.041 177.148 112.021 177.197C112.002 177.246 111.971 177.289 111.931 177.324C111.7 177.521 111.091 177.538 110.251 177.378C110.746 177.131 111.28 176.971 111.83 176.904L111.818 176.908Z" fill="#512210"/>
    <path d="M109.982 177.479H110.016C110.469 177.29 111.381 176.509 111.322 176.081C111.306 176.006 111.264 175.94 111.204 175.892C111.145 175.845 111.071 175.82 110.994 175.82C110.907 175.804 110.817 175.807 110.731 175.829C110.644 175.85 110.564 175.891 110.495 175.946C110.012 176.32 109.898 177.332 109.89 177.37C109.886 177.385 109.886 177.401 109.889 177.417C109.893 177.432 109.9 177.446 109.911 177.458C109.921 177.467 109.932 177.473 109.944 177.476C109.957 177.48 109.97 177.481 109.982 177.479ZM110.91 175.98H110.961C111.125 176.005 111.133 176.068 111.133 176.089C111.171 176.345 110.549 176.967 110.083 177.215C110.128 176.789 110.307 176.389 110.595 176.072C110.689 176.005 110.805 175.976 110.919 175.993L110.91 175.98Z" fill="#512210"/>
    <path d="M108.29 175.392L104.93 175.535C104.857 175.535 104.788 175.563 104.734 175.612C104.681 175.66 104.647 175.727 104.64 175.799L103.833 180.491C103.829 180.571 103.84 180.65 103.867 180.726C103.893 180.801 103.935 180.871 103.988 180.93C104.042 180.989 104.106 181.037 104.179 181.072C104.251 181.106 104.329 181.125 104.409 181.129H104.476C105.942 181.054 106.647 180.944 108.504 180.881C109.642 180.844 113.124 181.255 114.678 180.902C116.232 180.55 115.938 179.008 115.27 179.021C113.111 179.063 110.621 177.656 109.39 176.009C109.176 175.871 108.525 175.379 108.29 175.392Z" fill="#263238"/>
    <path d="M68.8307 129.94L70.5443 127.029C70.5831 126.967 70.5973 126.893 70.584 126.822C70.5708 126.75 70.5311 126.686 70.4729 126.643L66.9785 123.421C66.8486 123.329 66.6881 123.292 66.5311 123.317C66.3742 123.342 66.2332 123.428 66.1385 123.556L66.1007 123.614C65.3699 124.874 65.0801 125.538 64.1267 127.13C63.5387 128.108 61.2959 130.826 60.7667 132.308C60.2375 133.791 61.6739 134.408 62.0267 133.829C63.1649 131.989 65.6975 130.662 67.7555 130.502C67.9529 130.427 68.7131 130.145 68.8307 129.94Z" fill="#263238"/>
    <path opacity="0.2" d="M109.659 168.256L109.05 172.712L105.32 172.347L105.925 167.895L109.659 168.256Z" fill="black"/>
    <path opacity="0.2" d="M79.3263 130.154L77.6043 134.039L72.4131 131.745L73.7361 128.045L79.3263 130.154Z" fill="black"/>
    <path d="M114.535 80.8709C116.664 84.4913 114.06 87.5447 111.885 98.3639L97.8483 98.4017C98.0751 92.5721 98.0499 87.8597 95.5635 76.3895C95.4989 76.1069 95.499 75.8133 95.5639 75.5308C95.6287 75.2482 95.7566 74.984 95.938 74.7578C96.1193 74.5316 96.3494 74.3493 96.6111 74.2246C96.8728 74.0999 97.1594 74.0359 97.4493 74.0375C98.6085 74.0375 100.066 74.0753 101.548 74.2265C103.887 74.4177 106.209 74.77 108.499 75.2807C109.741 75.5803 110.962 75.9619 112.153 76.4231C112.876 76.6667 113.745 78.6323 114.535 80.8709Z" fill="#263238"/>
    <path d="M112.406 99.0948C112.406 99.0948 120.289 121.888 120.1 132.85C119.991 139.129 119.516 150.83 117.622 159.058C116.077 165.778 109.777 170.062 109.777 170.062L104.737 169.764C104.737 169.764 102.007 159.516 102.481 155.438C103.426 147.319 106.228 141.221 105.887 133.766C105.35 121.561 101.738 98.9058 101.738 98.9058L112.406 99.0948Z" fill="#512210"/>
    <path d="M103.724 171.079L110.843 171.499L111.49 169.361L103.535 168.626L103.724 171.079Z" fill="#263238"/>
    <path opacity="0.2" d="M104.623 145.144C104.623 145.144 104.623 145.102 104.665 145.106C109.138 145.526 112.225 139.087 111.49 130.271L109.117 107.801L104.623 145.144Z" fill="black"/>
    <path d="M108.869 98.9058C108.869 98.9058 115.136 138.986 102.107 143.497C95.2317 146.101 89.4483 143.279 82.5981 140.246C78.6375 138.495 73.6899 133.753 73.6899 133.753L75.5925 128.575C79.0144 127.649 82.595 127.469 86.0925 128.045C92.7705 129.079 93.0519 130.985 95.4249 129.545C100.415 117.214 91.8297 107.465 97.6635 98.8848L108.869 98.9058Z" fill="#512210"/>
    <path d="M75.9666 127.592L73.4214 134.308L75.2946 135.74L78.3186 127.747L75.9666 127.592Z" fill="#263238"/>
    <path d="M74.9164 91.3752C74.2822 92.3118 71.065 91.6776 71.065 91.6776L70.3804 87.6918L74.3326 89.2752L74.9164 91.3752Z" fill="#FFB573"/>
    <path d="M71.1785 87.486L71.7917 91.6272L69.4186 91.98C69.29 91.9917 69.1617 91.9552 69.0584 91.8776C68.9552 91.8 68.8845 91.6868 68.86 91.56L67.9486 88.62C67.9331 88.5516 67.9446 88.4798 67.9805 88.4196C68.0165 88.3594 68.0743 88.3153 68.1419 88.2966L71.1785 87.486Z" fill="#FFB573"/>
    <path d="M70.1158 89.3634L71.4682 89.6028L72.7492 88.641L72.2536 88.2882C71.9177 88.0491 71.6815 87.6948 71.59 87.2928C71.4947 86.8717 71.4371 86.443 71.4178 86.0118V85.869C71.4016 85.7423 71.3444 85.6245 71.2549 85.5335C71.1654 85.4424 71.0485 85.3833 70.9222 85.365L70.5862 85.6128C70.3762 86.0706 70.5274 86.604 70.5022 86.961L70.4476 87.654L69.9058 87.8892L70.1158 89.3634Z" fill="#FFB573"/>
    <path d="M96.2396 75.6L88.2932 86.52L73.6982 89.4012V91.7952C73.6982 91.7952 87.4154 92.8116 90.4982 91.0182C93.581 89.2248 98.7512 78.3468 98.7512 78.3468L96.2396 75.6Z" fill="#FFB573"/>
    <path d="M96.1476 54.6C92.8128 53.4828 88.9446 55.5533 87.42 58.7201C85.8954 61.8869 86.4288 65.7719 88.1466 68.8379C88.6632 69.7661 89.2806 70.6398 89.7048 71.61C90.1762 72.5717 90.2793 73.6728 89.9946 74.7053C89.6502 75.7092 89.2974 76.3518 88.0542 76.1922C88.0542 76.1922 88.0542 75.5034 88.5288 75.5874C88.5288 75.5874 87.5208 76.1459 87.126 75.7805C87.5838 76.4861 88.806 76.23 89.1966 75.4824C89.7804 74.3694 88.7052 72.8615 87.4452 72.8741C86.1852 72.8867 85.1604 74.1636 85.2024 75.4194C85.255 76.0474 85.4784 76.6492 85.8486 77.1593C86.2188 77.6694 86.7216 78.0684 87.3024 78.3132C86.962 78.3693 86.6126 78.3111 86.3086 78.1477C86.0047 77.9844 85.7634 77.725 85.6224 77.4102C86.1936 78.9053 88.0584 79.5648 89.6334 79.2708C91.2084 78.9768 92.5398 77.9688 93.7746 76.9482C95.4546 75.5706 97.1724 73.8275 97.1346 71.6729C97.0968 70.0643 96.0636 68.6826 95.1942 67.326C94.3248 65.9694 93.5646 64.3145 94.119 62.8067C94.5852 61.5257 95.8536 60.7529 96.9708 59.9717C97.7772 59.4131 99.4152 58.1657 99.222 56.9855C99.0246 55.8599 97.0926 54.915 96.1476 54.6Z" fill="#263238"/>
    <path d="M88.6339 91.98L86.4331 86.1546L86.9371 86.1966C87.3449 86.2307 87.7538 86.1467 88.1151 85.9546C88.4763 85.7624 88.7746 85.4702 88.9741 85.1129C90.6541 82.1225 94.9927 74.5332 96.2149 74.1552C97.9579 73.6386 99.7513 75.033 100.415 77.0952C100.915 78.6114 95.7949 85.113 93.4345 88.809C91.3387 92.0808 88.6339 91.98 88.6339 91.98Z" fill="#263238"/>
    <path d="M67.1672 131.855V131.901C67.1982 131.982 67.2491 132.053 67.3152 132.109C67.3813 132.165 67.4604 132.203 67.5452 132.22C67.5962 132.236 67.6504 132.239 67.7026 132.228C67.7548 132.217 67.8033 132.192 67.8434 132.157C68.1962 131.834 67.9694 130.477 67.9484 130.343C67.9461 130.325 67.9384 130.309 67.9263 130.296C67.9143 130.283 67.8985 130.275 67.8812 130.271C67.8649 130.269 67.8483 130.271 67.833 130.277C67.8176 130.283 67.8039 130.293 67.793 130.305C67.5074 130.708 67.0538 131.426 67.1672 131.855ZM67.814 130.595C67.8896 131.132 67.9232 131.855 67.7258 132.031C67.7053 132.043 67.6822 132.049 67.6586 132.049C67.6351 132.049 67.612 132.043 67.5914 132.031C67.535 132.021 67.4822 131.996 67.4381 131.959C67.394 131.922 67.36 131.875 67.3394 131.821C67.2638 131.594 67.4234 131.132 67.814 130.586V130.595Z" fill="#512210"/>
    <path d="M67.8187 130.519C67.9279 130.973 68.3563 131.746 68.7343 131.838C68.8032 131.852 68.8747 131.842 68.9373 131.81C68.9998 131.778 69.0497 131.726 69.0787 131.662C69.1116 131.602 69.1309 131.535 69.1352 131.467C69.1396 131.399 69.1289 131.33 69.1039 131.267C68.9317 130.746 67.9405 130.318 67.8985 130.297C67.8849 130.289 67.8698 130.285 67.8544 130.285C67.839 130.285 67.8238 130.289 67.8103 130.297C67.7979 130.307 67.7884 130.319 67.7825 130.334C67.7766 130.349 67.7746 130.365 67.7767 130.381C67.787 130.428 67.8011 130.474 67.8187 130.519ZM68.9611 131.359C68.9696 131.396 68.9707 131.435 68.9642 131.472C68.9577 131.51 68.9438 131.546 68.9233 131.578C68.8687 131.678 68.8141 131.678 68.7721 131.67C68.5159 131.62 68.1253 130.985 67.9993 130.544C68.3227 130.708 68.8393 131.015 68.9485 131.334C68.9456 131.342 68.9456 131.351 68.9485 131.359H68.9611Z" fill="#512210"/>
    <path d="M97.7981 97.6919L97.4075 99.0569C97.3571 99.1619 97.4789 99.2711 97.6553 99.2669H112.145C112.284 99.2669 112.397 99.1955 112.406 99.1115L112.54 97.7465C112.54 97.6541 112.431 97.5701 112.28 97.5743H98.0417C97.9943 97.5706 97.9468 97.5796 97.904 97.6002C97.8612 97.6209 97.8246 97.6525 97.7981 97.6919Z" fill="#512210"/>
    <path opacity="0.5" d="M97.7981 97.6919L97.4075 99.0569C97.3571 99.1619 97.4789 99.2711 97.6553 99.2669H112.145C112.284 99.2669 112.397 99.1955 112.406 99.1115L112.54 97.7465C112.54 97.6541 112.431 97.5701 112.28 97.5743H98.0417C97.9943 97.5706 97.9468 97.5796 97.904 97.6002C97.8612 97.6209 97.8246 97.6525 97.7981 97.6919Z" fill="white"/>
    <path d="M100.578 99.3929H100.158C100.079 99.3929 100.011 99.3509 100.02 99.3005L100.209 97.5239C100.209 97.4735 100.289 97.4315 100.373 97.4315H100.793C100.872 97.4315 100.935 97.4735 100.931 97.5281L100.742 99.3005C100.717 99.3509 100.641 99.3971 100.578 99.3929Z" fill="#512210"/>
    <path d="M111.024 99.3929H110.604C110.528 99.3929 110.461 99.3509 110.469 99.3005L110.658 97.5281C110.658 97.4735 110.734 97.4315 110.814 97.4315H111.234C111.314 97.4315 111.381 97.4735 111.372 97.5239L111.183 99.2963C111.175 99.3509 111.108 99.3929 111.024 99.3929Z" fill="#512210"/>
    <path d="M106.232 99.3845H105.812C105.732 99.3845 105.665 99.3425 105.673 99.2921L105.862 97.5197C105.862 97.4651 105.942 97.4231 106.022 97.4231H106.442C106.521 97.4231 106.584 97.4651 106.58 97.5155L106.387 99.2879C106.387 99.3425 106.316 99.3845 106.232 99.3845Z" fill="#512210"/>
    <path d="M102.204 66.5825C102.649 68.8715 103.086 73.0043 101.532 74.2475C101.532 74.2475 102.153 76.5953 106.307 77.2211C110.894 77.9099 108.487 75.2975 108.487 75.2975C105.988 74.3105 106.051 72.5045 106.479 70.8413L102.204 66.5825Z" fill="#FFB573"/>
    <path d="M101.548 74.2266C103.765 74.3671 105.968 74.6731 108.138 75.1422L111.28 76.0788C111.838 77.2044 110.923 79.5186 108.294 79.9596C108.294 79.9596 101.67 80.871 99.7173 74.0502L101.548 74.2266Z" fill="#FFB573"/>
    <path opacity="0.2" d="M103.938 68.3256L106.458 70.8456C106.352 71.2358 106.283 71.6351 106.253 72.0384C105.295 71.757 103.758 70.7028 103.653 69.6948C103.654 69.2237 103.751 68.7578 103.938 68.3256Z" fill="black"/>
    <path d="M99.3985 63.693C100.524 67.2462 100.919 68.775 103.225 70.1736C106.66 72.2736 110.785 70.1232 110.743 66.3096C110.709 62.874 108.882 57.6408 104.98 57.0696C104.123 56.941 103.246 57.0341 102.435 57.3399C101.623 57.6458 100.904 58.1542 100.344 58.8168C99.7845 59.4795 99.4039 60.2743 99.2384 61.1256C99.0729 61.9769 99.128 62.8564 99.3985 63.6804V63.693Z" fill="#FFB573"/>
    <path d="M107.878 63.1385C108.275 63.7622 108.757 64.3276 109.31 64.8185C109.181 64.9586 109.022 65.0687 108.846 65.1412C108.67 65.2138 108.48 65.247 108.29 65.2385L107.878 63.1385Z" fill="#ED893E"/>
    <path d="M107.479 67.1369C107.621 67.1212 107.762 67.0931 107.899 67.0529C107.91 67.0504 107.92 67.0458 107.929 67.0394C107.938 67.033 107.946 67.0249 107.952 67.0156C107.958 67.0062 107.961 66.9958 107.963 66.9849C107.965 66.974 107.965 66.9628 107.962 66.9521C107.956 66.93 107.942 66.9111 107.922 66.8994C107.903 66.8876 107.88 66.884 107.857 66.8891C107.499 66.9879 107.122 67.0014 106.757 66.9285C106.393 66.8555 106.05 66.6982 105.757 66.4691C105.74 66.4519 105.717 66.4423 105.692 66.4423C105.668 66.4423 105.644 66.4519 105.627 66.4691C105.619 66.4773 105.612 66.4871 105.607 66.4979C105.603 66.5087 105.601 66.5204 105.601 66.5321C105.601 66.5438 105.603 66.5554 105.607 66.5663C105.612 66.5771 105.619 66.5869 105.627 66.5951C105.885 66.8027 106.181 66.9574 106.499 67.0503C106.817 67.1433 107.15 67.1727 107.479 67.1369Z" fill="#263238"/>
    <path d="M98.1761 56.5991C97.7133 56.8985 97.329 57.3046 97.0557 57.7833C96.7823 58.262 96.6279 58.7993 96.6053 59.3501C96.5863 59.5607 96.6194 59.7728 96.7019 59.9675C96.7433 60.0639 96.8094 60.1476 96.8934 60.2103C96.9775 60.273 97.0766 60.3124 97.1807 60.3245C97.4999 60.3245 97.7351 60.0389 97.9115 59.7701L98.7263 58.5101C99.0618 58.1008 99.3441 57.6506 99.5663 57.1703C99.8393 56.3429 98.6759 56.2799 98.1761 56.5991Z" fill="#512210"/>
    <path d="M98.575 57.4349C96.3448 60.0137 95.3452 67.1495 101.88 69.1403C102.972 68.2751 101.208 66.7001 100.461 64.7093C99.9694 63.4073 102.46 60.9755 103.43 59.9759C104.4 58.9763 105.295 57.5357 106.664 57.7667C107.012 57.8829 107.386 57.8931 107.739 57.7961C108.827 57.3047 108.298 56.6537 107.739 56.2001C106.883 55.566 105.863 55.1901 104.799 55.1165C103.652 54.9814 102.49 55.1212 101.407 55.5243C100.325 55.9274 99.3541 56.5823 98.575 57.4349Z" fill="#263238"/>
    <path d="M105.829 56.5697C108.454 58.7579 104.989 58.8125 103.153 60.1985C101.393 61.5299 102.628 63.7097 99.6505 64.7219C97.2187 65.4317 96.6559 65.0033 95.9839 64.5329C96.8167 64.3888 97.5784 63.9733 98.1505 63.3511C98.7225 62.7289 99.0727 61.935 99.1465 61.0931C99.3523 59.4971 102.83 54.0329 105.829 56.5697Z" fill="#263238"/>
    <path d="M99.0036 66.6792C99.4148 67.2716 100.042 67.6788 100.751 67.8132C101.692 67.977 102.053 67.116 101.729 66.276C101.423 65.52 100.57 64.5246 99.6588 64.7388C99.3454 64.8198 99.077 65.0219 98.9124 65.3007C98.7479 65.5794 98.7006 65.912 98.781 66.2256C98.8238 66.3902 98.8995 66.5446 99.0036 66.6792Z" fill="#FFB573"/>
    <path d="M105.379 56.7923C105.887 58.0859 107.353 57.9137 108.437 59.2661C109.105 60.1061 110.415 57.5147 108.63 56.4941C106.845 55.4735 104.581 54.7679 105.379 56.7923Z" fill="#263238"/>
    <path d="M103.833 62.2523C103.871 62.2563 103.908 62.2483 103.941 62.2294C103.973 62.2105 103.999 62.1818 104.014 62.1473C104.358 61.3829 105.392 61.1897 105.4 61.1897C105.446 61.1796 105.487 61.1522 105.513 61.1131C105.54 61.0741 105.55 61.0263 105.543 60.9797C105.534 60.9342 105.507 60.894 105.468 60.8681C105.43 60.8421 105.383 60.8324 105.337 60.8411C105.282 60.8411 104.106 61.0889 103.686 62.0129C103.668 62.0559 103.666 62.1045 103.683 62.1483C103.699 62.1922 103.732 62.228 103.775 62.2481H103.833V62.2523Z" fill="#263238"/>
    <path d="M109.293 60.7067C109.324 60.7089 109.355 60.7027 109.382 60.6886C109.41 60.6745 109.433 60.6532 109.449 60.6269C109.462 60.608 109.471 60.5866 109.476 60.564C109.481 60.5414 109.482 60.518 109.477 60.4953C109.473 60.4726 109.464 60.4509 109.451 60.4317C109.438 60.4124 109.422 60.396 109.402 60.3833C109.17 60.2222 108.902 60.1193 108.621 60.0835C108.341 60.0477 108.055 60.0799 107.79 60.1775C107.768 60.1862 107.748 60.1993 107.731 60.216C107.714 60.2328 107.701 60.2528 107.692 60.2749C107.683 60.297 107.679 60.3207 107.68 60.3444C107.681 60.3681 107.687 60.3913 107.697 60.4127C107.716 60.4555 107.75 60.4893 107.794 60.5066C107.837 60.5239 107.885 60.5234 107.928 60.5051C108.137 60.4321 108.36 60.41 108.58 60.4407C108.799 60.4714 109.007 60.554 109.188 60.6815C109.221 60.6974 109.257 60.706 109.293 60.7067Z" fill="#263238"/>
    <path d="M126.56 83.6975L124.098 85.0961L121.541 90.5981C121.541 90.5981 124.01 92.1689 125.959 90.8963C127.908 89.6237 126.56 83.6975 126.56 83.6975Z" fill="#512210"/>
    <path opacity="0.5" d="M126.56 83.6975L124.098 85.0961L121.541 90.5981C121.541 90.5981 124.01 92.1689 125.959 90.8963C127.908 89.6237 126.56 83.6975 126.56 83.6975Z" fill="white"/>
    <path d="M83.5223 85.3986L86.4329 86.2386L89.1923 91.9464C89.1923 91.9464 86.9747 94.0002 84.5723 92.0388C82.7747 90.552 83.5223 85.3986 83.5223 85.3986Z" fill="#512210"/>
    <g opacity="0.5">
        <path d="M83.5223 85.3986L86.4329 86.2386L89.1923 91.9464C89.1923 91.9464 86.9747 94.0002 84.5723 92.0388C82.7747 90.552 83.5223 85.3986 83.5223 85.3986Z" fill="white"/>
    </g>
    <path d="M109.125 62.1306C109.327 62.0928 109.545 62.3196 109.591 62.6304C109.638 62.9412 109.524 63.2268 109.323 63.2604C109.121 63.294 108.903 63.0714 108.856 62.7606C108.81 62.4498 108.924 62.16 109.125 62.1306Z" fill="#263238"/>
    <path d="M109.747 61.824L109.037 62.1726C109.466 62.475 109.747 61.824 109.747 61.824Z" fill="#263238"/>
    <path d="M105.618 62.853C105.82 62.8152 106.038 63.042 106.085 63.3528C106.131 63.6636 106.017 63.9492 105.816 63.9828C105.614 64.0164 105.396 63.7938 105.35 63.483C105.303 63.1722 105.408 62.8908 105.618 62.853Z" fill="#263238"/>
    <path d="M106.232 62.5464L105.522 62.895C105.95 63.1974 106.232 62.5464 106.232 62.5464Z" fill="#263238"/>
    <path d="M87.8358 78.9221C87.4404 78.9244 87.0482 78.8502 86.6808 78.7037C85.3788 78.1703 84.774 76.8179 85.0008 74.9867C85.0082 74.9316 85.037 74.8817 85.0811 74.8478C85.1252 74.814 85.1809 74.799 85.236 74.8061C85.2636 74.8092 85.2902 74.8178 85.3143 74.8314C85.3384 74.845 85.3595 74.8633 85.3764 74.8853C85.3932 74.9073 85.4055 74.9324 85.4124 74.9592C85.4193 74.986 85.4208 75.0139 85.4166 75.0413C85.1982 76.6667 85.7106 77.8595 86.8236 78.3131C87.4696 78.5342 88.169 78.5453 88.8216 78.3446C89.4742 78.1439 90.0465 77.7418 90.4566 77.1959C91.5108 75.7931 91.1664 73.8023 89.5242 71.7359C85.2234 66.3389 85.509 63.4703 86.118 61.2023C87 57.9095 89.583 54.1379 96.891 54.8645C96.9467 54.8701 96.9979 54.8976 97.0334 54.9409C97.0688 54.9842 97.0856 55.0398 97.08 55.0955C97.0745 55.1512 97.047 55.2024 97.0037 55.2379C96.9604 55.2733 96.9047 55.2901 96.849 55.2845C89.8392 54.5873 87.3612 58.1825 86.5212 61.3157C85.9164 63.5837 85.6812 66.2339 89.8518 71.4797C92.3718 74.6423 91.3512 76.7129 90.7926 77.4521C90.4431 77.9049 89.9954 78.2724 89.4832 78.5271C88.9711 78.7817 88.4078 78.9168 87.8358 78.9221Z" fill="#263238"/>
</svg>
