<svg width="19" height="19" viewBox="0 0 19 19" fill="none" xmlns="http://www.w3.org/2000/svg">
    <path d="M18.3103 4.62915L14.1216 0.439461C13.9823 0.300137 13.8169 0.189617 13.6349 0.114213C13.4529 0.03881 13.2578 0 13.0608 0C12.8638 0 12.6687 0.03881 12.4867 0.114213C12.3047 0.189617 12.1393 0.300137 12 0.439461L0.439695 12.0007C0.299801 12.1395 0.188889 12.3047 0.113407 12.4867C0.0379245 12.6688 -0.000621974 12.864 7.58902e-06 13.061V17.2507C7.58902e-06 17.6485 0.158043 18.0301 0.439347 18.3114C0.720652 18.5927 1.10218 18.7507 1.50001 18.7507H5.6897C5.88675 18.7513 6.08197 18.7128 6.26399 18.6373C6.44602 18.5618 6.61122 18.4509 6.75001 18.311L18.3103 6.75071C18.4496 6.61142 18.5602 6.44604 18.6356 6.26403C18.711 6.08202 18.7498 5.88694 18.7498 5.68993C18.7498 5.49292 18.711 5.29784 18.6356 5.11582C18.5602 4.93381 18.4496 4.76844 18.3103 4.62915ZM1.81032 12.7507L9.75001 4.81102L11.3147 6.37571L3.37501 14.3145L1.81032 12.7507ZM1.50001 14.561L4.1897 17.2507H1.50001V14.561ZM6.00001 16.9404L4.43532 15.3757L12.375 7.43602L13.9397 9.00071L6.00001 16.9404ZM15 7.9404L10.8103 3.75071L13.0603 1.50071L17.25 5.68946L15 7.9404Z" fill="white"/>
</svg>
