<svg width="24" height="24" viewBox="0 0 24 24" fill="black" xmlns="http://www.w3.org/2000/svg">
    <path d="M21.6484 19.875C20.2206 17.4065 18.0203 15.6365 15.4525 14.7975C16.7226 14.0414 17.7094 12.8892 18.2614 11.5179C18.8134 10.1467 18.8999 8.63211 18.5078 7.20688C18.1157 5.78165 17.2666 4.52454 16.0909 3.6286C14.9151 2.73266 13.4778 2.24744 11.9996 2.24744C10.5215 2.24744 9.08414 2.73266 7.90842 3.6286C6.73269 4.52454 5.88358 5.78165 5.49146 7.20688C5.09935 8.63211 5.18592 10.1467 5.73788 11.5179C6.28984 12.8892 7.27668 14.0414 8.54683 14.7975C5.97902 15.6356 3.77871 17.4056 2.35089 19.875C2.29853 19.9604 2.2638 20.0554 2.24875 20.1544C2.2337 20.2534 2.23863 20.3544 2.26326 20.4515C2.28789 20.5486 2.33171 20.6397 2.39214 20.7196C2.45257 20.7995 2.52838 20.8664 2.6151 20.9165C2.70183 20.9666 2.79771 20.9988 2.89709 21.0113C2.99647 21.0237 3.09733 21.0161 3.19373 20.989C3.29012 20.9618 3.3801 20.9156 3.45835 20.8531C3.5366 20.7906 3.60154 20.713 3.64933 20.625C5.41558 17.5725 8.53746 15.75 11.9996 15.75C15.4618 15.75 18.5837 17.5725 20.35 20.625C20.3977 20.713 20.4627 20.7906 20.5409 20.8531C20.6192 20.9156 20.7092 20.9618 20.8056 20.989C20.902 21.0161 21.0028 21.0237 21.1022 21.0113C21.2016 20.9988 21.2975 20.9666 21.3842 20.9165C21.4709 20.8664 21.5467 20.7995 21.6072 20.7196C21.6676 20.6397 21.7114 20.5486 21.736 20.4515C21.7607 20.3544 21.7656 20.2534 21.7505 20.1544C21.7355 20.0554 21.7008 19.9604 21.6484 19.875ZM6.74964 8.99999C6.74964 7.96164 7.05755 6.9466 7.63443 6.08324C8.21131 5.21989 9.03124 4.54698 9.99056 4.14962C10.9499 3.75226 12.0055 3.64829 13.0239 3.85086C14.0423 4.05344 14.9777 4.55345 15.712 5.28768C16.4462 6.0219 16.9462 6.95736 17.1488 7.97576C17.3513 8.99416 17.2474 10.0498 16.85 11.0091C16.4527 11.9684 15.7797 12.7883 14.9164 13.3652C14.053 13.9421 13.038 14.25 11.9996 14.25C10.6077 14.2485 9.27322 13.6949 8.28898 12.7107C7.30473 11.7264 6.75113 10.3919 6.74964 8.99999Z" fill="black"/>
    <defs>
        <clipPath id="clip0_5_4723">
            <rect width="257" height="257" fill="black" transform="translate(0.198242)"/>
        </clipPath>
    </defs>
</svg>
