<svg width="395" height="395" viewBox="0 0 395 395" fill="none" xmlns="http://www.w3.org/2000/svg">
    <path d="M203.164 339.534C300.556 339.534 379.508 297.356 379.508 245.327C379.508 193.297 300.556 151.119 203.164 151.119C105.772 151.119 26.8206 193.297 26.8206 245.327C26.8206 297.356 105.772 339.534 203.164 339.534Z" fill="#F5F5F5"/>
    <path d="M132.199 297.767L75.9744 265.077L171.075 210.116L132.199 297.767Z" fill="#E0E0E0"/>
    <path d="M51.0419 263.07L73.9519 276.279C74.428 276.52 74.9545 276.646 75.4884 276.646C76.0223 276.646 76.5488 276.52 77.025 276.279L108.625 257.84C108.811 257.779 108.973 257.66 109.087 257.501C109.202 257.342 109.264 257.151 109.264 256.955C109.264 256.76 109.202 256.569 109.087 256.41C108.973 256.251 108.811 256.132 108.625 256.071L85.715 242.854C85.2388 242.612 84.7123 242.487 84.1784 242.487C83.6445 242.487 83.118 242.612 82.6419 242.854L51.0419 261.293C50.8569 261.356 50.6964 261.476 50.5828 261.636C50.4692 261.795 50.4082 261.986 50.4082 262.181C50.4082 262.377 50.4692 262.568 50.5828 262.727C50.6964 262.886 50.8569 263.006 51.0419 263.07Z" fill="#E0E0E0"/>
    <path d="M53.5225 261.016C51.9425 258.472 47.0682 255.676 40.6692 254.293C34.2702 252.911 27.8396 251.22 29.309 247.483C30.889 243.478 36.8456 243.281 42.6679 245.666C49.0274 248.273 53.7279 254.72 53.8148 258.78L53.5225 261.016Z" fill="#512210"/>
    <g opacity="0.1">
        <path d="M53.5225 261.016C51.9425 258.472 47.0682 255.676 40.6692 254.293C34.2702 252.911 27.8396 251.22 29.309 247.483C30.889 243.478 36.8456 243.281 42.6679 245.666C49.0274 248.273 53.7279 254.72 53.8148 258.78L53.5225 261.016Z" fill="black"/>
    </g>
    <path d="M54.0201 259.863C53.9301 259.862 53.8422 259.835 53.7666 259.786C53.6911 259.737 53.6311 259.668 53.5935 259.586C48.5138 249.079 36.7349 247.381 33.0535 247.957C32.9279 247.975 32.8002 247.943 32.6982 247.868C32.5961 247.792 32.5279 247.68 32.5084 247.554C32.4983 247.493 32.5005 247.429 32.5149 247.369C32.5293 247.308 32.5557 247.25 32.5924 247.2C32.6291 247.149 32.6755 247.106 32.7289 247.073C32.7823 247.041 32.8416 247.019 32.9034 247.009C36.806 246.409 49.1695 248.171 54.4862 259.175C54.5409 259.29 54.5484 259.421 54.507 259.541C54.4656 259.66 54.3786 259.759 54.2651 259.815C54.1885 259.851 54.1044 259.867 54.0201 259.863Z" fill="white"/>
    <path d="M53.5225 261.016C53.5225 261.016 50.4652 248.905 42.7153 242.396C40.4164 240.46 37.9753 238.035 36.2452 236.368C32.5638 232.781 34.1043 228.871 39.1998 228.95C46.7838 229.053 52.3296 235.436 54.7312 243.786C57.1328 252.136 53.5225 261.016 53.5225 261.016Z" fill="#512210"/>
    <path d="M54.7311 256.316C54.6111 256.316 54.4952 256.272 54.4061 256.192C54.317 256.111 54.261 256 54.2492 255.881C52.8272 240.476 41.072 232.734 37.8725 231.912C37.7499 231.881 37.6449 231.802 37.5804 231.693C37.516 231.584 37.4974 231.454 37.5289 231.332C37.5603 231.209 37.6391 231.104 37.748 231.04C37.8569 230.975 37.9869 230.957 38.1095 230.988C41.9963 231.984 53.7436 240.018 55.2051 255.794C55.2161 255.921 55.1766 256.047 55.0952 256.144C55.0138 256.242 54.8972 256.304 54.7706 256.316H54.7311Z" fill="white"/>
    <path d="M74.7262 274.335L53.1434 261.869L53.1355 215.575L74.7262 228.041V274.335Z" fill="#263238"/>
    <path d="M74.7261 228.041L105.568 210.235V256.529L74.7261 274.335V228.041Z" fill="#37474F"/>
    <path d="M105.568 210.235L74.7262 228.041L53.1355 215.575L83.985 197.769L105.568 210.235Z" fill="#455A64"/>
    <path d="M88.0534 227.473L92.2483 225.047C92.7934 224.731 93.2358 224.874 93.2358 225.371C93.1958 225.674 93.0856 225.963 92.9142 226.215C92.7427 226.467 92.5147 226.676 92.2483 226.825L88.0534 229.25C87.5083 229.566 87.0659 229.424 87.0659 228.926C87.106 228.624 87.2161 228.335 87.3876 228.083C87.559 227.83 87.787 227.621 88.0534 227.473Z" fill="#263238"/>
    <path d="M77.2463 251.52L101.918 237.277L102.487 237.6L101.918 254.42L102.487 254.751L77.8151 268.995L77.2463 268.663V251.52Z" fill="#263238"/>
    <path d="M77.8152 251.844L102.487 237.6V254.751L77.8152 268.995V251.844Z" fill="#455A64"/>
    <path d="M87.4848 249.166L91.6797 246.749C92.2248 246.433 92.6672 246.575 92.6672 247.065C92.6277 247.368 92.5179 247.659 92.3465 247.912C92.175 248.166 91.9467 248.376 91.6797 248.526L87.4848 250.951C86.9397 251.267 86.4973 251.117 86.4973 250.628C86.538 250.324 86.6483 250.034 86.8196 249.781C86.9909 249.527 87.2186 249.317 87.4848 249.166Z" fill="#263238"/>
    <path d="M77.2463 230.19L101.918 215.947L102.487 216.27L101.918 233.09L102.487 233.421L77.8151 247.665L77.2463 247.333V230.19Z" fill="#263238"/>
    <path d="M77.8152 230.514L102.487 216.27V233.421L77.8152 247.665V230.514Z" fill="#455A64"/>
    <path d="M87.4848 227.836L91.6797 225.419C92.2248 225.103 92.6672 225.245 92.6672 225.735C92.6277 226.038 92.5179 226.329 92.3465 226.582C92.175 226.836 91.9467 227.046 91.6797 227.196L87.4848 229.621C86.9397 229.937 86.4973 229.787 86.4973 229.298C86.538 228.994 86.6483 228.704 86.8196 228.451C86.9909 228.197 87.2186 227.987 87.4848 227.836Z" fill="#263238"/>
    <path d="M74.7262 226.074L53.1434 213.608L53.1355 167.306L74.7262 179.772V226.074Z" fill="#263238"/>
    <path d="M74.7261 179.772L105.568 161.966V208.268L74.7261 226.074V179.772Z" fill="#37474F"/>
    <path d="M105.568 161.966L74.7262 179.772L53.1355 167.306L83.985 149.5L105.568 161.966Z" fill="#455A64"/>
    <path d="M77.8152 181.55L102.487 167.306L103.056 167.638V184.781L78.384 199.033L77.8152 198.701V181.55Z" fill="#263238"/>
    <path d="M88.0534 179.204L92.2483 176.778C92.7934 176.462 93.2358 176.612 93.2358 177.102C93.1951 177.406 93.0848 177.695 92.9135 177.949C92.7422 178.202 92.5145 178.413 92.2483 178.564L88.0534 180.981C87.5083 181.297 87.0659 181.155 87.0659 180.665C87.1054 180.361 87.2152 180.071 87.3867 179.818C87.5581 179.564 87.7864 179.354 88.0534 179.204Z" fill="#263238"/>
    <path d="M77.2463 203.251L101.918 189.008V206.158L102.487 206.482L77.8151 220.726L77.2463 220.402V203.251Z" fill="#263238"/>
    <path d="M77.8152 203.583L102.487 189.331V206.482L77.8152 220.726V203.583Z" fill="#455A64"/>
    <path d="M87.4846 200.905L91.6795 198.48C92.2246 198.164 92.667 198.306 92.667 198.804C92.6269 199.106 92.5168 199.395 92.3453 199.647C92.1739 199.9 91.9459 200.108 91.6795 200.257L87.4846 202.682C86.9395 202.998 86.4971 202.856 86.4971 202.359C86.5371 202.056 86.6473 201.767 86.8187 201.515C86.9901 201.262 87.2182 201.054 87.4846 200.905Z" fill="#263238"/>
    <path d="M77.8152 181.55L102.487 167.306V184.457L77.8152 198.701V181.55Z" fill="#263238"/>
    <path d="M114.827 175.775L101.318 167.986V183.09L114.827 190.888V175.775Z" fill="#263238"/>
    <path d="M87.0659 201.142V179.772L92.3589 176.707L93.2358 177.995L108.657 169.084V188.676L87.0659 201.142Z" fill="#512210"/>
    <g opacity="0.2">
        <path d="M87.0659 201.142V179.772L92.3589 176.707L93.2358 177.995L108.657 169.084V188.676L87.0659 201.142Z" fill="black"/>
    </g>
    <path d="M87.0659 201.142L88.6064 182.443L110.197 169.976L108.657 188.676L87.0659 201.142Z" fill="#512210"/>
    <path d="M90.147 190.027L78.376 183.233V198.337L90.147 205.131V190.027Z" fill="#37474F"/>
    <path d="M90.147 188.676L114.827 174.432V191.575L90.147 205.827V188.676Z" fill="#455A64"/>
    <path d="M99.8244 185.998L104.019 183.572C104.564 183.256 105.007 183.406 105.007 183.896C104.966 184.2 104.856 184.489 104.685 184.743C104.513 184.996 104.286 185.207 104.019 185.358L99.8244 187.775C99.2793 188.091 98.8369 187.949 98.8369 187.459C98.8776 187.156 98.9879 186.866 99.1592 186.613C99.3305 186.359 99.5582 186.149 99.8244 185.998Z" fill="#263238"/>
    <path d="M90.147 188.676L89.3254 188.202V205.353L90.147 205.827V188.676Z" fill="#263238"/>
    <path d="M89.3254 188.202L114.005 173.958L114.827 174.432L90.147 188.676L89.3254 188.202Z" fill="#37474F"/>
    <path d="M296.25 65.017L293.043 63.1526L129.363 157.637V294.488C129.319 294.912 129.388 295.34 129.563 295.728C129.738 296.117 130.012 296.452 130.358 296.7L133.565 298.565C133.954 298.743 134.384 298.816 134.81 298.774C135.236 298.732 135.644 298.578 135.991 298.328L292.806 207.77C293.801 207.12 294.629 206.245 295.224 205.216C295.818 204.187 296.162 203.032 296.226 201.845L296.25 65.017Z" fill="#E6E6E6"/>
    <path d="M132.57 296.353C132.57 298.533 134.095 299.418 135.991 298.328L292.806 207.77C293.801 207.12 294.63 206.245 295.224 205.216C295.818 204.187 296.162 203.032 296.226 201.845V65.017L132.57 159.509V296.353Z" fill="#FAFAFA"/>
    <path d="M295.46 66.36V201.861C295.395 202.909 295.088 203.929 294.563 204.839C294.038 205.749 293.31 206.525 292.434 207.106L135.619 297.64C135.278 297.857 134.886 297.982 134.482 298.004C133.486 298.004 133.384 296.85 133.384 296.353V159.959L295.46 66.36ZM296.25 64.9933L132.57 159.509V296.353C132.57 297.933 133.36 298.794 134.458 298.794C135.001 298.773 135.528 298.612 135.991 298.328L292.806 207.77C293.801 207.12 294.63 206.245 295.224 205.216C295.818 204.187 296.162 203.032 296.226 201.845V65.017L296.25 64.9933Z" fill="#E0E0E0"/>
    <path d="M132.57 159.509V174.321L296.226 79.8295V65.017L132.57 159.509Z" fill="#512210"/>
    <path d="M235.254 106.026V109.186C235.254 109.834 235.72 110.102 236.281 109.778L286.596 80.7222V75.1922L236.281 104.28C235.988 104.473 235.742 104.731 235.564 105.033C235.386 105.336 235.28 105.676 235.254 106.026Z" fill="#FAFAFA"/>
    <path d="M291.992 72.0875C292.561 71.7557 293.019 72.0243 293.019 72.68V75.84C293 76.1963 292.897 76.5431 292.719 76.8521C292.54 77.161 292.291 77.4233 291.992 77.6175L286.596 80.7301V75.2001L291.992 72.0875Z" fill="#455A64"/>
    <path d="M291.597 76.4562L290.989 76.2666C291.056 76.0085 291.09 75.7431 291.091 75.4766C291.118 75.2336 291.082 74.9877 290.985 74.7633C290.888 74.5389 290.734 74.3436 290.538 74.1968C290.406 74.1182 290.254 74.0768 290.1 74.0768C289.946 74.0768 289.794 74.1182 289.662 74.1968C289.279 74.4906 288.971 74.8705 288.762 75.3055C288.553 75.7406 288.45 76.2187 288.461 76.7011C288.432 76.9442 288.468 77.1906 288.565 77.4153C288.662 77.64 288.817 77.8351 289.014 77.9809C289.128 78.0504 289.259 78.0861 289.393 78.0836C289.566 78.0799 289.735 78.0308 289.883 77.9414C290.343 77.6275 290.685 77.1686 290.854 76.6379L291.463 76.8275H291.51C291.557 76.8283 291.603 76.8142 291.641 76.7872C291.68 76.7602 291.708 76.7218 291.723 76.6774C291.727 76.6321 291.716 76.587 291.694 76.5476C291.671 76.5082 291.638 76.4764 291.597 76.4562ZM289.662 77.6096C289.601 77.6556 289.529 77.6837 289.454 77.6907C289.378 77.6977 289.303 77.6833 289.235 77.6491C289.113 77.5377 289.019 77.3983 288.963 77.2427C288.906 77.0872 288.888 76.9203 288.911 76.7564C288.903 76.3531 288.986 75.9532 289.155 75.5866C289.323 75.22 289.572 74.8961 289.883 74.6392C289.966 74.5875 290.061 74.5576 290.159 74.5523C290.215 74.5521 290.27 74.5686 290.317 74.5997C290.438 74.7122 290.53 74.8518 290.587 75.007C290.643 75.1622 290.662 75.3286 290.641 75.4924C290.648 75.8962 290.563 76.2963 290.393 76.6629C290.224 77.0294 289.973 77.353 289.662 77.6096Z" fill="#FAFAFA"/>
    <path d="M292.047 53.7911C291.658 53.6004 291.224 53.5202 290.792 53.5592C290.36 53.5982 289.947 53.7549 289.598 54.0123L132.783 144.57C131.787 145.218 130.957 146.093 130.363 147.122C129.768 148.152 129.426 149.308 129.363 150.495V157.66L132.57 159.533L296.25 65.017V57.8517C296.298 57.4295 296.232 57.0022 296.058 56.6144C295.885 56.2266 295.61 55.8927 295.263 55.6476C294.67 55.3 292.608 54.1308 292.047 53.7911Z" fill="#263238"/>
    <path d="M132.57 152.344C132.632 151.156 132.974 150 133.569 148.97C134.163 147.94 134.993 147.066 135.991 146.419L292.806 55.8767C294.694 54.7865 296.226 55.6713 296.226 57.8517V65.017L132.57 159.509V152.344Z" fill="#37474F"/>
    <path d="M295.271 55.6634C294.88 55.4685 294.443 55.3853 294.008 55.4229C293.573 55.4605 293.157 55.6176 292.806 55.8767L135.991 146.411C134.98 147.041 134.148 147.919 133.573 148.962L130.35 147.106C130.928 146.06 131.762 145.179 132.775 144.546L289.598 54.0044C289.948 53.7483 290.361 53.593 290.793 53.5554C291.225 53.5178 291.659 53.5993 292.047 53.7911C292.608 54.1308 294.662 55.3079 295.207 55.6397L295.271 55.6634Z" fill="#455A64"/>
    <path d="M276.974 68.73C276.511 69.0374 276.127 69.4492 275.853 69.9322C275.578 70.4152 275.421 70.9559 275.394 71.5108C275.394 72.5299 276.113 72.9486 276.974 72.4351C277.437 72.1277 277.821 71.7159 278.095 71.2329C278.37 70.7499 278.527 70.2092 278.554 69.6543C278.578 68.6194 277.859 68.2007 276.974 68.73Z" fill="#512210"/>
    <path d="M282.591 65.4831C282.128 65.7888 281.744 66.1991 281.47 66.6809C281.195 67.1626 281.038 67.7022 281.011 68.256C281.011 69.283 281.73 69.6938 282.591 69.1882C283.053 68.8799 283.436 68.4679 283.711 67.985C283.985 67.5022 284.143 66.962 284.171 66.4074C284.195 65.3804 283.476 64.9696 282.591 65.4831Z" fill="#512210"/>
    <path d="M288.2 62.2441C287.737 62.5515 287.353 62.9633 287.079 63.4463C286.804 63.9293 286.647 64.47 286.62 65.0249C286.62 66.0519 287.339 66.4627 288.2 65.9492C288.664 65.6431 289.049 65.2317 289.324 64.7484C289.598 64.2651 289.755 63.7236 289.78 63.1684C289.811 62.1493 289.093 61.7306 288.2 62.2441Z" fill="#512210"/>
    <path d="M135.991 298.328L164.66 281.777V155.788L132.57 174.321V296.353C132.57 298.533 134.095 299.41 135.991 298.328Z" fill="#F5F5F5"/>
    <path d="M163.87 157.155V281.319L135.596 297.64C135.254 297.857 134.862 297.982 134.458 298.004C133.463 298.004 133.36 296.85 133.36 296.353V174.772L163.87 157.155ZM164.66 155.788L132.57 174.321V296.353C132.57 297.933 133.36 298.794 134.458 298.794C135.001 298.773 135.528 298.612 135.991 298.328L164.66 281.777V155.788Z" fill="#E0E0E0"/>
    <path d="M143.219 175.577L158.577 166.69C159.138 166.358 159.596 166.627 159.596 167.282V168.618C159.576 168.973 159.474 169.318 159.297 169.627C159.12 169.936 158.873 170.199 158.577 170.395L143.219 179.267C142.65 179.599 142.192 179.33 142.192 178.674V177.355C142.213 176.999 142.317 176.653 142.495 176.345C142.674 176.036 142.921 175.773 143.219 175.577Z" fill="#E0E0E0"/>
    <path d="M138.985 179.211V180.547C138.965 180.903 138.862 181.249 138.684 181.558C138.505 181.867 138.257 182.129 137.958 182.324L136.804 182.988C136.236 183.319 135.777 183.051 135.777 182.395V181.06C135.797 180.704 135.9 180.357 136.078 180.048C136.257 179.74 136.505 179.477 136.804 179.283L137.958 178.619C138.527 178.287 138.985 178.54 138.985 179.211Z" fill="#512210"/>
    <path d="M143.219 182.964L158.577 174.092C159.138 173.76 159.596 174.029 159.596 174.677V176.012C159.576 176.368 159.474 176.715 159.297 177.025C159.12 177.335 158.874 177.599 158.577 177.797L143.219 186.669C142.65 186.993 142.192 186.732 142.192 186.077V184.742C142.212 184.385 142.315 184.039 142.494 183.73C142.672 183.422 142.921 183.159 143.219 182.964Z" fill="#E0E0E0"/>
    <path d="M138.985 186.59V187.925C138.966 188.282 138.863 188.628 138.685 188.937C138.506 189.246 138.257 189.509 137.958 189.703L136.804 190.374C136.236 190.698 135.777 190.437 135.777 189.782V188.447C135.796 188.09 135.899 187.743 136.077 187.434C136.256 187.126 136.505 186.863 136.804 186.669L137.958 185.998C138.527 185.65 138.985 185.934 138.985 186.59Z" fill="#512210"/>
    <path d="M143.219 190.343L158.577 181.471C159.138 181.147 159.596 181.408 159.596 182.063V183.398C159.577 183.754 159.476 184.1 159.299 184.409C159.121 184.718 158.874 184.98 158.577 185.176L143.219 194.048C142.65 194.379 142.192 194.111 142.192 193.463V192.12C142.214 191.764 142.318 191.419 142.496 191.11C142.674 190.802 142.922 190.539 143.219 190.343Z" fill="#E0E0E0"/>
    <path d="M138.985 193.977V195.312C138.966 195.668 138.863 196.015 138.685 196.324C138.506 196.633 138.257 196.895 137.958 197.089L136.804 197.761C136.236 198.085 135.777 197.816 135.777 197.168V195.825C135.798 195.469 135.901 195.123 136.08 194.815C136.258 194.506 136.506 194.243 136.804 194.048L137.958 193.384C138.527 193.06 138.985 193.321 138.985 193.977Z" fill="#512210"/>
    <path d="M143.219 214.833L158.577 205.953C159.138 205.629 159.596 205.89 159.596 206.546V207.881C159.577 208.236 159.476 208.582 159.299 208.891C159.121 209.2 158.874 209.463 158.577 209.658L143.219 218.538C142.65 218.862 142.192 218.601 142.192 217.945V216.61C142.212 216.254 142.315 215.908 142.494 215.599C142.672 215.29 142.921 215.028 143.219 214.833Z" fill="#E0E0E0"/>
    <path d="M138.985 218.459V219.794C138.966 220.15 138.863 220.497 138.685 220.806C138.506 221.115 138.257 221.377 137.958 221.571L136.804 222.243C136.236 222.567 135.777 222.306 135.777 221.65V220.315C135.796 219.959 135.899 219.612 136.077 219.303C136.256 218.994 136.505 218.732 136.804 218.538L137.958 217.866C138.527 217.542 138.985 217.803 138.985 218.459Z" fill="#512210"/>
    <path d="M143.219 221.366L158.577 212.51C159.138 212.186 159.596 212.447 159.596 213.103V214.438C159.577 214.793 159.476 215.139 159.299 215.448C159.121 215.757 158.874 216.02 158.577 216.215L143.219 225.071C142.65 225.403 142.192 225.134 142.192 224.479V223.143C142.214 222.788 142.318 222.442 142.496 222.134C142.674 221.825 142.922 221.562 143.219 221.366Z" fill="#E0E0E0"/>
    <path d="M138.985 225V226.335C138.966 226.691 138.863 227.038 138.685 227.347C138.506 227.656 138.257 227.918 137.958 228.112L136.804 228.776C136.236 229.108 135.777 228.839 135.777 228.184V226.848C135.798 226.493 135.901 226.146 136.08 225.838C136.258 225.529 136.506 225.266 136.804 225.071L137.958 224.407C138.527 224.083 138.985 224.36 138.985 225Z" fill="#512210"/>
    <path d="M143.219 227.907L158.577 219.035C159.138 218.704 159.596 218.972 159.596 219.628V220.963C159.576 221.318 159.474 221.664 159.297 221.972C159.12 222.281 158.873 222.544 158.577 222.74L143.219 231.612C142.65 231.944 142.192 231.675 142.192 231.02V229.685C142.213 229.329 142.317 228.983 142.495 228.674C142.674 228.366 142.921 228.103 143.219 227.907Z" fill="#E0E0E0"/>
    <path d="M138.985 231.541V232.876C138.965 233.232 138.862 233.579 138.684 233.888C138.505 234.197 138.257 234.459 137.958 234.654L136.804 235.317C136.236 235.649 135.777 235.381 135.777 234.725V233.39C135.797 233.034 135.9 232.687 136.078 232.378C136.257 232.069 136.505 231.807 136.804 231.612L137.958 230.949C138.527 230.617 138.985 230.885 138.985 231.541Z" fill="#512210"/>
    <path d="M142.192 198.408V200.707L144.191 198.408H142.192Z" fill="#512210"/>
    <path d="M145.407 197.927C145.407 198.361 145.708 198.527 146.087 198.306L158.916 190.927C159.115 190.797 159.28 190.622 159.398 190.416C159.516 190.21 159.584 189.979 159.596 189.742C159.596 189.308 159.296 189.134 158.916 189.355L146.087 196.757C145.89 196.885 145.725 197.058 145.607 197.261C145.489 197.464 145.421 197.692 145.407 197.927Z" fill="#E0E0E0"/>
    <path d="M142.192 202.106V204.413L144.191 202.106H142.192Z" fill="#512210"/>
    <path d="M145.407 201.632C145.407 202.058 145.708 202.232 146.087 202.011L158.916 194.624C159.115 194.496 159.281 194.323 159.399 194.118C159.517 193.913 159.584 193.683 159.596 193.447C159.596 193.013 159.296 192.839 158.916 193.06L146.087 200.462C145.89 200.59 145.725 200.763 145.607 200.966C145.489 201.169 145.421 201.397 145.407 201.632Z" fill="#E0E0E0"/>
    <path d="M142.192 205.811V208.118L144.191 205.811H142.192Z" fill="#512210"/>
    <path d="M145.407 205.337C145.407 205.763 145.708 205.937 146.087 205.716L158.916 198.329C159.115 198.201 159.281 198.028 159.399 197.823C159.517 197.618 159.584 197.388 159.596 197.152C159.596 196.718 159.296 196.544 158.916 196.765L146.087 204.168C145.89 204.295 145.725 204.468 145.607 204.671C145.489 204.874 145.421 205.102 145.407 205.337Z" fill="#E0E0E0"/>
    <path d="M142.192 209.516V211.823L144.191 209.516H142.192Z" fill="#512210"/>
    <path d="M145.407 209.042C145.407 209.468 145.708 209.642 146.087 209.421L158.916 202.035C159.115 201.907 159.281 201.733 159.399 201.528C159.517 201.324 159.584 201.094 159.596 200.857C159.596 200.423 159.296 200.249 158.916 200.47L146.087 207.873C145.89 208 145.725 208.173 145.607 208.376C145.489 208.579 145.421 208.807 145.407 209.042Z" fill="#E0E0E0"/>
    <path d="M174.282 160.204V179.512C174.282 180.302 174.851 180.649 175.554 180.246L196.781 167.986C197.152 167.746 197.46 167.422 197.681 167.041C197.903 166.659 198.03 166.23 198.053 165.789V149.918C198.053 149.128 197.484 148.781 196.781 149.184L184.465 156.294C183.762 156.696 183.193 156.373 183.193 155.567V155.061C183.193 154.271 182.632 153.924 181.929 154.326L175.554 158C175.184 158.242 174.875 158.567 174.654 158.95C174.433 159.333 174.306 159.763 174.282 160.204Z" fill="#512210"/>
    <path d="M178.461 183.154V184.394C178.461 184.994 178.888 185.239 179.409 184.939L195.336 175.743C195.612 175.563 195.842 175.321 196.006 175.035C196.171 174.75 196.266 174.429 196.284 174.1V172.86C196.284 172.259 195.857 172.015 195.336 172.315L179.409 181.51C179.133 181.69 178.903 181.933 178.738 182.218C178.574 182.504 178.479 182.824 178.461 183.154Z" fill="#E0E0E0"/>
    <path d="M203.82 143.259V162.566C203.82 163.356 204.389 163.696 205.084 163.293L226.311 151.04C226.681 150.799 226.988 150.475 227.209 150.094C227.43 149.712 227.558 149.284 227.583 148.844V132.965C227.583 132.175 227.014 131.827 226.311 132.23L213.995 139.34C213.292 139.743 212.731 139.411 212.731 138.605V138.1C212.731 137.31 212.162 136.97 211.459 137.373L205.084 141.054C204.715 141.296 204.408 141.622 204.188 142.005C203.968 142.388 203.842 142.818 203.82 143.259Z" fill="#512210"/>
    <path d="M207.976 166.208V167.48C207.976 168.088 208.402 168.333 208.924 168.033L224.85 158.79C225.126 158.608 225.355 158.364 225.52 158.077C225.685 157.79 225.78 157.469 225.798 157.139V155.906C225.798 155.298 225.371 155.053 224.85 155.361L208.924 164.557C208.648 164.739 208.418 164.983 208.254 165.27C208.089 165.557 207.994 165.878 207.976 166.208Z" fill="#E0E0E0"/>
    <path d="M174.282 198.993V218.301C174.282 219.091 174.851 219.438 175.554 219.035L196.781 206.775C197.147 206.537 197.452 206.218 197.673 205.843C197.894 205.467 198.024 205.045 198.053 204.61V188.731C198.053 187.941 197.484 187.601 196.781 188.004L184.465 195.114C183.762 195.517 183.193 195.193 183.193 194.387V193.882C183.193 193.092 182.632 192.744 181.929 193.147L175.554 196.828C175.188 197.066 174.883 197.385 174.662 197.76C174.441 198.136 174.311 198.558 174.282 198.993Z" fill="#512210"/>
    <path d="M178.461 221.943V223.183C178.461 223.783 178.888 224.028 179.409 223.728L195.336 214.532C195.611 214.352 195.84 214.109 196.005 213.823C196.169 213.538 196.265 213.218 196.284 212.889V211.649C196.284 211.048 195.857 210.804 195.336 211.104L179.409 220.299C179.133 220.479 178.903 220.722 178.738 221.007C178.574 221.293 178.479 221.613 178.461 221.943Z" fill="#E0E0E0"/>
    <path d="M203.82 182.04V201.347C203.82 202.137 204.389 202.485 205.084 202.082L226.311 189.821C226.681 189.583 226.989 189.26 227.21 188.88C227.431 188.499 227.559 188.072 227.583 187.633V171.754C227.583 170.964 227.014 170.616 226.311 171.019L213.995 178.129C213.292 178.532 212.731 178.2 212.731 177.395V176.889C212.731 176.099 212.162 175.751 211.459 176.162L205.084 179.843C204.715 180.084 204.409 180.409 204.189 180.79C203.969 181.172 203.843 181.6 203.82 182.04Z" fill="#512210"/>
    <path d="M207.976 204.997V206.229C207.976 206.838 208.402 207.083 208.924 206.775L224.85 197.587C225.126 197.405 225.355 197.161 225.52 196.874C225.685 196.587 225.78 196.266 225.798 195.936V194.703C225.798 194.095 225.371 193.85 224.85 194.15L208.924 203.346C208.648 203.528 208.418 203.772 208.254 204.059C208.089 204.346 207.994 204.667 207.976 204.997Z" fill="#E0E0E0"/>
    <path d="M233.666 125.373V144.681C233.666 145.471 234.235 145.818 234.93 145.415L256.165 133.154C256.534 132.913 256.84 132.589 257.06 132.207C257.279 131.826 257.406 131.398 257.429 130.958V115.087C257.429 114.297 256.861 113.95 256.165 114.352L243.841 121.462C243.146 121.873 242.577 121.541 242.577 120.736V120.23C242.577 119.44 242.009 119.092 241.306 119.495L234.93 123.185C234.563 123.425 234.257 123.748 234.037 124.128C233.817 124.508 233.69 124.935 233.666 125.373Z" fill="#512210"/>
    <path d="M237.49 149.255V150.495C237.49 151.095 237.917 151.34 238.446 151.04L254.38 141.845C254.658 141.666 254.89 141.424 255.056 141.138C255.222 140.852 255.318 140.531 255.336 140.201V138.969C255.336 138.361 254.909 138.116 254.38 138.416L238.462 147.612C238.181 147.788 237.946 148.03 237.777 148.315C237.608 148.601 237.509 148.923 237.49 149.255Z" fill="#E0E0E0"/>
    <path d="M262.833 109.36V128.667C262.833 129.457 263.402 129.797 264.105 129.394L285.332 117.141C285.7 116.9 286.007 116.576 286.226 116.194C286.446 115.812 286.573 115.385 286.596 114.945V99.066C286.596 98.276 286.035 97.9284 285.332 98.3313L273.016 105.441C272.313 105.844 271.744 105.512 271.744 104.707V104.201C271.744 103.411 271.183 103.071 270.48 103.474L264.105 107.156C263.733 107.396 263.424 107.721 263.203 108.104C262.982 108.487 262.855 108.918 262.833 109.36Z" fill="#512210"/>
    <path d="M267.02 132.309V133.51C267.02 134.118 267.439 134.363 267.968 134.063L283.894 124.867C284.169 124.686 284.398 124.443 284.563 124.158C284.727 123.873 284.823 123.553 284.842 123.224V121.984C284.842 121.376 284.416 121.131 283.894 121.439L267.968 130.626C267.687 130.811 267.454 131.06 267.289 131.352C267.124 131.645 267.032 131.973 267.02 132.309Z" fill="#E0E0E0"/>
    <path d="M237.49 188.02V189.26C237.49 189.861 237.917 190.106 238.446 189.805L254.38 180.618C254.658 180.439 254.89 180.197 255.056 179.911C255.222 179.626 255.318 179.305 255.336 178.974V177.75C255.336 177.15 254.909 176.905 254.38 177.205L238.462 186.4C238.184 186.575 237.951 186.813 237.782 187.094C237.613 187.375 237.513 187.693 237.49 188.02Z" fill="#E0E0E0"/>
    <path d="M237.893 160.891L254.38 151.356C255.131 150.922 255.747 151.277 255.747 152.146V171.217C255.721 171.691 255.584 172.153 255.347 172.565C255.109 172.977 254.778 173.327 254.38 173.587L237.893 183.122C237.103 183.557 236.526 183.209 236.526 182.332V163.261C236.552 162.787 236.69 162.325 236.927 161.914C237.165 161.502 237.495 161.152 237.893 160.891Z" fill="#FAFAFA"/>
    <path d="M237.277 183.707C237.083 183.708 236.892 183.659 236.724 183.564C236.524 183.431 236.363 183.246 236.259 183.029C236.155 182.812 236.111 182.572 236.131 182.332V163.261C236.159 162.716 236.317 162.186 236.591 161.714C236.866 161.243 237.25 160.844 237.711 160.552L254.23 151.016C254.427 150.879 254.657 150.798 254.896 150.781C255.136 150.765 255.375 150.813 255.589 150.922C255.789 151.054 255.949 151.237 256.055 151.452C256.16 151.668 256.207 151.907 256.189 152.146V171.217C256.162 171.762 256.004 172.292 255.729 172.764C255.454 173.235 255.07 173.634 254.609 173.926L238.09 183.47C237.844 183.618 237.564 183.7 237.277 183.707ZM255.02 151.569C254.873 151.575 254.731 151.622 254.609 151.704L238.09 161.239C237.752 161.462 237.47 161.761 237.267 162.112C237.064 162.463 236.945 162.857 236.921 163.261V182.332C236.921 182.608 236.992 182.806 237.119 182.877C237.215 182.909 237.318 182.917 237.419 182.9C237.519 182.884 237.614 182.843 237.695 182.782L254.214 173.247C254.552 173.021 254.833 172.72 255.036 172.368C255.239 172.016 255.358 171.622 255.383 171.217V152.146C255.395 152.045 255.383 151.943 255.347 151.848C255.312 151.754 255.254 151.669 255.178 151.601C255.129 151.578 255.075 151.567 255.02 151.569Z" fill="#EBEBEB"/>
    <path d="M256.355 153.931L252.674 156.057C252.274 156.316 251.942 156.665 251.703 157.077C251.464 157.489 251.326 157.951 251.299 158.427V162.677C251.299 163.554 251.915 163.909 252.674 163.467L256.355 161.342C256.753 161.082 257.084 160.732 257.322 160.32C257.559 159.908 257.696 159.446 257.722 158.972V154.721C257.722 153.852 257.106 153.497 256.355 153.931Z" fill="#512210"/>
    <path d="M239.149 162.953L247.428 158.213C247.799 158 248.107 158.174 248.107 158.616V158.877C248.093 159.113 248.025 159.344 247.907 159.549C247.789 159.755 247.625 159.93 247.428 160.062L239.149 164.802C238.77 165.023 238.461 164.849 238.469 164.407V164.138C238.481 163.901 238.549 163.67 238.667 163.465C238.785 163.259 238.95 163.083 239.149 162.953Z" fill="#EBEBEB"/>
    <path d="M239.149 166.69L247.428 161.95C247.799 161.729 248.107 161.91 248.107 162.345V162.606C248.095 162.843 248.028 163.074 247.909 163.279C247.791 163.485 247.626 163.661 247.428 163.791L239.149 168.531C238.77 168.752 238.461 168.531 238.469 168.136V167.859C238.484 167.625 238.553 167.397 238.671 167.194C238.789 166.991 238.952 166.819 239.149 166.69Z" fill="#EBEBEB"/>
    <path d="M239.149 170.356L247.428 165.616C247.799 165.402 248.107 165.576 248.107 166.011V166.279C248.093 166.516 248.025 166.746 247.907 166.952C247.789 167.157 247.625 167.333 247.428 167.464L239.149 172.204C238.77 172.425 238.461 172.252 238.469 171.809V171.541C238.481 171.303 238.548 171.072 238.667 170.866C238.785 170.66 238.95 170.485 239.149 170.356Z" fill="#EBEBEB"/>
    <path d="M239.149 174.053L252.895 166.153C253.274 165.939 253.582 166.153 253.582 166.548V166.816C253.569 167.054 253.499 167.285 253.38 167.491C253.26 167.697 253.094 167.872 252.895 168.001L239.149 175.901C238.77 176.115 238.461 175.941 238.469 175.506V175.23C238.483 174.994 238.551 174.765 238.669 174.561C238.787 174.356 238.951 174.182 239.149 174.053Z" fill="#EBEBEB"/>
    <path d="M239.149 177.75L252.895 169.85C253.274 169.629 253.582 169.85 253.582 170.245V170.506C253.569 170.743 253.5 170.975 253.381 171.181C253.261 171.387 253.095 171.561 252.895 171.691L239.149 179.591C238.77 179.812 238.461 179.63 238.469 179.196V178.927C238.481 178.691 238.548 178.461 238.667 178.256C238.785 178.052 238.95 177.878 239.149 177.75Z" fill="#EBEBEB"/>
    <path d="M266.372 171.359V172.591C266.372 173.2 266.799 173.444 267.32 173.144L283.247 163.949C283.524 163.768 283.754 163.524 283.918 163.237C284.083 162.95 284.178 162.628 284.195 162.298V161.065C284.195 160.457 283.776 160.212 283.247 160.512L267.32 169.708C267.044 169.89 266.815 170.134 266.65 170.421C266.486 170.707 266.39 171.029 266.372 171.359Z" fill="#E0E0E0"/>
    <path d="M266.775 144.222L283.286 134.687C284.076 134.245 284.661 134.6 284.661 135.477V154.548C284.633 155.023 284.494 155.485 284.255 155.896C284.017 156.308 283.685 156.658 283.286 156.918L266.775 166.453C265.985 166.887 265.401 166.532 265.401 165.663V146.592C265.427 146.117 265.565 145.654 265.803 145.242C266.042 144.831 266.375 144.481 266.775 144.222Z" fill="#FAFAFA"/>
    <path d="M266.159 167.03C265.965 167.031 265.775 166.982 265.606 166.887C265.406 166.755 265.245 166.572 265.14 166.357C265.034 166.141 264.988 165.902 265.006 165.663V146.592C265.032 146.046 265.189 145.514 265.464 145.041C265.739 144.568 266.124 144.168 266.586 143.875L283.097 134.339C283.289 134.189 283.522 134.099 283.766 134.082C284.01 134.065 284.253 134.121 284.465 134.244C284.676 134.366 284.846 134.549 284.953 134.769C285.06 134.988 285.098 135.235 285.064 135.477V154.548C285.037 155.093 284.879 155.624 284.604 156.095C284.329 156.567 283.945 156.965 283.484 157.257L266.973 166.793C266.727 166.941 266.446 167.023 266.159 167.03ZM266.949 144.562C266.609 144.786 266.325 145.086 266.121 145.438C265.916 145.791 265.797 146.186 265.772 146.592V165.663C265.76 165.764 265.772 165.866 265.808 165.961C265.844 166.055 265.902 166.14 265.977 166.208C266.074 166.24 266.178 166.248 266.279 166.23C266.379 166.212 266.474 166.169 266.554 166.105L283.065 156.57C283.405 156.348 283.688 156.049 283.892 155.698C284.097 155.347 284.216 154.953 284.242 154.548V135.477C284.285 135.374 284.289 135.259 284.252 135.153C284.216 135.047 284.143 134.959 284.046 134.903C283.949 134.848 283.835 134.83 283.726 134.853C283.616 134.875 283.519 134.937 283.452 135.027L266.949 144.562Z" fill="#EBEBEB"/>
    <path d="M285.229 137.262L281.548 139.388C281.15 139.648 280.819 139.998 280.582 140.409C280.344 140.821 280.207 141.283 280.181 141.758V146.008C280.181 146.877 280.798 147.232 281.548 146.798L285.229 144.673C285.628 144.413 285.96 144.063 286.199 143.651C286.437 143.24 286.576 142.778 286.604 142.303V138.052C286.604 137.176 285.98 136.82 285.229 137.262Z" fill="#512210"/>
    <path d="M268.031 146.276L276.303 141.536C276.682 141.315 276.99 141.536 276.99 141.931V142.2C276.978 142.438 276.91 142.67 276.79 142.876C276.671 143.082 276.503 143.257 276.303 143.385L268.031 148.125C267.652 148.346 267.344 148.164 267.344 147.73V147.453C267.359 147.217 267.429 146.988 267.548 146.783C267.667 146.579 267.833 146.405 268.031 146.276Z" fill="#EBEBEB"/>
    <path d="M268.031 149.982L276.303 145.242C276.682 145.028 276.99 145.242 276.99 145.637V145.905C276.976 146.143 276.907 146.374 276.788 146.58C276.668 146.785 276.502 146.96 276.303 147.09L268.031 151.83C267.652 152.051 267.344 151.878 267.344 151.435V151.167C267.357 150.929 267.426 150.697 267.545 150.492C267.665 150.286 267.831 150.111 268.031 149.982Z" fill="#EBEBEB"/>
    <path d="M268.031 153.679L276.303 148.939C276.682 148.717 276.99 148.939 276.99 149.334V149.594C276.977 149.832 276.908 150.063 276.788 150.269C276.669 150.475 276.503 150.65 276.303 150.779L268.031 155.519C267.652 155.733 267.344 155.559 267.344 155.124V154.84C267.361 154.606 267.432 154.38 267.551 154.179C267.671 153.977 267.835 153.806 268.031 153.679Z" fill="#EBEBEB"/>
    <path d="M268.031 157.384L281.777 149.484C282.156 149.263 282.465 149.444 282.465 149.879V150.1C282.451 150.338 282.382 150.569 282.262 150.775C282.143 150.98 281.977 151.155 281.777 151.285L268.031 159.185C267.652 159.406 267.344 159.224 267.344 158.79V158.521C267.363 158.292 267.435 158.069 267.554 157.872C267.673 157.675 267.837 157.507 268.031 157.384Z" fill="#EBEBEB"/>
    <path d="M268.031 161.081L281.777 153.181C282.156 152.968 282.465 153.141 282.465 153.576V153.845C282.451 154.082 282.382 154.313 282.262 154.519C282.143 154.725 281.977 154.9 281.777 155.03L268.031 162.93C267.652 163.143 267.344 162.969 267.344 162.535V162.258C267.359 162.022 267.429 161.792 267.548 161.588C267.667 161.384 267.833 161.21 268.031 161.081Z" fill="#EBEBEB"/>
    <path d="M237.49 227.386V228.626C237.49 229.226 237.917 229.471 238.446 229.171L254.38 219.975C254.658 219.797 254.89 219.555 255.056 219.269C255.222 218.983 255.318 218.662 255.336 218.332V217.092C255.336 216.492 254.909 216.247 254.38 216.547L238.462 225.742C238.181 225.919 237.946 226.161 237.777 226.446C237.608 226.732 237.509 227.054 237.49 227.386Z" fill="#E0E0E0"/>
    <path d="M237.893 200.249L254.38 190.714C255.13 190.279 255.747 190.635 255.747 191.504V210.574C255.72 211.049 255.582 211.51 255.345 211.922C255.108 212.333 254.777 212.684 254.38 212.944L237.861 222.48C237.071 222.914 236.494 222.567 236.494 221.69V202.619C236.523 202.142 236.665 201.678 236.908 201.266C237.151 200.853 237.488 200.505 237.893 200.249Z" fill="#FAFAFA"/>
    <path d="M237.277 223.064C237.083 223.066 236.892 223.017 236.724 222.922C236.525 222.787 236.365 222.602 236.261 222.386C236.157 222.169 236.112 221.929 236.131 221.69V202.619C236.159 202.074 236.317 201.544 236.591 201.072C236.866 200.601 237.25 200.202 237.711 199.909L254.214 190.39C254.406 190.243 254.638 190.156 254.879 190.14C255.121 190.124 255.361 190.18 255.571 190.301C255.781 190.422 255.95 190.602 256.057 190.819C256.164 191.036 256.205 191.28 256.174 191.52V210.59C256.146 211.135 255.988 211.666 255.713 212.137C255.438 212.609 255.054 213.008 254.594 213.3L238.075 222.835C237.832 222.978 237.558 223.057 237.277 223.064ZM255.02 190.919C254.874 190.928 254.733 190.975 254.609 191.054L238.09 200.597C237.751 200.819 237.469 201.118 237.266 201.469C237.063 201.82 236.945 202.214 236.921 202.619V221.69C236.878 221.793 236.875 221.908 236.911 222.014C236.947 222.119 237.02 222.208 237.117 222.264C237.214 222.319 237.328 222.337 237.438 222.314C237.547 222.291 237.644 222.229 237.711 222.14L254.23 212.605C254.568 212.379 254.849 212.078 255.052 211.726C255.254 211.374 255.373 210.98 255.399 210.574V191.504C255.411 191.403 255.399 191.301 255.363 191.206C255.327 191.111 255.269 191.026 255.194 190.959C255.141 190.93 255.081 190.916 255.02 190.919Z" fill="#EBEBEB"/>
    <path d="M256.355 193.289L252.674 195.414C252.274 195.673 251.942 196.023 251.703 196.435C251.464 196.847 251.326 197.309 251.299 197.784V202.035C251.299 202.911 251.915 203.259 252.674 202.825L256.355 200.699C256.753 200.44 257.084 200.09 257.322 199.678C257.559 199.266 257.696 198.804 257.722 198.329V194.079C257.722 193.21 257.106 192.855 256.355 193.289Z" fill="#512210"/>
    <path d="M239.149 202.311L247.428 197.571C247.799 197.358 248.107 197.532 248.107 197.966V198.235C248.093 198.471 248.025 198.701 247.907 198.907C247.789 199.113 247.625 199.288 247.428 199.42L239.149 204.16C238.77 204.381 238.461 204.207 238.469 203.765V203.496C238.481 203.259 238.548 203.028 238.667 202.822C238.785 202.616 238.95 202.441 239.149 202.311Z" fill="#EBEBEB"/>
    <path d="M239.149 206.008L247.428 201.268C247.799 201.047 248.107 201.229 248.107 201.663V201.924C248.095 202.161 248.027 202.391 247.909 202.597C247.791 202.803 247.626 202.978 247.428 203.109L239.149 207.849C238.77 208.062 238.461 207.888 238.469 207.454V207.177C238.484 206.943 238.553 206.715 238.671 206.513C238.789 206.31 238.952 206.137 239.149 206.008Z" fill="#EBEBEB"/>
    <path d="M239.149 209.713L247.428 204.973C247.799 204.76 248.107 204.934 248.107 205.368V205.637C248.093 205.874 248.025 206.104 247.907 206.309C247.789 206.515 247.625 206.69 247.428 206.822L239.149 211.562C238.77 211.783 238.461 211.601 238.469 211.167V210.93C238.474 210.687 238.539 210.449 238.658 210.237C238.776 210.025 238.945 209.845 239.149 209.713Z" fill="#EBEBEB"/>
    <path d="M239.149 213.411L252.895 205.511C253.274 205.297 253.582 205.471 253.582 205.906V206.19C253.569 206.428 253.499 206.659 253.38 206.865C253.26 207.07 253.094 207.245 252.895 207.375L239.149 215.275C238.77 215.488 238.461 215.314 238.469 214.88V214.603C238.48 214.365 238.547 214.133 238.666 213.925C238.784 213.718 238.949 213.542 239.149 213.411Z" fill="#EBEBEB"/>
    <path d="M239.149 217.116L252.895 209.216C253.274 208.994 253.582 209.168 253.582 209.611V209.871C253.569 210.109 253.499 210.34 253.38 210.546C253.26 210.752 253.094 210.927 252.895 211.056L239.149 218.956C238.77 219.178 238.461 218.996 238.469 218.561V218.293C238.481 218.057 238.548 217.827 238.667 217.622C238.785 217.417 238.95 217.244 239.149 217.116Z" fill="#EBEBEB"/>
    <path d="M266.372 210.709V211.949C266.372 212.557 266.799 212.802 267.32 212.494L283.247 203.307C283.524 203.125 283.754 202.881 283.918 202.594C284.083 202.308 284.178 201.986 284.195 201.655V200.423C284.195 199.815 283.776 199.57 283.247 199.87L267.32 209.066C267.045 209.247 266.817 209.49 266.652 209.775C266.487 210.06 266.392 210.38 266.372 210.709Z" fill="#E0E0E0"/>
    <path d="M266.775 183.58L283.286 174.045C284.076 173.602 284.661 173.958 284.661 174.835V193.898C284.635 194.373 284.497 194.836 284.258 195.248C284.019 195.659 283.686 196.009 283.286 196.268L266.775 205.811C265.985 206.245 265.401 205.89 265.401 205.021V185.95C265.427 185.475 265.565 185.012 265.803 184.6C266.042 184.188 266.375 183.839 266.775 183.58Z" fill="#FAFAFA"/>
    <path d="M266.159 206.388C265.965 206.389 265.775 206.34 265.606 206.245C265.406 206.113 265.245 205.93 265.14 205.714C265.034 205.499 264.988 205.26 265.006 205.021V185.95C265.031 185.404 265.188 184.871 265.463 184.398C265.738 183.925 266.123 183.525 266.586 183.233L283.097 173.697C283.289 173.547 283.522 173.457 283.766 173.44C284.01 173.423 284.253 173.479 284.465 173.601C284.676 173.724 284.846 173.907 284.953 174.126C285.06 174.346 285.098 174.593 285.064 174.835V193.898C285.038 194.444 284.881 194.977 284.606 195.45C284.331 195.923 283.946 196.323 283.484 196.615L266.973 206.19C266.723 206.325 266.443 206.393 266.159 206.388ZM266.949 183.92C266.609 184.144 266.325 184.444 266.121 184.796C265.916 185.148 265.797 185.544 265.772 185.95V205.021C265.758 205.12 265.77 205.222 265.806 205.316C265.842 205.409 265.901 205.493 265.977 205.558C266.074 205.592 266.177 205.601 266.278 205.584C266.379 205.568 266.474 205.526 266.554 205.463L283.089 195.92C283.429 195.696 283.713 195.396 283.917 195.044C284.121 194.691 284.241 194.296 284.266 193.89V174.835C284.309 174.732 284.312 174.617 284.276 174.511C284.24 174.405 284.167 174.316 284.07 174.261C283.973 174.206 283.859 174.188 283.749 174.211C283.64 174.233 283.543 174.295 283.476 174.385L266.949 183.92Z" fill="#EBEBEB"/>
    <path d="M285.229 176.62L281.548 178.745C281.15 179.005 280.819 179.355 280.582 179.767C280.344 180.179 280.207 180.641 280.181 181.115V185.366C280.181 186.235 280.798 186.59 281.548 186.156L285.229 184.031C285.628 183.771 285.96 183.421 286.199 183.009C286.437 182.597 286.576 182.136 286.604 181.661V177.41C286.604 176.533 285.98 176.17 285.229 176.62Z" fill="#512210"/>
    <path d="M268.031 185.65L276.303 180.91C276.682 180.689 276.99 180.871 276.99 181.305V181.566C276.977 181.803 276.908 182.035 276.788 182.241C276.669 182.447 276.503 182.621 276.303 182.751L268.031 187.491C267.652 187.704 267.344 187.491 267.344 187.096V186.819C267.36 186.584 267.43 186.356 267.55 186.154C267.669 185.951 267.834 185.778 268.031 185.65Z" fill="#EBEBEB"/>
    <path d="M268.031 189.339L276.303 184.599C276.682 184.386 276.99 184.599 276.99 184.994V185.263C276.976 185.5 276.907 185.732 276.788 185.937C276.668 186.143 276.502 186.318 276.303 186.448L268.031 191.188C267.652 191.409 267.344 191.227 267.344 190.793V190.524C267.356 190.286 267.424 190.054 267.544 189.848C267.663 189.642 267.83 189.468 268.031 189.339Z" fill="#EBEBEB"/>
    <path d="M268.031 193.037L276.303 188.297C276.682 188.075 276.99 188.249 276.99 188.692V188.952C276.976 189.19 276.907 189.421 276.788 189.627C276.668 189.833 276.502 190.007 276.303 190.137L268.031 194.877C267.652 195.09 267.344 194.917 267.344 194.482V194.206C267.36 193.971 267.43 193.743 267.55 193.54C267.669 193.337 267.834 193.165 268.031 193.037Z" fill="#EBEBEB"/>
    <path d="M268.031 196.71L281.777 188.81C282.156 188.589 282.465 188.763 282.465 189.205V189.466C282.451 189.703 282.382 189.934 282.262 190.14C282.143 190.346 281.977 190.521 281.777 190.651L268.031 198.551C267.652 198.772 267.344 198.59 267.344 198.156V197.887C267.357 197.65 267.426 197.42 267.545 197.216C267.665 197.011 267.832 196.838 268.031 196.71Z" fill="#EBEBEB"/>
    <path d="M268.031 200.439L281.777 192.539C282.156 192.318 282.465 192.499 282.465 192.934V193.194C282.453 193.433 282.384 193.664 282.265 193.87C282.145 194.077 281.978 194.251 281.777 194.379L268.031 202.279C267.652 202.493 267.344 202.319 267.344 201.884V201.608C267.36 201.373 267.43 201.145 267.55 200.942C267.669 200.739 267.834 200.567 268.031 200.439Z" fill="#EBEBEB"/>
    <path d="M178.461 261.49V262.722C178.461 263.331 178.888 263.576 179.417 263.275L195.336 254.08C195.613 253.901 195.845 253.659 196.011 253.373C196.177 253.087 196.273 252.767 196.291 252.437V251.22C196.291 250.612 195.865 250.367 195.336 250.675L179.417 259.863C179.142 260.041 178.913 260.281 178.747 260.563C178.581 260.846 178.483 261.163 178.461 261.49Z" fill="#E0E0E0"/>
    <path d="M178.864 234.353L195.383 224.818C196.173 224.384 196.75 224.731 196.75 225.608V244.679C196.722 245.153 196.584 245.614 196.347 246.026C196.11 246.437 195.78 246.787 195.383 247.049L178.864 256.584C178.074 257.019 177.497 256.663 177.497 255.794V236.723C177.522 236.249 177.658 235.786 177.896 235.374C178.133 234.962 178.465 234.612 178.864 234.353Z" fill="#FAFAFA"/>
    <path d="M178.248 257.161C178.054 257.163 177.863 257.114 177.695 257.019C177.496 256.886 177.336 256.702 177.232 256.487C177.128 256.272 177.083 256.032 177.102 255.794V236.724C177.13 236.178 177.288 235.648 177.562 235.176C177.837 234.705 178.221 234.306 178.682 234.014L195.201 224.479C195.392 224.327 195.624 224.237 195.867 224.219C196.11 224.201 196.353 224.257 196.564 224.378C196.775 224.5 196.945 224.682 197.051 224.902C197.158 225.121 197.196 225.367 197.16 225.608V244.679C197.133 245.224 196.975 245.754 196.7 246.226C196.425 246.697 196.041 247.096 195.58 247.389L179.061 256.924C178.815 257.072 178.535 257.154 178.248 257.161ZM179.061 234.693C178.723 234.918 178.44 235.218 178.238 235.571C178.035 235.923 177.916 236.318 177.892 236.724V255.794C177.849 255.897 177.846 256.012 177.882 256.118C177.918 256.224 177.991 256.313 178.088 256.368C178.186 256.423 178.299 256.441 178.409 256.418C178.518 256.396 178.615 256.334 178.682 256.244L195.201 246.701C195.539 246.477 195.82 246.178 196.023 245.827C196.225 245.476 196.344 245.083 196.37 244.679V225.608C196.413 225.505 196.417 225.39 196.381 225.284C196.345 225.179 196.271 225.09 196.174 225.034C196.077 224.979 195.963 224.961 195.854 224.984C195.745 225.007 195.647 225.069 195.58 225.158L179.061 234.693Z" fill="#EBEBEB"/>
    <path d="M197.326 227.394L193.645 229.519C193.245 229.777 192.912 230.127 192.673 230.539C192.434 230.951 192.296 231.413 192.27 231.889V236.139C192.27 237.008 192.886 237.363 193.645 236.929L197.326 234.804C197.723 234.543 198.054 234.193 198.291 233.781C198.528 233.37 198.666 232.908 198.693 232.434V228.184C198.693 227.307 198.077 226.959 197.326 227.394Z" fill="#512210"/>
    <path d="M180.12 236.415L188.399 231.675C188.771 231.454 189.079 231.636 189.079 232.07V232.331C189.067 232.568 188.999 232.799 188.881 233.005C188.763 233.211 188.598 233.386 188.399 233.516L180.12 238.256C179.741 238.477 179.441 238.256 179.441 237.861V237.592C179.452 237.356 179.52 237.126 179.638 236.922C179.756 236.717 179.921 236.543 180.12 236.415Z" fill="#EBEBEB"/>
    <path d="M180.12 240.113L188.399 235.373C188.771 235.159 189.079 235.333 189.079 235.776V236.036C189.065 236.273 188.996 236.503 188.878 236.709C188.76 236.914 188.596 237.09 188.399 237.221L180.12 241.961C179.741 242.174 179.441 241.961 179.441 241.566V241.29C179.454 241.054 179.522 240.825 179.64 240.62C179.758 240.416 179.923 240.242 180.12 240.113Z" fill="#EBEBEB"/>
    <path d="M180.12 243.818L188.399 239.078C188.771 238.856 189.079 239.038 189.079 239.473V239.733C189.067 239.97 188.999 240.201 188.881 240.407C188.763 240.613 188.598 240.788 188.399 240.918L180.12 245.69C179.741 245.911 179.441 245.69 179.441 245.295V245.018C179.448 244.778 179.514 244.544 179.632 244.334C179.751 244.125 179.918 243.948 180.12 243.818Z" fill="#EBEBEB"/>
    <path d="M180.12 247.515L193.866 239.615C194.245 239.394 194.553 239.615 194.553 240.01V240.271C194.542 240.509 194.473 240.74 194.354 240.947C194.234 241.153 194.067 241.327 193.866 241.456L180.12 249.356C179.741 249.577 179.441 249.403 179.441 248.961V248.692C179.454 248.456 179.522 248.227 179.64 248.023C179.758 247.818 179.923 247.644 180.12 247.515Z" fill="#EBEBEB"/>
    <path d="M180.12 251.22L193.866 243.32C194.245 243.107 194.553 243.32 194.553 243.715V243.984C194.54 244.221 194.471 244.452 194.351 244.658C194.232 244.864 194.066 245.039 193.866 245.169L180.12 253.069C179.741 253.282 179.441 253.108 179.441 252.674V252.397C179.454 252.161 179.522 251.932 179.64 251.728C179.758 251.523 179.923 251.349 180.12 251.22Z" fill="#EBEBEB"/>
    <path d="M207.344 244.813V246.053C207.344 246.654 207.77 246.907 208.292 246.598L224.218 237.403C224.495 237.224 224.726 236.982 224.891 236.696C225.056 236.41 225.15 236.089 225.166 235.76V234.527C225.166 233.919 224.747 233.674 224.218 233.974L208.292 243.17C208.016 243.351 207.787 243.594 207.622 243.879C207.458 244.164 207.362 244.484 207.344 244.813Z" fill="#E0E0E0"/>
    <path d="M207.77 217.677L224.281 208.141C225.071 207.707 225.656 208.062 225.656 208.931V228.002C225.63 228.477 225.492 228.94 225.253 229.352C225.014 229.764 224.681 230.113 224.281 230.372L207.77 239.907C206.98 240.35 206.396 239.994 206.396 239.117V220.047C206.423 219.572 206.562 219.11 206.801 218.698C207.04 218.286 207.372 217.937 207.77 217.677Z" fill="#FAFAFA"/>
    <path d="M207.13 240.492C206.936 240.494 206.746 240.445 206.577 240.35C206.377 240.215 206.217 240.03 206.111 239.814C206.006 239.598 205.959 239.357 205.977 239.117V220.047C206.005 219.502 206.163 218.971 206.438 218.5C206.713 218.029 207.096 217.63 207.557 217.337L224.06 207.77C224.252 207.62 224.484 207.531 224.727 207.514C224.97 207.496 225.212 207.552 225.423 207.673C225.634 207.794 225.805 207.976 225.912 208.194C226.02 208.413 226.06 208.658 226.027 208.9V227.97C226.001 228.516 225.844 229.047 225.569 229.519C225.294 229.991 224.909 230.389 224.447 230.68L207.936 240.223C207.695 240.381 207.418 240.474 207.13 240.492ZM224.873 208.355C224.724 208.359 224.579 208.405 224.455 208.489L207.944 218.04C207.604 218.262 207.321 218.561 207.116 218.912C206.912 219.263 206.792 219.657 206.767 220.062V239.133C206.753 239.234 206.764 239.336 206.8 239.432C206.836 239.527 206.895 239.612 206.972 239.678C207.069 239.71 207.172 239.718 207.272 239.701C207.372 239.685 207.467 239.644 207.549 239.583L224.06 230.048C224.4 229.824 224.683 229.524 224.887 229.171C225.092 228.819 225.211 228.424 225.237 228.018V208.931C225.249 208.831 225.236 208.728 225.201 208.634C225.165 208.539 225.107 208.454 225.031 208.386C224.982 208.364 224.928 208.353 224.873 208.355Z" fill="#EBEBEB"/>
    <path d="M226.201 210.717L222.519 212.842C222.123 213.103 221.793 213.453 221.555 213.865C221.318 214.276 221.18 214.738 221.153 215.212V219.462C221.153 220.339 221.769 220.694 222.519 220.252L226.201 218.127C226.601 217.868 226.934 217.519 227.172 217.107C227.411 216.695 227.549 216.232 227.575 215.757V211.507C227.575 210.638 226.959 210.282 226.201 210.717Z" fill="#512210"/>
    <path d="M209.002 219.739L217.274 214.999C217.653 214.785 217.961 214.959 217.961 215.401V215.67C217.948 215.908 217.878 216.139 217.759 216.345C217.639 216.55 217.473 216.725 217.274 216.855L209.002 221.595C208.623 221.808 208.315 221.635 208.315 221.192V220.924C208.329 220.686 208.398 220.455 208.517 220.249C208.637 220.043 208.803 219.868 209.002 219.739Z" fill="#EBEBEB"/>
    <path d="M209.002 223.444L217.274 218.704C217.653 218.482 217.961 218.664 217.961 219.099V219.359C217.949 219.597 217.881 219.829 217.761 220.035C217.642 220.241 217.475 220.416 217.274 220.544L209.002 225.284C208.623 225.505 208.315 225.324 208.315 224.889V224.613C208.329 224.377 208.399 224.149 208.518 223.946C208.638 223.742 208.804 223.57 209.002 223.444Z" fill="#EBEBEB"/>
    <path d="M209.002 227.141L217.274 222.401C217.653 222.188 217.961 222.361 217.961 222.796V223.064C217.948 223.302 217.878 223.533 217.759 223.739C217.639 223.945 217.473 224.12 217.274 224.249L209.002 228.989C208.623 229.211 208.315 229.037 208.315 228.594V228.31C208.331 228.075 208.402 227.847 208.521 227.644C208.64 227.441 208.805 227.269 209.002 227.141Z" fill="#EBEBEB"/>
    <path d="M209.002 230.838L222.748 222.938C223.128 222.725 223.436 222.898 223.436 223.333V223.57C223.422 223.808 223.353 224.039 223.234 224.244C223.114 224.45 222.948 224.625 222.748 224.755L209.002 232.655C208.623 232.868 208.315 232.694 208.315 232.26V231.983C208.335 231.753 208.407 231.53 208.526 231.331C208.645 231.132 208.808 230.964 209.002 230.838Z" fill="#EBEBEB"/>
    <path d="M209.002 234.543L222.748 226.643C223.128 226.422 223.436 226.604 223.436 227.038V227.299C223.423 227.537 223.354 227.768 223.234 227.974C223.115 228.18 222.948 228.354 222.748 228.484L209.002 236.384C208.623 236.605 208.315 236.384 208.315 235.989V235.72C208.328 235.484 208.397 235.253 208.517 235.049C208.636 234.844 208.803 234.671 209.002 234.543Z" fill="#EBEBEB"/>
    <path d="M132.57 159.509L129.363 157.637V172.465L132.57 174.321V159.509Z" fill="#512210"/>
    <path opacity="0.1" d="M132.57 159.509L129.363 157.637V172.465L132.57 174.321V159.509Z" fill="black"/>
</svg>
