<svg width="24" height="24" viewBox="0 0 24 24" fill="black" xmlns="http://www.w3.org/2000/svg">
    <path d="M22.4234 9.11812C22.3297 8.82986 22.1527 8.5758 21.9148 8.38795C21.6769 8.2001 21.3887 8.08686 21.0866 8.06249L15.5553 7.61624L13.4197 2.45155C13.3042 2.17013 13.1076 1.92941 12.855 1.76C12.6023 1.59058 12.305 1.50012 12.0008 1.50012C11.6966 1.50012 11.3992 1.59058 11.1466 1.76C10.8939 1.92941 10.6974 2.17013 10.5819 2.45155L8.44812 7.61531L2.91406 8.06249C2.61141 8.08809 2.32305 8.20243 2.0851 8.39119C1.84714 8.57994 1.67019 8.83472 1.5764 9.12361C1.4826 9.41249 1.47615 9.72263 1.55784 10.0152C1.63953 10.3077 1.80573 10.5696 2.03562 10.7681L6.25437 14.4084L4.96906 19.8516C4.89717 20.1473 4.91477 20.4577 5.01962 20.7434C5.12448 21.0291 5.31185 21.2771 5.55796 21.4562C5.80407 21.6352 6.09781 21.737 6.40191 21.7488C6.70601 21.7605 7.00674 21.6817 7.26593 21.5222L12.0003 18.6084L16.7375 21.5222C16.9968 21.6798 17.2969 21.7571 17.6001 21.7445C17.9032 21.7318 18.1958 21.6298 18.4411 21.4512C18.6864 21.2726 18.8733 21.0254 18.9784 20.7407C19.0835 20.4561 19.102 20.1467 19.0316 19.8516L17.7416 14.4075L21.9603 10.7672C22.1921 10.569 22.3598 10.3065 22.4422 10.013C22.5247 9.71939 22.5181 9.40796 22.4234 9.11812ZM20.9853 9.63093L16.4197 13.5684C16.3156 13.6582 16.2381 13.7748 16.1958 13.9056C16.1535 14.0364 16.1479 14.1763 16.1797 14.31L17.5747 20.1975C17.5783 20.2056 17.5787 20.2148 17.5757 20.2232C17.5727 20.2315 17.5667 20.2385 17.5587 20.2425C17.5419 20.2556 17.5372 20.2528 17.5231 20.2425L12.3931 17.0878C12.275 17.0152 12.139 16.9767 12.0003 16.9767C11.8616 16.9767 11.7256 17.0152 11.6075 17.0878L6.47749 20.2444C6.46343 20.2528 6.45968 20.2556 6.44187 20.2444C6.43396 20.2403 6.42789 20.2334 6.42493 20.225C6.42196 20.2167 6.42232 20.2075 6.42593 20.1994L7.82093 14.3119C7.85273 14.1781 7.84715 14.0382 7.80483 13.9075C7.7625 13.7767 7.68505 13.66 7.58093 13.5703L3.01531 9.6328C3.00406 9.62343 2.99374 9.61499 3.00312 9.58593C3.01249 9.55687 3.01999 9.56062 3.03406 9.55874L9.02656 9.07499C9.164 9.0632 9.29554 9.01373 9.40669 8.93203C9.51783 8.85032 9.6043 8.73954 9.65656 8.61187L11.9647 3.02343C11.9722 3.00749 11.975 2.99999 11.9975 2.99999C12.02 2.99999 12.0228 3.00749 12.0303 3.02343L14.3441 8.61187C14.3968 8.73958 14.4838 8.85025 14.5955 8.93164C14.7072 9.01303 14.8391 9.06199 14.9769 9.07312L20.9694 9.55687C20.9834 9.55687 20.9919 9.55687 21.0003 9.58405C21.0087 9.61124 21.0003 9.62156 20.9853 9.63093Z" fill="black"/>
    <defs>
        <clipPath id="clip0_5_4723">
            <rect width="257" height="257" fill="black" transform="translate(0.198242)"/>
        </clipPath>
    </defs>
</svg>
