<svg width="398" height="266" viewBox="0 0 398 266" fill="none" xmlns="http://www.w3.org/2000/svg">
<path d="M335.445 74.48C335.445 74.48 280.903 18.4711 210.022 14.1459C139.141 9.82074 97.8075 55.727 78.2206 83.1037C58.6337 110.48 9.76463 156.094 15.5277 197.861C21.2907 239.629 77.7908 271.32 158.728 257.398C239.665 243.475 263.131 238.192 300.008 248.758C336.884 259.323 384.776 243.475 385.731 183.46C386.687 123.445 335.445 74.48 335.445 74.48Z" fill="#512210"/>
<path opacity="0.7" d="M335.445 74.48C335.445 74.48 280.903 18.4711 210.022 14.1459C139.141 9.82074 97.8075 55.727 78.2206 83.1037C58.6337 110.48 9.76463 156.094 15.5277 197.861C21.2907 239.629 77.7908 271.32 158.728 257.398C239.665 243.475 263.131 238.192 300.008 248.758C336.884 259.323 384.776 243.475 385.731 183.46C386.687 123.445 335.445 74.48 335.445 74.48Z" fill="white"/>
<path d="M357.531 235.83H383.009" stroke="#263238" stroke-linecap="round" stroke-linejoin="round"/>
<path d="M34.7002 235.83H351.689" stroke="#263238" stroke-linecap="round" stroke-linejoin="round"/>
<path d="M22.5908 235.83H30.1104" stroke="#263238" stroke-linecap="round" stroke-linejoin="round"/>
<path d="M346.791 174.751C347.663 174.963 348.584 174.819 349.351 174.352C350.118 173.884 350.669 173.13 350.882 172.256L353.047 163.324C353.258 162.449 353.115 161.526 352.649 160.757C352.182 159.989 351.43 159.436 350.558 159.222C349.687 159.011 348.767 159.155 348 159.622C347.234 160.09 346.685 160.844 346.472 161.717L344.302 170.639C344.195 171.073 344.175 171.524 344.242 171.965C344.309 172.407 344.463 172.831 344.694 173.213C344.925 173.596 345.23 173.928 345.589 174.192C345.949 174.456 346.357 174.646 346.791 174.751Z" fill="white" stroke="#263238" stroke-linecap="round" stroke-linejoin="round"/>
<path d="M350.241 185.184C350.534 185.265 350.841 185.279 351.141 185.224C351.44 185.169 351.722 185.047 351.967 184.867C352.213 184.686 352.414 184.453 352.556 184.183C352.698 183.914 352.777 183.616 352.788 183.311L353.685 172.091C353.723 171.417 353.53 170.75 353.139 170.2C352.747 169.65 352.179 169.252 351.53 169.07C351.237 168.988 350.929 168.974 350.63 169.03C350.33 169.085 350.047 169.207 349.802 169.388C349.557 169.569 349.355 169.803 349.214 170.074C349.072 170.344 348.993 170.642 348.983 170.948L348.081 182.162C348.042 182.837 348.235 183.506 348.628 184.056C349.021 184.605 349.591 185.004 350.241 185.184Z" fill="white" stroke="#263238" stroke-linecap="round" stroke-linejoin="round"/>
<path d="M326.318 172.778L337.627 170.421C341.606 170.341 345.578 170.777 349.445 171.719L357.044 173.57C357.443 173.668 357.857 173.686 358.263 173.623C358.669 173.56 359.058 173.417 359.409 173.203C359.76 172.99 360.066 172.708 360.308 172.376C360.551 172.044 360.725 171.667 360.822 171.267L362.414 164.702C362.609 163.893 362.476 163.04 362.045 162.33C361.613 161.62 360.917 161.111 360.111 160.914L353.955 159.414C349.298 158.279 344.846 156.419 340.763 153.902L332.729 146.3L326.318 172.778Z" fill="white" stroke="#263238" stroke-linecap="round" stroke-linejoin="round"/>
<path d="M349.71 158.148C351.111 158.637 352.528 159.063 353.955 159.414L360.1 160.914C360.906 161.111 361.602 161.62 362.034 162.33C362.465 163.04 362.598 163.893 362.403 164.702L360.811 171.267C360.714 171.667 360.54 172.044 360.297 172.376C360.055 172.708 359.749 172.99 359.398 173.203C359.047 173.417 358.658 173.56 358.252 173.623C357.846 173.686 357.432 173.668 357.033 173.57L349.434 171.719C348.486 171.485 347.527 171.283 346.558 171.112L349.71 158.148Z" fill="#263238" stroke="#263238" stroke-linecap="round" stroke-linejoin="round"/>
<path d="M324.812 176.025L325.281 176.14C326.628 176.468 327.986 175.64 328.313 174.29L334.935 147.018C335.263 145.668 334.437 144.306 333.09 143.978L332.62 143.863C331.273 143.535 329.916 144.363 329.588 145.713L322.966 172.985C322.639 174.336 323.465 175.697 324.812 176.025Z" fill="#512210" stroke="#263238" stroke-linecap="round" stroke-linejoin="round"/>
<path d="M320.592 148.508L323.245 152.705" stroke="#263238" stroke-width="2" stroke-linecap="round" stroke-linejoin="round"/>
<path d="M316.32 166.112L320.597 163.606" stroke="#263238" stroke-width="2" stroke-linecap="round" stroke-linejoin="round"/>
<path d="M320.99 158.201L315.795 156.935" stroke="#263238" stroke-width="2" stroke-linecap="round" stroke-linejoin="round"/>
<path d="M348.118 180.88L346.298 182.433C346.085 182.619 345.935 182.866 345.868 183.141C345.825 183.313 345.817 183.492 345.843 183.668C345.87 183.843 345.931 184.012 346.022 184.163C346.114 184.315 346.235 184.447 346.378 184.552C346.521 184.657 346.683 184.732 346.855 184.774L352.602 186.179L352.963 180.912L348.118 180.88Z" fill="#263238" stroke="#263238" stroke-linecap="round" stroke-linejoin="round"/>
<path d="M357.42 165.053C357.458 164.901 357.54 164.764 357.655 164.659C357.77 164.553 357.914 164.485 358.069 164.461C358.223 164.438 358.381 164.46 358.522 164.527C358.663 164.593 358.782 164.699 358.863 164.833C358.944 164.967 358.984 165.122 358.977 165.278C358.971 165.434 358.918 165.585 358.827 165.711C358.735 165.838 358.608 165.934 358.461 165.988C358.315 166.043 358.156 166.052 358.004 166.016C357.902 165.992 357.806 165.948 357.721 165.887C357.636 165.825 357.564 165.747 357.51 165.658C357.455 165.568 357.419 165.468 357.404 165.364C357.389 165.261 357.394 165.155 357.42 165.053Z" fill="#512210"/>
<path d="M323.654 199.239V192.584H325.602C325.939 192.571 326.274 192.646 326.573 192.802C326.814 192.954 327 193.18 327.104 193.446C327.228 193.771 327.288 194.119 327.279 194.467C327.296 194.835 327.221 195.2 327.061 195.531C326.924 195.787 326.705 195.989 326.44 196.106C326.146 196.233 325.827 196.295 325.506 196.287H324.848V199.239H323.654ZM324.864 195.435H325.326C325.508 195.448 325.69 195.415 325.857 195.34C325.918 195.31 325.972 195.267 326.016 195.215C326.06 195.163 326.092 195.102 326.111 195.036C326.164 194.855 326.187 194.667 326.18 194.478C326.185 194.281 326.168 194.085 326.127 193.893C326.115 193.824 326.088 193.759 326.049 193.701C326.009 193.643 325.958 193.594 325.899 193.558C325.733 193.479 325.551 193.443 325.368 193.451H324.907L324.864 195.435Z" fill="#263238"/>
<path d="M327.952 199.239V192.584H329.544C329.929 192.574 330.313 192.628 330.68 192.744C330.968 192.833 331.216 193.021 331.38 193.276C331.561 193.6 331.646 193.969 331.624 194.34C331.626 194.581 331.601 194.822 331.55 195.058C331.505 195.251 331.42 195.432 331.301 195.59C331.172 195.747 331.003 195.867 330.812 195.936L331.736 199.207H330.499L329.698 196.164H329.167V199.207L327.952 199.239ZM329.167 195.435H329.539C329.732 195.445 329.924 195.411 330.101 195.334C330.238 195.266 330.345 195.148 330.399 195.005C330.467 194.819 330.497 194.622 330.489 194.425C330.507 194.162 330.444 193.9 330.308 193.675C330.218 193.582 330.108 193.511 329.987 193.468C329.866 193.425 329.736 193.41 329.608 193.425H329.167V195.435Z" fill="#263238"/>
<path d="M334.289 199.33C333.899 199.35 333.511 199.26 333.169 199.069C332.889 198.894 332.677 198.627 332.57 198.314C332.444 197.938 332.383 197.544 332.389 197.149V194.664C332.382 194.273 332.443 193.885 332.57 193.515C332.68 193.209 332.891 192.949 333.169 192.781C333.521 192.613 333.905 192.525 334.294 192.525C334.684 192.525 335.068 192.613 335.419 192.781C335.696 192.951 335.908 193.209 336.019 193.515C336.151 193.883 336.214 194.273 336.205 194.664V197.159C336.212 197.55 336.149 197.94 336.019 198.308C335.908 198.62 335.697 198.885 335.419 199.064C335.075 199.256 334.683 199.348 334.289 199.33ZM334.289 198.436C334.449 198.45 334.609 198.403 334.735 198.303C334.835 198.208 334.902 198.083 334.926 197.947C334.959 197.782 334.975 197.614 334.974 197.446V194.387C334.975 194.22 334.959 194.052 334.926 193.887C334.902 193.753 334.835 193.63 334.735 193.536C334.603 193.453 334.45 193.409 334.294 193.409C334.139 193.409 333.986 193.453 333.854 193.536C333.752 193.629 333.684 193.752 333.658 193.887C333.624 194.052 333.608 194.22 333.61 194.387V197.446C333.609 197.614 333.625 197.782 333.658 197.947C333.677 198.084 333.745 198.211 333.849 198.303C333.973 198.402 334.131 198.449 334.289 198.436Z" fill="#263238"/>
<path d="M337.074 199.239L337.191 192.6H338.443L339.383 197.196L340.364 192.6H341.574L341.696 199.239H340.8L340.699 194.622L339.759 199.239H339.032L338.072 194.606L337.987 199.239H337.074Z" fill="#263238"/>
<path d="M344.478 199.33C344.087 199.35 343.699 199.26 343.358 199.069C343.079 198.893 342.869 198.626 342.764 198.314C342.635 197.939 342.574 197.545 342.583 197.149V194.664C342.573 194.273 342.634 193.884 342.764 193.515C342.872 193.209 343.081 192.95 343.358 192.781C343.701 192.594 344.088 192.506 344.478 192.525C344.872 192.505 345.265 192.593 345.613 192.781C345.888 192.951 346.098 193.21 346.208 193.515C346.339 193.883 346.402 194.273 346.393 194.664V197.159C346.401 197.55 346.338 197.94 346.208 198.308C346.099 198.619 345.89 198.885 345.613 199.064C345.267 199.257 344.874 199.349 344.478 199.33ZM344.478 198.436C344.638 198.45 344.797 198.403 344.923 198.303C345.024 198.208 345.091 198.083 345.114 197.947C345.152 197.783 345.17 197.615 345.168 197.446V194.387C345.17 194.219 345.152 194.051 345.114 193.887C345.09 193.753 345.023 193.63 344.923 193.536C344.795 193.441 344.637 193.396 344.478 193.409C344.324 193.397 344.171 193.442 344.048 193.536C343.944 193.627 343.875 193.751 343.852 193.887C343.813 194.051 343.796 194.219 343.798 194.387V197.446C343.797 197.614 343.813 197.782 343.846 197.947C343.868 198.084 343.935 198.209 344.037 198.303C344.162 198.401 344.319 198.449 344.478 198.436Z" fill="#263238"/>
<path d="M347.916 199.239V193.494H346.854V192.584H350.155V193.478H349.094V199.223L347.916 199.239Z" fill="#263238"/>
<path d="M350.803 199.239V192.584H351.997V199.223L350.803 199.239Z" fill="#263238"/>
<path d="M354.815 199.33C354.425 199.348 354.037 199.258 353.695 199.069C353.416 198.893 353.206 198.626 353.101 198.314C352.972 197.939 352.911 197.544 352.92 197.148V194.664C352.91 194.273 352.971 193.884 353.101 193.515C353.208 193.209 353.418 192.95 353.695 192.781C354.047 192.613 354.432 192.525 354.823 192.525C355.213 192.525 355.598 192.613 355.95 192.781C356.225 192.951 356.435 193.21 356.545 193.515C356.676 193.883 356.739 194.273 356.73 194.664V197.159C356.738 197.55 356.675 197.94 356.545 198.308C356.436 198.619 356.227 198.885 355.95 199.064C355.604 199.257 355.21 199.349 354.815 199.33ZM354.815 198.436C354.975 198.45 355.134 198.403 355.26 198.303C355.36 198.207 355.429 198.082 355.457 197.946C355.49 197.782 355.506 197.614 355.504 197.446V194.387C355.506 194.22 355.49 194.052 355.457 193.887C355.429 193.753 355.36 193.63 355.26 193.536C355.132 193.441 354.974 193.395 354.815 193.409C354.661 193.397 354.508 193.442 354.385 193.536C354.281 193.627 354.212 193.751 354.188 193.887C354.15 194.051 354.133 194.219 354.135 194.387V197.446C354.134 197.614 354.15 197.782 354.183 197.946C354.205 198.083 354.272 198.209 354.374 198.303C354.499 198.401 354.656 198.449 354.815 198.436Z" fill="#263238"/>
<path d="M357.622 199.239V192.584H358.466L360.058 196.372V192.584H361.056V199.223H360.27L358.678 195.255V199.223L357.622 199.239Z" fill="#263238"/>
<path d="M356.428 104.325L353.876 102.367L350.819 100.021L342.249 93.4457V93.4404L342.238 93.4351L342.175 93.3872L332.851 100.154L329.645 102.474L327.029 104.378L333.058 72.6818L335.929 57.5942L346.531 57.8177L347.322 57.8336L347.938 57.8443L350.469 71.6922L356.428 104.325Z" fill="#512210" stroke="#263238" stroke-linecap="round" stroke-linejoin="round"/>
<path d="M350.469 71.6922C350.085 71.5644 349.672 71.5515 349.28 71.655C348.75 71.9423 348.612 73.1978 348.028 73.4212C347.444 73.6447 346.521 72.8041 345.905 72.969C345.29 73.134 344.929 74.3363 344.313 74.4374C343.698 74.5384 342.965 73.5117 342.339 73.5489C341.713 73.5862 341.103 74.6821 340.476 74.6502C339.85 74.6182 339.336 73.4691 338.725 73.3734C338.115 73.2776 337.271 74.2246 336.677 74.0703C336.083 73.916 335.807 72.6764 335.228 72.4743C334.65 72.2721 333.636 73.0063 333.106 72.719H333.068L335.913 57.5942L346.526 57.8177H347.317H347.932L350.469 71.6922Z" fill="#263238" stroke="#263238" stroke-linecap="round" stroke-linejoin="round"/>
<path d="M324.099 51.9923C324.131 51.3592 323.107 50.6303 323.203 50.0185C323.298 49.4067 324.492 49.0077 324.646 48.4225C324.8 47.8373 323.956 46.8851 324.174 46.2945C324.391 45.704 325.649 45.5817 325.925 45.0231C326.201 44.4645 325.569 43.3792 325.925 42.8578C326.28 42.3365 327.517 42.4641 327.899 41.98C328.281 41.4959 327.899 40.2989 328.329 39.852C328.759 39.4051 329.963 39.7988 330.451 39.3998C330.94 39.0008 330.791 37.7559 331.311 37.4101C331.831 37.0643 332.903 37.6974 333.471 37.4101C334.039 37.1229 334.14 35.8673 334.723 35.6386C335.307 35.4098 336.236 36.2557 336.846 36.0908C337.456 35.9259 337.817 34.7289 338.438 34.6278C339.059 34.5267 339.786 35.5481 340.412 35.5162C341.038 35.4843 341.643 34.3831 342.275 34.415C342.906 34.4469 343.416 35.596 344.021 35.6865C344.626 35.7769 345.475 34.8406 346.069 34.9949C346.663 35.1491 346.939 36.3887 347.518 36.5909C348.096 36.793 349.11 36.0589 349.64 36.3461C350.171 36.6334 350.171 37.8836 350.702 38.2241C351.232 38.5646 352.368 38.0379 352.851 38.4316C353.334 38.8253 353.074 40.0276 353.52 40.4957C353.965 40.9639 355.186 40.6607 355.579 41.1448C355.971 41.6289 355.462 42.778 355.807 43.2994C356.152 43.8207 357.399 43.8048 357.691 44.3634C357.982 44.922 357.234 45.9328 357.462 46.4914C357.691 47.05 358.922 47.3213 359.086 47.9278C359.251 48.5343 358.311 49.3642 358.412 49.9866C358.513 50.6091 359.665 51.0985 359.697 51.7263C359.728 52.354 358.635 52.9711 358.635 53.6042C358.635 54.2373 359.628 54.9661 359.537 55.5779C359.447 56.1897 358.248 56.5887 358.089 57.1739C357.929 57.7591 358.778 58.7114 358.561 59.3019C358.343 59.8925 357.091 60.0201 356.81 60.5734C356.528 61.1267 357.165 62.2173 356.81 62.744C356.454 63.2707 355.218 63.1323 354.83 63.6218C354.443 64.1112 354.83 65.3029 354.4 65.7498C353.971 66.1967 352.766 65.803 352.278 66.1967C351.79 66.5903 351.943 67.8459 351.423 68.1863C350.903 68.5268 349.831 67.8991 349.258 68.1863C348.685 68.4736 348.59 69.7238 348.006 69.9526C347.422 70.1814 346.494 69.3355 345.883 69.5004C345.273 69.6653 344.907 70.8676 344.291 70.9687C343.676 71.0698 342.949 70.043 342.323 70.0803C341.696 70.1175 341.086 71.2134 340.455 71.1815C339.823 71.1496 339.319 70.0005 338.709 69.9047C338.098 69.8089 337.255 70.7559 336.66 70.5963C336.066 70.4367 335.79 69.2078 335.212 69.0003C334.633 68.7928 333.62 69.5323 333.062 69.2503C332.505 68.9684 332.532 67.7075 332.001 67.3724C331.47 67.0372 330.335 67.5533 329.878 67.1649C329.422 66.7765 329.655 65.537 329.215 65.1007C328.775 64.6645 327.543 64.9358 327.151 64.4517C326.758 63.9676 327.267 62.8185 326.923 62.3237C326.578 61.8289 325.331 61.7917 325.039 61.2597C324.747 60.7277 325.495 59.6637 325.267 59.0998C325.039 58.5359 323.813 58.2752 323.675 57.6687C323.537 57.0622 324.444 56.227 324.344 55.6099C324.243 54.9927 323.091 54.4927 323.059 53.8649C323.027 53.2371 324.073 52.62 324.099 51.9923Z" fill="#512210" stroke="#263238" stroke-linecap="round" stroke-linejoin="round"/>
<path d="M345.84 66.8528C353.571 64.3766 357.835 56.0868 355.365 48.337C352.895 40.5873 344.626 36.3122 336.895 38.7885C329.165 41.2647 324.901 49.5545 327.371 57.3043C329.841 65.054 338.11 69.329 345.84 66.8528Z" fill="#263238" stroke="#263238" stroke-linecap="round" stroke-linejoin="round"/>
<path d="M352.24 60.0046C356.2 53.982 354.54 45.8817 348.532 41.912C342.525 37.9424 334.445 39.6066 330.485 45.6292C326.525 51.6518 328.185 59.7521 334.193 63.7218C340.2 67.6914 348.281 66.0272 352.24 60.0046Z" fill="white" stroke="#263238" stroke-linecap="round" stroke-linejoin="round"/>
<path d="M331.905 50.8059L332.33 52.1146H333.704L332.59 52.9233L333.014 54.2373L331.905 53.4233L330.791 54.2373L331.216 52.9233L330.106 52.1146H331.481L331.905 50.8059Z" fill="#512210" stroke="#263238" stroke-width="0.5" stroke-linecap="round" stroke-linejoin="round"/>
<path d="M336.618 50.8059L337.043 52.1146H338.417L337.308 52.9233L337.727 54.2373L336.618 53.4233L335.509 54.2373L335.934 52.9233L334.819 52.1146H336.194L336.618 50.8059Z" fill="#512210" stroke="#263238" stroke-width="0.5" stroke-linecap="round" stroke-linejoin="round"/>
<path d="M341.331 50.8059L341.755 52.1146H343.13L342.021 52.9233L342.445 54.2373L341.331 53.4233L340.222 54.2373L340.646 52.9233L339.537 52.1146H340.906L341.331 50.8059Z" fill="#512210" stroke="#263238" stroke-width="0.5" stroke-linecap="round" stroke-linejoin="round"/>
<path d="M346.048 50.8059L346.473 52.1146H347.847L346.733 52.9233L347.157 54.2373L346.048 53.4233L344.934 54.2373L345.358 52.9233L344.249 52.1146H345.623L346.048 50.8059Z" fill="#512210" stroke="#263238" stroke-width="0.5" stroke-linecap="round" stroke-linejoin="round"/>
<path d="M350.761 50.8059L351.185 52.1146H352.56L351.445 52.9233L351.875 54.2373L350.761 53.4233L349.652 54.2373L350.076 52.9233L348.962 52.1146H350.336L350.761 50.8059Z" fill="#512210" stroke="#263238" stroke-width="0.5" stroke-linecap="round" stroke-linejoin="round"/>
<path d="M332.814 118.636C332.655 118.558 332.507 118.46 332.373 118.343C332.212 118.204 332.06 118.055 331.917 117.897C331.776 117.741 331.647 117.576 331.53 117.402H331.381C330.991 117.422 330.603 117.332 330.261 117.141C329.982 116.965 329.773 116.698 329.667 116.386C329.539 116.011 329.478 115.617 329.487 115.221V112.784C329.476 112.393 329.537 112.004 329.667 111.635C329.775 111.329 329.985 111.07 330.261 110.901C330.604 110.714 330.991 110.626 331.381 110.645C331.776 110.624 332.169 110.713 332.517 110.901C332.795 111.069 333.006 111.328 333.116 111.635C333.246 112.004 333.307 112.393 333.297 112.784V115.279C333.298 115.569 333.268 115.858 333.207 116.141C333.155 116.381 333.053 116.607 332.909 116.806C332.774 116.997 332.591 117.15 332.379 117.247L332.596 117.482L332.824 117.716C332.894 117.778 332.969 117.835 333.047 117.886L332.814 118.636ZM331.381 116.508C331.456 116.519 331.532 116.515 331.605 116.497C331.678 116.478 331.747 116.445 331.807 116.4C331.868 116.354 331.918 116.297 331.956 116.231C331.994 116.166 332.019 116.094 332.028 116.019C332.061 115.854 332.077 115.686 332.076 115.518V112.459C332.078 112.292 332.062 112.124 332.028 111.959C332.002 111.824 331.934 111.701 331.832 111.608C331.701 111.514 331.542 111.469 331.381 111.481C331.224 111.468 331.067 111.514 330.941 111.608C330.837 111.699 330.769 111.823 330.75 111.959C330.716 112.124 330.7 112.292 330.702 112.459V115.518C330.701 115.686 330.717 115.854 330.75 116.019C330.77 116.157 330.838 116.285 330.941 116.38C331.067 116.475 331.224 116.52 331.381 116.508Z" fill="#263238"/>
<path d="M336.008 117.423C335.609 117.446 335.213 117.352 334.867 117.152C334.592 116.971 334.391 116.697 334.299 116.38C334.189 115.991 334.138 115.588 334.145 115.183V110.693H335.323V115.327C335.324 115.523 335.338 115.718 335.366 115.912C335.384 116.075 335.451 116.229 335.557 116.354C335.615 116.413 335.686 116.459 335.764 116.488C335.842 116.518 335.925 116.53 336.008 116.524C336.093 116.532 336.18 116.521 336.26 116.491C336.341 116.462 336.414 116.415 336.475 116.354C336.575 116.226 336.639 116.073 336.661 115.912C336.693 115.719 336.709 115.523 336.708 115.327V110.693H337.876V115.183C337.884 115.588 337.832 115.991 337.722 116.38C337.631 116.696 337.431 116.969 337.159 117.152C336.81 117.353 336.41 117.447 336.008 117.423Z" fill="#263238"/>
<path d="M338.454 117.333L339.781 110.693H341.07L342.397 117.333H341.277L341.017 115.8H339.86L339.59 117.333H338.454ZM339.982 115.029H340.885L340.434 112.241L339.982 115.029Z" fill="#263238"/>
<path d="M343.028 117.333V110.693H344.238V116.508H345.83V117.343L343.028 117.333Z" fill="#263238"/>
<path d="M346.473 117.333V110.693H347.667V117.333H346.473Z" fill="#263238"/>
<path d="M349.348 117.333V111.587H348.287V110.693H351.593V111.587H350.532V117.333H349.348Z" fill="#263238"/>
<path d="M353.127 117.333V114.8L351.784 110.693H352.893L353.711 113.353L354.48 110.693H355.584L354.257 114.8V117.333H353.127Z" fill="#263238"/>
<path d="M222.35 29.3078L223.99 41.3523L216.343 43.177C214.246 44.6004 212.056 45.8818 209.789 47.0128C206.69 48.4704 204.509 49.0184 203.421 49.0184C202.333 49.0184 198.321 47.3745 198.321 47.3745C198.321 47.3745 201.054 32.5902 204.159 30.9464C207.263 29.3025 215.419 26.9351 222.35 29.3078Z" fill="white" stroke="#263238" stroke-linecap="round" stroke-linejoin="round"/>
<path d="M183.462 28.8876C183.462 28.8876 197.132 28.0151 199.133 28.0151C201.134 28.0151 205.586 32.984 205.586 32.984C205.586 32.984 213.737 46.5873 213.052 47.4012C211.333 49.4441 209.959 47.9651 209.959 47.9651L209.646 49.4015C209.646 49.4015 208.319 51.0507 201.585 50.141C194.851 49.2313 192.664 47.1937 191.04 46.816C189.417 46.4383 180.57 43.9805 180.57 43.9805L183.462 28.8876Z" fill="white" stroke="#263238" stroke-linecap="round" stroke-linejoin="round"/>
<path d="M209.958 47.9386L207.708 43.5868" stroke="#263238" stroke-linecap="round" stroke-linejoin="round"/>
<path d="M207.708 49.9547L204.917 45.1401" stroke="#263238" stroke-linecap="round" stroke-linejoin="round"/>
<path d="M218.513 30.3984C218.513 30.3984 204.837 26.201 202.131 29.1216C199.425 32.0423 193.571 39.7084 194.845 40.6235C196.118 41.5385 200.682 38.0646 201.744 37.3357C202.546 36.7529 203.28 36.08 203.93 35.3301C205.198 36.5859 206.775 37.4834 208.501 37.9318C210.227 38.3802 212.04 38.3636 213.758 37.8837" fill="white"/>
<path d="M218.513 30.3984C218.513 30.3984 204.837 26.201 202.131 29.1216C199.425 32.0423 193.571 39.7084 194.845 40.6235C196.118 41.5385 200.682 38.0645 201.744 37.3357C202.546 36.7529 203.28 36.08 203.93 35.3301C205.198 36.5859 206.775 37.4834 208.501 37.9318C210.227 38.3802 212.04 38.3636 213.758 37.8837" stroke="#263238" stroke-linecap="round" stroke-linejoin="round"/>
<path d="M203.495 44.8796C203.495 44.8796 202.185 49.5718 202.715 50.3698C202.913 50.7037 203.216 50.9628 203.575 51.1071C203.935 51.2513 204.332 51.2727 204.705 51.1678C205.153 50.9827 205.561 50.7116 205.905 50.3698C205.905 50.3698 206.101 46.3798 205.507 45.3796C204.912 44.3795 204.392 43.6826 203.495 44.8796Z" fill="white" stroke="#263238" stroke-linecap="round" stroke-linejoin="round"/>
<path d="M200.008 45.4807C200.008 45.4807 198.713 50.1729 199.212 50.9709C199.411 51.3052 199.714 51.5646 200.075 51.7088C200.435 51.853 200.833 51.8742 201.207 51.7689C201.652 51.5802 202.057 51.3096 202.401 50.9709C202.401 50.9709 202.598 46.9756 202.003 45.9808C201.409 44.9859 200.905 44.2837 200.008 45.4807Z" fill="white" stroke="#263238" stroke-linecap="round" stroke-linejoin="round"/>
<path d="M196.506 45.6456C196.506 45.6456 195.514 49.2473 195.896 49.8591C196.047 50.1127 196.276 50.3098 196.55 50.4203C196.823 50.5308 197.124 50.5486 197.409 50.4709C197.751 50.3281 198.063 50.1203 198.327 49.8591C198.327 49.8591 198.48 46.7948 198.024 46.0287C197.568 45.2626 197.191 44.7306 196.506 45.6456Z" fill="white" stroke="#263238" stroke-linecap="round" stroke-linejoin="round"/>
<path d="M192.373 45.7998C192.373 45.7998 191.592 48.1832 191.895 48.5875C192.034 48.7639 192.222 48.8959 192.435 48.9677C192.648 49.0394 192.877 49.0478 193.094 48.9918C193.357 48.9014 193.601 48.7645 193.816 48.5875C193.816 48.5875 193.938 46.5606 193.577 46.0552C193.216 45.5498 192.914 45.22 192.373 45.7998Z" fill="white" stroke="#263238" stroke-linecap="round" stroke-linejoin="round"/>
<path d="M224.79 25.5921L219.617 26.6783L223.844 46.9076L229.017 45.8213L224.79 25.5921Z" fill="white" stroke="#263238" stroke-linecap="round" stroke-linejoin="round"/>
<path d="M231.468 23.9212L223.188 25.6597L227.903 48.2268L236.183 46.4883L231.468 23.9212Z" fill="#512210" stroke="#263238" stroke-linecap="round" stroke-linejoin="round"/>
<path d="M177.255 45.8212L182.428 46.9075L186.654 26.6783L181.481 25.592L177.255 45.8212Z" fill="white" stroke="#263238" stroke-linecap="round" stroke-linejoin="round"/>
<path d="M170.091 46.4877L178.37 48.2262L183.085 25.659L174.806 23.9206L170.091 46.4877Z" fill="#263238" stroke="#263238" stroke-linecap="round" stroke-linejoin="round"/>
<path d="M174.589 62.3504C174.189 62.3731 173.791 62.2729 173.448 62.0631C173.175 61.8735 172.971 61.5986 172.87 61.2811C172.757 60.9106 172.701 60.5248 172.705 60.1373V57.7645C172.7 57.3647 172.755 56.9664 172.87 56.5835C172.969 56.2674 173.173 55.995 173.448 55.8121C173.795 55.6149 174.191 55.5225 174.589 55.5461C174.957 55.5288 175.323 55.6077 175.651 55.7749C175.896 55.9345 176.082 56.1698 176.181 56.4452C176.293 56.7702 176.347 57.1123 176.341 57.456V57.988H175.184V57.456C175.185 57.287 175.174 57.1181 175.152 56.9506C175.143 56.8144 175.089 56.6852 174.998 56.5835C174.937 56.5326 174.867 56.4945 174.791 56.4717C174.716 56.4488 174.636 56.4416 174.558 56.4505C174.477 56.4434 174.395 56.4525 174.318 56.4771C174.24 56.5018 174.168 56.5415 174.106 56.5941C174.006 56.6988 173.941 56.833 173.921 56.9772C173.895 57.1533 173.882 57.3312 173.884 57.5092V60.3926C173.879 60.5926 173.896 60.7925 173.937 60.9885C173.964 61.1303 174.042 61.257 174.157 61.3444C174.271 61.4318 174.414 61.4737 174.558 61.4619C174.635 61.4713 174.714 61.4633 174.788 61.4384C174.863 61.4136 174.931 61.3726 174.987 61.3183C175.078 61.2096 175.133 61.0761 175.147 60.9353C175.173 60.7592 175.186 60.5813 175.184 60.4033V59.7968H176.341V60.3288C176.351 60.6897 176.299 61.0496 176.187 61.3928C176.095 61.6836 175.908 61.9349 175.656 62.1057C175.331 62.2877 174.961 62.3727 174.589 62.3504Z" fill="#263238"/>
<path d="M179.026 62.3504C178.628 62.3733 178.231 62.279 177.885 62.079C177.61 61.898 177.409 61.6244 177.318 61.3076C177.209 60.9182 177.157 60.515 177.164 60.1106V55.6152H178.342V60.249C178.339 60.4449 178.353 60.6407 178.384 60.8342C178.401 60.9991 178.468 61.1549 178.575 61.281C178.704 61.3874 178.865 61.4456 179.032 61.4456C179.198 61.4456 179.36 61.3874 179.488 61.281C179.591 61.1522 179.657 60.9977 179.679 60.8342C179.71 60.6407 179.724 60.4449 179.722 60.249V55.6152H180.894V60.116C180.902 60.5207 180.849 60.9244 180.735 61.313C180.648 61.6287 180.45 61.9025 180.178 62.0844C179.828 62.2836 179.428 62.3761 179.026 62.3504Z" fill="#263238"/>
<path d="M183.51 62.3503C183.163 62.3619 182.819 62.2812 182.513 62.1163C182.242 61.9595 182.029 61.7186 181.908 61.43C181.76 61.0797 181.682 60.7037 181.679 60.3234L182.714 60.1159C182.721 60.3458 182.753 60.5742 182.81 60.7969C182.848 60.9676 182.931 61.1252 183.049 61.2544C183.104 61.3084 183.169 61.3505 183.242 61.3779C183.314 61.4054 183.391 61.4177 183.468 61.414C183.547 61.4215 183.626 61.4094 183.699 61.3788C183.772 61.3481 183.837 61.3 183.887 61.2385C183.972 61.1054 184.015 60.9495 184.009 60.7916C184.021 60.539 183.952 60.2893 183.813 60.0787C183.659 59.8717 183.481 59.6841 183.282 59.5201L182.449 58.7806C182.224 58.5891 182.034 58.3606 181.886 58.105C181.74 57.821 181.669 57.5041 181.679 57.1846C181.667 56.9617 181.701 56.7385 181.779 56.5296C181.858 56.3207 181.979 56.1306 182.136 55.9717C182.483 55.6726 182.931 55.5201 183.388 55.5461C183.655 55.5384 183.92 55.5855 184.168 55.6844C184.365 55.7717 184.535 55.9093 184.662 56.0834C184.786 56.2595 184.879 56.4556 184.938 56.6633C184.998 56.8876 185.035 57.1176 185.049 57.3495L184.02 57.5251C184.012 57.3461 183.989 57.1682 183.951 56.9931C183.923 56.8486 183.857 56.7144 183.76 56.6047C183.707 56.5563 183.645 56.5191 183.577 56.4954C183.51 56.4716 183.438 56.4618 183.367 56.4664C183.289 56.4635 183.212 56.4778 183.141 56.5081C183.069 56.5384 183.005 56.5841 182.953 56.642C182.855 56.7676 182.804 56.924 182.81 57.0835C182.808 57.2699 182.856 57.4534 182.948 57.6155C183.062 57.7814 183.198 57.9316 183.351 58.0624L184.174 58.7913C184.448 59.0222 184.684 59.2951 184.874 59.5999C185.075 59.9372 185.176 60.3245 185.166 60.7171C185.172 61.013 185.099 61.3051 184.954 61.563C184.819 61.8055 184.618 62.0047 184.375 62.1375C184.111 62.2839 183.812 62.3573 183.51 62.3503Z" fill="#263238"/>
<path d="M186.546 62.244V56.509H185.484V55.6152H188.785V56.509H187.75V62.244H186.546Z" fill="#263238"/>
<path d="M191.162 62.3504C190.771 62.3684 190.384 62.2763 190.042 62.0844C189.764 61.9105 189.554 61.6455 189.448 61.3343C189.32 60.9596 189.259 60.5652 189.268 60.1692V57.6847C189.258 57.2921 189.319 56.901 189.448 56.5303C189.556 56.2243 189.766 55.965 190.042 55.7961C190.395 55.63 190.78 55.5439 191.17 55.5439C191.56 55.5439 191.945 55.63 192.298 55.7961C192.573 55.9666 192.782 56.2253 192.892 56.5303C193.023 56.9006 193.086 57.2918 193.078 57.6847V60.1745C193.086 60.5674 193.023 60.9585 192.892 61.3289C192.782 61.6391 192.573 61.9045 192.298 62.0844C191.951 62.2776 191.558 62.3697 191.162 62.3504ZM191.162 61.4566C191.322 61.4681 191.48 61.4209 191.608 61.3236C191.709 61.2262 191.778 61.0999 191.804 60.9618C191.837 60.7972 191.853 60.6297 191.852 60.4618V57.4028C191.854 57.2349 191.838 57.0672 191.804 56.9027C191.775 56.7703 191.706 56.6498 191.608 56.5569C191.48 56.4615 191.321 56.4162 191.162 56.4292C191.008 56.4176 190.855 56.4631 190.732 56.5569C190.63 56.6467 190.561 56.7686 190.536 56.9027C190.498 57.0666 190.48 57.2345 190.483 57.4028V60.4618C190.482 60.6297 190.498 60.7972 190.531 60.9618C190.553 61.1001 190.62 61.2271 190.722 61.3236C190.848 61.4192 191.004 61.4664 191.162 61.4566Z" fill="#263238"/>
<path d="M193.953 62.2439L194.065 55.5992H195.317L196.262 60.201L197.238 55.5992H198.469L198.575 62.2439H197.673L197.578 57.6262L196.633 62.2439H195.906L194.951 57.6102L194.861 62.2439H193.953Z" fill="#263238"/>
<path d="M199.531 62.244V55.6152H202.312V56.4718H200.72V58.3816H201.956V59.2275H200.72V61.4247H202.312V62.244H199.531Z" fill="#263238"/>
<path d="M203.007 62.244V55.6153H204.599C204.982 55.606 205.364 55.6599 205.729 55.7749C206.019 55.865 206.268 56.0531 206.435 56.3069C206.613 56.632 206.695 57.0008 206.674 57.3709C206.677 57.6139 206.654 57.8565 206.605 58.0944C206.56 58.2872 206.475 58.4684 206.355 58.6264C206.226 58.7845 206.058 58.9056 205.867 58.9775L206.79 62.2493H205.581L204.779 59.2063H204.222V62.244H203.007ZM204.217 58.4402H204.594C204.776 58.4439 204.957 58.4076 205.124 58.3338C205.264 58.2697 205.372 58.1531 205.427 58.0093C205.491 57.823 205.522 57.6266 205.517 57.4294C205.535 57.166 205.47 56.9035 205.331 56.6793C205.242 56.5857 205.132 56.5144 205.011 56.471C204.889 56.4276 204.759 56.4133 204.631 56.4292H204.19L204.217 58.4402Z" fill="#263238"/>
<path d="M209.565 62.244V55.6152H210.775V61.4247H212.367V62.244H209.565Z" fill="#263238"/>
<path d="M214.724 62.3504C214.333 62.3684 213.945 62.2763 213.604 62.0844C213.325 61.9105 213.115 61.6455 213.01 61.3343C212.881 60.9596 212.82 60.5652 212.829 60.1692V57.6847C212.819 57.2921 212.88 56.901 213.01 56.5303C213.118 56.2243 213.327 55.965 213.604 55.7961C213.957 55.63 214.342 55.5439 214.732 55.5439C215.121 55.5439 215.506 55.63 215.859 55.7961C216.134 55.9666 216.344 56.2253 216.454 56.5303C216.587 56.9 216.65 57.2916 216.639 57.6847V60.1745C216.65 60.5676 216.587 60.9591 216.454 61.3289C216.343 61.6391 216.134 61.9045 215.859 62.0844C215.513 62.2776 215.12 62.3697 214.724 62.3504ZM214.724 61.4566C214.883 61.4681 215.042 61.4209 215.169 61.3236C215.272 61.2276 215.341 61.1006 215.366 60.9618C215.399 60.7972 215.415 60.6297 215.414 60.4618V57.4028C215.415 57.2349 215.399 57.0672 215.366 56.9027C215.339 56.7694 215.27 56.6482 215.169 56.5569C215.041 56.4615 214.883 56.4162 214.724 56.4292C214.57 56.4176 214.417 56.4631 214.294 56.5569C214.191 56.6467 214.122 56.7686 214.097 56.9027C214.064 57.0672 214.048 57.2349 214.05 57.4028V60.4618C214.047 60.6295 214.061 60.797 214.092 60.9618C214.115 61.1001 214.182 61.2271 214.283 61.3236C214.41 61.4192 214.566 61.4664 214.724 61.4566Z" fill="#263238"/>
<path d="M218.391 62.244V59.7063L217.043 55.6152H218.173L218.991 58.2486L219.76 55.6152H220.864L219.537 59.7223V62.244H218.391Z" fill="#263238"/>
<path d="M220.858 62.2439L222.185 55.5992H223.48L224.801 62.2439H223.682L223.422 60.7118H222.265L221.994 62.2439H220.858ZM222.392 59.9404H223.289L222.838 57.1527L222.392 59.9404Z" fill="#263238"/>
<path d="M225.433 62.244V55.6152H226.643V61.4247H228.235V62.244H225.433Z" fill="#263238"/>
<path d="M229.211 62.244V56.509H228.149V55.6152H231.455V56.509H230.394V62.244H229.211Z" fill="#263238"/>
<path d="M232.989 62.2439V59.7063L231.646 55.5992H232.777L233.594 58.2326L234.364 55.5992H235.467L234.141 59.7063V62.2439H232.989Z" fill="#263238"/>
<path d="M66.5349 68.6653V63.1591L61.0531 62.5473C60.7577 61.4 60.3059 60.299 59.7105 59.2755L63.1758 54.9343L59.2913 51.072L54.9823 54.5247C53.9622 53.9245 52.8663 53.4647 51.724 53.1575L51.1137 47.614H45.6372L45.0164 53.1043C43.8705 53.4036 42.7707 53.8582 41.7474 54.4555L37.4172 50.9816L33.538 54.8758L36.9874 59.1957C36.387 60.218 35.9265 61.3167 35.6182 62.4621L30.1152 63.0739V68.5748L35.597 69.1866C35.8938 70.3351 36.3454 71.4377 36.9396 72.4637L33.4744 76.8049L37.3588 80.6938L41.6678 77.2358C42.6868 77.8382 43.783 78.2982 44.9261 78.603L45.5364 84.1252H51.0288L51.6338 78.6296C52.7794 78.3321 53.8792 77.8793 54.9027 77.2837L59.2329 80.7523L63.1121 76.8634L59.6628 72.5435C60.2631 71.5212 60.7236 70.4225 61.0319 69.2771L66.5349 68.6653ZM48.3277 72.4371C47.0313 72.4382 45.7637 72.0537 44.6852 71.3324C43.6068 70.6111 42.7659 69.5854 42.2691 68.3849C41.7722 67.1845 41.6417 65.8633 41.894 64.5884C42.1462 63.3136 42.77 62.1424 43.6863 61.223C44.6027 60.3036 45.7704 59.6773 47.0419 59.4234C48.3133 59.1694 49.6313 59.2992 50.8292 59.7964C52.027 60.2935 53.0509 61.1356 53.7713 62.2162C54.4916 63.2968 54.8761 64.5672 54.8761 65.8669C54.8761 67.6085 54.1864 69.2789 52.9585 70.5109C51.7306 71.7429 50.0649 72.4357 48.3277 72.4371Z" fill="#263238" stroke="#263238" stroke-linecap="round" stroke-linejoin="round"/>
<path d="M88.0905 57.6209L87.4803 53.9767L83.7656 54.1788C83.4398 53.4537 83.0186 52.7756 82.5132 52.1626L84.3759 48.9014L81.3776 46.7734L78.9047 49.5398C78.1631 49.2574 77.3864 49.0784 76.5963 49.0078L75.5827 45.4221L71.9476 46.0286L72.1546 49.7526C71.429 50.078 70.7507 50.5003 70.1381 51.0081L66.8639 49.1461L64.7412 52.136L67.5007 54.6098C67.2189 55.3532 67.0404 56.1318 66.97 56.924L63.3721 57.988L63.9823 61.6268L67.697 61.4247C68.019 62.1507 68.4386 62.829 68.9441 63.441L67.1345 66.7021L70.1328 68.8301L72.6057 66.0637C73.3472 66.3461 74.1239 66.5251 74.9141 66.5957L75.9276 70.1814L79.5627 69.5749L79.3557 65.8509C80.0814 65.5255 80.7597 65.1032 81.3723 64.5954L84.62 66.4148L86.7426 63.4037L83.9832 60.9299C84.2623 60.1857 84.4408 59.4074 84.5138 58.6157L88.0905 57.6209ZM76.4477 62.1376C75.5908 62.2801 74.7109 62.1649 73.9193 61.8063C73.1276 61.4478 72.4598 60.862 72.0001 60.1231C71.5404 59.3842 71.3095 58.5253 71.3365 57.6548C71.3636 56.7844 71.6474 55.9416 72.1521 55.2328C72.6568 54.524 73.3597 53.9811 74.1721 53.6726C74.9844 53.3642 75.8698 53.3041 76.7162 53.4998C77.5626 53.6956 78.3322 54.1385 78.9276 54.7726C79.523 55.4067 79.9176 56.2035 80.0615 57.0623C80.2537 58.2133 79.9829 59.3938 79.3085 60.3451C78.6342 61.2965 77.6111 61.941 76.4636 62.1376H76.4477Z" fill="#512210" stroke="#263238" stroke-linecap="round" stroke-linejoin="round"/>
<path d="M79.4888 91.1422L78.8786 87.498L75.1639 87.7001C74.8381 86.975 74.4169 86.2969 73.9115 85.6839L75.7264 82.428L72.7228 80.3L70.2552 83.0664C69.5126 82.7877 68.7363 82.6088 67.9468 82.5344L66.928 78.9487L63.2982 79.5605L63.4998 83.2845C62.7754 83.6122 62.0974 84.0343 61.4833 84.5401L58.2356 82.7259L56.113 85.7317L58.8724 88.2109C58.5913 88.9526 58.4128 89.7294 58.3418 90.5197L54.7598 91.5039L55.3647 95.1481L59.0794 94.9407C59.402 95.6691 59.8234 96.3494 60.3318 96.9623L58.5169 100.218L61.5151 102.346L63.9881 99.5797C64.7296 99.8621 65.5063 100.041 66.2965 100.112L67.31 103.703L70.9451 103.091L70.7434 99.3669C71.4676 99.0441 72.1443 98.6234 72.7547 98.1167L76.0077 99.9308L78.1303 96.925L75.3709 94.4459C75.6501 93.7017 75.8286 92.9234 75.9015 92.1317L79.4888 91.1422ZM67.8513 95.6642C66.993 95.8091 66.1112 95.6955 65.3173 95.3378C64.5235 94.9802 63.8533 94.3945 63.3915 93.6548C62.9298 92.9152 62.6973 92.0549 62.7234 91.1827C62.7496 90.3106 63.0332 89.4658 63.5383 88.7553C64.0435 88.0448 64.7476 87.5004 65.5614 87.1912C66.3753 86.8819 67.2623 86.8216 68.1104 87.0179C68.9584 87.2142 69.7293 87.6583 70.3255 88.2939C70.9218 88.9296 71.3165 89.7283 71.4598 90.5889C71.6518 91.7415 71.3796 92.9234 70.703 93.875C70.0264 94.8266 69.0008 95.4701 67.8513 95.6642Z" fill="white" stroke="#263238" stroke-linecap="round" stroke-linejoin="round"/>
<path d="M45.197 117.423C44.8494 117.437 44.5045 117.356 44.1994 117.189C43.9317 117.031 43.7201 116.793 43.5944 116.508C43.4471 116.158 43.3696 115.782 43.3662 115.401L44.4275 115.194C44.4354 115.423 44.4656 115.651 44.5178 115.875C44.5564 116.044 44.6388 116.2 44.7566 116.327C44.8121 116.381 44.8779 116.422 44.95 116.45C45.022 116.477 45.0988 116.49 45.1758 116.487C45.2547 116.495 45.3346 116.483 45.4078 116.453C45.4811 116.422 45.5455 116.373 45.595 116.311C45.6824 116.179 45.7252 116.022 45.7171 115.864C45.728 115.612 45.6593 115.362 45.5207 115.151C45.3672 114.952 45.1889 114.773 44.99 114.619L44.141 113.848C43.9178 113.657 43.7293 113.428 43.5838 113.172C43.4374 112.886 43.3661 112.568 43.3768 112.247C43.364 112.024 43.398 111.801 43.4766 111.592C43.5552 111.383 43.6767 111.193 43.8332 111.034C44.1803 110.735 44.629 110.583 45.0856 110.608C45.3511 110.6 45.6154 110.649 45.8603 110.752C46.0569 110.839 46.2271 110.977 46.3539 111.151C46.4793 111.324 46.5727 111.519 46.6298 111.725C46.6885 111.95 46.7275 112.18 46.7466 112.412L45.6852 112.592C45.6765 112.414 45.6534 112.236 45.6162 112.06C45.5941 111.917 45.5293 111.784 45.4305 111.677C45.3771 111.628 45.3142 111.591 45.2458 111.567C45.1773 111.543 45.1047 111.534 45.0325 111.539C44.9549 111.536 44.8776 111.55 44.8061 111.581C44.7346 111.611 44.6706 111.657 44.6186 111.715C44.5207 111.838 44.4699 111.993 44.4753 112.151C44.4722 112.337 44.5199 112.521 44.6133 112.683C44.7278 112.849 44.8634 112.999 45.0166 113.13L45.871 113.848C46.1438 114.079 46.3784 114.352 46.5661 114.657C46.7691 114.993 46.8705 115.381 46.858 115.774C46.8638 116.069 46.7925 116.361 46.651 116.62C46.5145 116.864 46.3122 117.065 46.0673 117.2C45.8016 117.349 45.5016 117.426 45.197 117.423Z" fill="#263238"/>
<path d="M49.3839 117.423C48.9853 117.446 48.5888 117.352 48.243 117.152C47.968 116.971 47.7666 116.697 47.6751 116.38C47.5654 115.991 47.5136 115.588 47.5213 115.183V110.693H48.6993V115.327C48.6978 115.523 48.7102 115.718 48.7365 115.912C48.7589 116.075 48.8269 116.228 48.9328 116.354C49.0599 116.463 49.2218 116.523 49.3892 116.523C49.5566 116.523 49.7185 116.463 49.8456 116.354C49.9476 116.226 50.0136 116.074 50.0366 115.912C50.0647 115.718 50.0789 115.523 50.0791 115.327V110.693H51.2518V115.183C51.2607 115.588 51.207 115.992 51.0926 116.38C51.0119 116.692 50.824 116.965 50.562 117.152C50.2051 117.358 49.7948 117.452 49.3839 117.423Z" fill="#263238"/>
<path d="M52.1963 117.333V110.693H54.1279C54.465 110.68 54.7998 110.755 55.099 110.911C55.3403 111.063 55.5263 111.289 55.6297 111.555C55.7543 111.881 55.8138 112.228 55.8048 112.576C55.8225 112.944 55.7477 113.31 55.5872 113.64C55.4499 113.896 55.2314 114.098 54.9664 114.215C54.6719 114.343 54.3531 114.404 54.0324 114.396H53.3744V117.348L52.1963 117.333ZM53.4062 113.529H53.8679C54.0499 113.541 54.2322 113.508 54.3986 113.433C54.4598 113.403 54.514 113.361 54.5579 113.308C54.6018 113.256 54.6343 113.195 54.6533 113.13C54.7059 112.948 54.7292 112.76 54.7223 112.571C54.7274 112.375 54.7096 112.178 54.6692 111.986C54.6403 111.848 54.5583 111.728 54.441 111.651C54.2754 111.573 54.0932 111.536 53.9103 111.544H53.4487L53.4062 113.529Z" fill="#263238"/>
<path d="M56.4736 117.333V110.693H58.4212C58.7583 110.68 59.0931 110.755 59.3923 110.911C59.6335 111.063 59.8196 111.289 59.923 111.555C60.0476 111.881 60.1071 112.228 60.0981 112.576C60.1158 112.944 60.0409 113.31 59.8805 113.64C59.7431 113.896 59.5246 114.098 59.2596 114.215C58.9651 114.343 58.6464 114.404 58.3257 114.396H57.6729V117.348L56.4736 117.333ZM57.6889 113.529H58.1452C58.3273 113.541 58.5095 113.508 58.6759 113.433C58.7371 113.403 58.7914 113.361 58.8353 113.308C58.8791 113.256 58.9116 113.195 58.9306 113.13C58.9833 112.948 59.0065 112.76 58.9996 112.571C59.0047 112.375 58.9869 112.178 58.9465 111.986C58.9176 111.848 58.8356 111.728 58.7184 111.651C58.5527 111.573 58.3706 111.536 58.1877 111.544H57.7313L57.6889 113.529Z" fill="#263238"/>
<path d="M62.5865 117.423C62.1962 117.444 61.808 117.353 61.4668 117.162C61.1865 116.987 60.9749 116.72 60.8671 116.407C60.7388 116.032 60.6777 115.638 60.6867 115.242V112.784C60.6761 112.393 60.7373 112.004 60.8671 111.635C60.9772 111.328 61.1889 111.069 61.4668 110.901C61.8095 110.714 62.197 110.626 62.5865 110.645C62.9796 110.624 63.371 110.712 63.7168 110.901C63.9936 111.071 64.2049 111.329 64.3165 111.635C64.4463 112.004 64.5075 112.393 64.4969 112.784V115.279C64.5061 115.67 64.4449 116.059 64.3165 116.428C64.2054 116.739 63.9945 117.005 63.7168 117.184C63.3694 117.367 62.9781 117.449 62.5865 117.423ZM62.5865 116.529C62.7456 116.542 62.904 116.497 63.0323 116.402C63.1314 116.303 63.1981 116.177 63.2233 116.04C63.2562 115.875 63.2722 115.708 63.2711 115.54V112.481C63.2728 112.313 63.2568 112.145 63.2233 111.981C63.1991 111.846 63.1321 111.723 63.0323 111.629C62.9003 111.546 62.7476 111.502 62.5918 111.502C62.436 111.502 62.2833 111.546 62.1514 111.629C62.0499 111.722 61.981 111.845 61.955 111.981C61.9216 112.145 61.9056 112.313 61.9073 112.481V115.54C61.9071 115.707 61.9213 115.875 61.9497 116.04C61.9542 116.116 61.975 116.19 62.0107 116.258C62.0464 116.325 62.0962 116.384 62.1566 116.43C62.217 116.477 62.2866 116.51 62.3608 116.527C62.435 116.544 62.512 116.545 62.5865 116.529Z" fill="#263238"/>
<path d="M65.3887 117.333V110.693H66.9807C67.3654 110.684 67.7491 110.738 68.1163 110.853C68.4047 110.942 68.6526 111.131 68.8168 111.385C68.998 111.709 69.0827 112.078 69.0609 112.449C69.0626 112.69 69.0377 112.931 68.9866 113.167C68.9429 113.36 68.8578 113.542 68.7372 113.699C68.6087 113.857 68.44 113.976 68.249 114.045L69.1723 117.317H67.9624L67.1611 114.274H66.6304V117.317L65.3887 117.333ZM66.5986 113.529H66.9754C67.1681 113.538 67.3605 113.504 67.5379 113.428C67.675 113.359 67.7812 113.242 67.835 113.098C67.9 112.914 67.9305 112.719 67.9253 112.523C67.9462 112.26 67.881 111.996 67.7395 111.773C67.6519 111.679 67.5431 111.607 67.4222 111.564C67.3012 111.52 67.1717 111.506 67.0443 111.523H66.5986V113.529Z" fill="#263238"/>
<path d="M70.6102 117.333V111.587H69.5488V110.693H72.8496V111.587H71.8148V117.333H70.6102Z" fill="#263238"/>
<path d="M39.0411 166.862H33.5752V183.21H39.0411V166.862Z" fill="#263238" stroke="#263238" stroke-width="0.5" stroke-linecap="round" stroke-linejoin="round"/>
<path d="M47.6329 172.74H42.167V183.21H47.6329V172.74Z" fill="#512210" stroke="#263238" stroke-linecap="round" stroke-linejoin="round"/>
<path d="M56.2237 163.281H50.7578V183.21H56.2237V163.281Z" fill="#263238" stroke="#263238" stroke-width="0.5" stroke-linecap="round" stroke-linejoin="round"/>
<path d="M64.8155 167.404H59.3496V183.21H64.8155V167.404Z" fill="#512210" stroke="#263238" stroke-linecap="round" stroke-linejoin="round"/>
<path d="M73.4073 163.792H67.9414V183.21H73.4073V163.792Z" fill="#263238" stroke="#263238" stroke-width="0.5" stroke-linecap="round" stroke-linejoin="round"/>
<path d="M81.9932 152.285H76.5273V183.21H81.9932V152.285Z" fill="#512210" stroke="#263238" stroke-linecap="round" stroke-linejoin="round"/>
<path d="M88.1387 151.955H91.3386" stroke="#263238" stroke-width="0.5" stroke-linecap="round" stroke-linejoin="round"/>
<path d="M88.1387 158.206H91.3386" stroke="#263238" stroke-width="0.5" stroke-linecap="round" stroke-linejoin="round"/>
<path d="M88.1387 164.462H91.3386" stroke="#263238" stroke-width="0.5" stroke-linecap="round" stroke-linejoin="round"/>
<path d="M88.1387 170.714H91.3386" stroke="#263238" stroke-width="0.5" stroke-linecap="round" stroke-linejoin="round"/>
<path d="M88.1387 176.964H91.3386" stroke="#263238" stroke-width="0.5" stroke-linecap="round" stroke-linejoin="round"/>
<path d="M88.1387 183.216H91.3386" stroke="#263238" stroke-width="0.5" stroke-linecap="round" stroke-linejoin="round"/>
<path d="M36.7012 160.834L45.0804 165.91L53.7886 156.557L62.3907 157.286L70.7328 153.966L80.1628 141.523" stroke="#263238" stroke-linecap="round" stroke-linejoin="round"/>
<path d="M37.7565 160.834C37.7565 160.624 37.6942 160.418 37.5776 160.243C37.461 160.068 37.2952 159.932 37.1013 159.851C36.9073 159.771 36.6939 159.75 36.4881 159.791C36.2822 159.832 36.0931 159.933 35.9446 160.082C35.7962 160.231 35.6951 160.42 35.6542 160.627C35.6132 160.833 35.6342 161.047 35.7146 161.241C35.7949 161.436 35.9309 161.602 36.1055 161.719C36.28 161.836 36.4852 161.898 36.6951 161.898C36.9766 161.898 37.2466 161.786 37.4456 161.587C37.6446 161.387 37.7565 161.116 37.7565 160.834Z" fill="#263238"/>
<path d="M46.1363 165.91C46.1363 165.699 46.0741 165.493 45.9575 165.318C45.8408 165.143 45.6751 165.007 45.4812 164.927C45.2872 164.846 45.0738 164.825 44.8679 164.866C44.6621 164.907 44.473 165.008 44.3245 165.157C44.1761 165.306 44.075 165.496 44.0341 165.702C43.9931 165.908 44.0141 166.122 44.0945 166.317C44.1748 166.511 44.3108 166.677 44.4854 166.794C44.6599 166.911 44.8651 166.974 45.075 166.974C45.3565 166.974 45.6264 166.861 45.8255 166.662C46.0245 166.462 46.1363 166.192 46.1363 165.91Z" fill="#263238"/>
<path d="M54.8443 156.557C54.8443 156.347 54.7821 156.141 54.6655 155.966C54.5489 155.791 54.3831 155.655 54.1892 155.574C53.9952 155.493 53.7818 155.472 53.576 155.513C53.3701 155.554 53.181 155.656 53.0325 155.805C52.8841 155.953 52.783 156.143 52.7421 156.349C52.7011 156.556 52.7221 156.77 52.8025 156.964C52.8828 157.159 53.0188 157.325 53.1934 157.442C53.3679 157.559 53.5731 157.621 53.783 157.621C54.0645 157.621 54.3345 157.509 54.5335 157.309C54.7325 157.11 54.8443 156.839 54.8443 156.557Z" fill="#263238"/>
<path d="M63.4469 157.286C63.4469 157.075 63.3846 156.87 63.268 156.695C63.1514 156.52 62.9856 156.383 62.7917 156.303C62.5978 156.222 62.3844 156.201 62.1785 156.242C61.9726 156.283 61.7835 156.385 61.6351 156.533C61.4866 156.682 61.3856 156.872 61.3446 157.078C61.3037 157.285 61.3247 157.499 61.405 157.693C61.4853 157.887 61.6214 158.054 61.7959 158.17C61.9704 158.287 62.1756 158.35 62.3856 158.35C62.667 158.35 62.937 158.238 63.136 158.038C63.3351 157.839 63.4469 157.568 63.4469 157.286Z" fill="#263238"/>
<path d="M71.7887 153.801C71.7887 153.591 71.7264 153.385 71.6098 153.21C71.4932 153.035 71.3274 152.899 71.1335 152.818C70.9396 152.738 70.7262 152.717 70.5203 152.758C70.3144 152.799 70.1253 152.9 69.9769 153.049C69.8284 153.198 69.7274 153.387 69.6864 153.594C69.6455 153.8 69.6665 154.014 69.7468 154.208C69.8271 154.403 69.9632 154.569 70.1377 154.686C70.3122 154.803 70.5174 154.865 70.7273 154.865C71.0088 154.865 71.2788 154.753 71.4778 154.554C71.6769 154.354 71.7887 154.083 71.7887 153.801Z" fill="#263238"/>
<path d="M81.2242 141.512C81.2242 141.302 81.162 141.096 81.0454 140.921C80.9287 140.746 80.763 140.61 80.569 140.529C80.3751 140.448 80.1617 140.427 79.9558 140.468C79.75 140.509 79.5608 140.611 79.4124 140.76C79.264 140.908 79.1629 141.098 79.122 141.304C79.081 141.511 79.102 141.725 79.1823 141.919C79.2627 142.114 79.3987 142.28 79.5732 142.397C79.7478 142.514 79.953 142.576 80.1629 142.576C80.4444 142.576 80.7143 142.464 80.9134 142.264C81.1124 142.065 81.2242 141.794 81.2242 141.512Z" fill="#263238"/>
<path d="M35.5547 199.239V192.584H36.7487V199.223L35.5547 199.239Z" fill="#263238"/>
<path d="M37.7676 199.239L37.8843 192.584H39.1314L40.076 197.18L41.0577 192.584H42.2676L42.3897 199.223H41.4876L41.392 194.622L40.4528 199.239H39.7204L38.7652 194.606L38.675 199.239H37.7676Z" fill="#263238"/>
<path d="M43.3184 199.239V192.584H45.2659C45.603 192.571 45.9378 192.646 46.237 192.802C46.4783 192.954 46.6643 193.18 46.7677 193.446C46.8923 193.772 46.9518 194.119 46.9428 194.467C46.9598 194.835 46.885 195.2 46.7252 195.531C46.5879 195.787 46.3694 195.989 46.1044 196.106C45.8098 196.233 45.4911 196.295 45.1704 196.287H44.5283V199.239H43.3184ZM44.5283 195.436H44.99C45.172 195.448 45.3542 195.415 45.5206 195.34C45.5818 195.31 45.6361 195.267 45.68 195.215C45.7239 195.163 45.7563 195.102 45.7753 195.037C45.828 194.855 45.8513 194.667 45.8443 194.478C45.8495 194.281 45.8316 194.085 45.7913 193.893C45.7787 193.824 45.7519 193.759 45.7126 193.701C45.6733 193.643 45.6224 193.594 45.5631 193.558C45.3975 193.479 45.2153 193.443 45.0324 193.451H44.5707L44.5283 195.436Z" fill="#263238"/>
<path d="M47.6006 199.239V192.584H49.1926C49.5773 192.574 49.961 192.628 50.3282 192.744C50.6166 192.833 50.8645 193.021 51.0287 193.276C51.2099 193.6 51.2946 193.969 51.2728 194.34C51.2745 194.581 51.2496 194.822 51.1985 195.058C51.1539 195.251 51.0689 195.432 50.9491 195.59C50.8206 195.747 50.6519 195.867 50.4609 195.936L51.3895 199.207H50.1637L49.3518 196.196H48.8211V199.239H47.6006ZM48.8211 195.435H49.1926C49.3853 195.445 49.5777 195.411 49.7551 195.334C49.8922 195.266 49.9984 195.148 50.0523 195.005C50.1204 194.819 50.1511 194.622 50.1425 194.425C50.1606 194.162 50.0976 193.9 49.9621 193.675C49.8726 193.581 49.7627 193.51 49.6412 193.467C49.5196 193.423 49.3897 193.409 49.2616 193.425H48.8211V195.435Z" fill="#263238"/>
<path d="M53.9531 199.33C53.5629 199.35 53.1748 199.26 52.8334 199.069C52.5532 198.894 52.3415 198.627 52.2338 198.314C52.1079 197.938 52.0469 197.544 52.0533 197.149V194.664C52.046 194.273 52.107 193.885 52.2338 193.515C52.3438 193.209 52.5555 192.949 52.8334 192.781C53.1847 192.613 53.5691 192.525 53.9584 192.525C54.3477 192.525 54.7321 192.613 55.0834 192.781C55.3602 192.951 55.5716 193.209 55.6831 193.515C55.8147 193.883 55.8777 194.273 55.8688 194.664V197.159C55.8764 197.55 55.8135 197.94 55.6831 198.308C55.572 198.62 55.3612 198.885 55.0834 199.064C54.7395 199.258 54.3474 199.35 53.9531 199.33ZM53.9531 198.436C54.1132 198.45 54.2726 198.403 54.3989 198.303C54.4991 198.208 54.5661 198.083 54.5899 197.947C54.6228 197.782 54.6388 197.614 54.6377 197.446V194.387C54.6394 194.22 54.6234 194.052 54.5899 193.887C54.5658 193.753 54.4987 193.63 54.3989 193.536C54.2669 193.453 54.1143 193.409 53.9584 193.409C53.8026 193.409 53.6499 193.453 53.518 193.536C53.4165 193.629 53.3476 193.752 53.3216 193.887C53.2882 194.052 53.2722 194.22 53.2739 194.387V197.446C53.2727 197.614 53.2887 197.782 53.3216 197.947C53.341 198.084 53.4087 198.211 53.5127 198.303C53.6373 198.402 53.7948 198.449 53.9531 198.436Z" fill="#263238"/>
<path d="M57.7416 199.239L56.4043 192.584H57.4656L58.3412 197.282L59.1691 192.584H60.2675L58.9356 199.223L57.7416 199.239Z" fill="#263238"/>
<path d="M60.9473 199.239V192.584H63.728V193.435H62.136V195.345H63.3671V196.191H62.136V198.388H63.728V199.223L60.9473 199.239Z" fill="#263238"/>
<path d="M64.4277 199.239L64.5445 192.6H65.8022L66.7414 197.196L67.7232 192.6H68.9331L69.0551 199.239H68.153L68.0575 194.622L67.1182 199.239H66.3859L65.4254 194.606L65.3352 199.239H64.4277Z" fill="#263238"/>
<path d="M69.9844 199.239V192.584H72.7651V193.435H71.1731V195.345H72.4042V196.191H71.1731V198.388H72.7651V199.223L69.9844 199.239Z" fill="#263238"/>
<path d="M73.4814 199.239V192.584H74.3252L75.9172 196.372V192.584H76.9467V199.223H76.1454L74.5215 195.255V199.223L73.4814 199.239Z" fill="#263238"/>
<path d="M78.6023 199.239V193.494H77.541V192.584H80.8471V193.478H79.7857V199.223L78.6023 199.239Z" fill="#263238"/>
<path d="M226.764 233.176H179.514L186.598 207.028H219.675L226.764 233.176Z" fill="#263238" stroke="#263238" stroke-linecap="round" stroke-linejoin="round"/>
<path d="M239.049 233.176H167.229V235.83H239.049V233.176Z" fill="#263238" stroke="#263238" stroke-linecap="round" stroke-linejoin="round"/>
<path d="M305.276 79.7681H100.996V209.773H305.276V79.7681Z" fill="#263238" stroke="#263238" stroke-linecap="round" stroke-linejoin="round"/>
<path d="M298.734 84.7263H107.545V204.82H298.734V84.7263Z" fill="#B2B2B2" stroke="#263238" stroke-linecap="round" stroke-linejoin="round"/>
<path d="M165.308 115.029L152.922 117.104L156.828 174.374L174.78 175.826C174.78 175.826 178.68 153.807 178.903 150.231C179.126 146.656 172.535 119.833 172.535 119.833L165.308 115.029Z" fill="#512210" stroke="#263238" stroke-linecap="round" stroke-linejoin="round"/>
<path d="M183.61 204.82C184.017 203.409 184.219 201.947 184.209 200.479C184.066 198.351 183.504 195.1 183.504 195.1L178.42 195.526L180.389 204.82H183.61Z" fill="white" stroke="#263238" stroke-linecap="round" stroke-linejoin="round"/>
<path d="M129.101 204.82H180.512C180.374 203.687 179.981 200.83 179.572 197.962C179.015 194.276 175.226 168.452 175.226 168.452L137.443 164.872C137.443 164.872 128.634 181.976 127.408 187.003C126.182 192.031 128.952 203.878 128.952 203.878L129.101 204.82Z" fill="#263238" stroke="#263238" stroke-linecap="round" stroke-linejoin="round"/>
<path d="M178.903 76.1291C178.903 76.1291 181.8 75.4588 183.026 80.0393C184.252 84.6198 182.803 86.9553 183.36 89.2057C183.918 91.456 185.117 96.6909 183.663 101.942C182.209 107.193 177.008 110.986 176.764 112.901L176.541 114.8C176.541 114.8 175.761 115.582 173.31 115.359C170.858 115.135 167.844 113.348 167.844 113.348L168.178 109.549C168.178 109.549 172.423 109.549 173.421 108.767C174.419 107.985 178.77 100.255 179.104 98.0369C179.439 95.8184 179.662 89.4291 179.327 87.5299C178.993 85.6306 176.674 81.7151 175.761 81.3799C174.849 81.0448 170.741 78.1401 170.741 78.1401C170.741 78.1401 176.451 74.6768 178.903 76.1291Z" fill="#263238" stroke="#263238" stroke-linecap="round" stroke-linejoin="round"/>
<path d="M181.689 124.19C181.689 124.19 185.261 125.866 185.372 128.659C185.484 131.452 183.472 143.858 183.472 144.757C183.472 145.656 182.469 164.202 182.469 164.202L184.629 196.51L179.551 196.797C179.551 196.797 175.12 172.9 175.56 170.017C176.001 167.133 178.68 152.801 178.903 150.231C179.126 147.662 178.569 136.708 179.349 133.468C180.129 130.228 181.689 124.19 181.689 124.19Z" fill="white" stroke="#263238" stroke-linecap="round" stroke-linejoin="round"/>
<path d="M174.058 78.5657C174.058 78.5657 179.567 80.8213 180.458 84.7369C181.35 88.6524 180.012 93.5627 180.458 96.6962C180.904 99.8297 176.446 107.65 174.886 109.549C173.326 111.449 169.532 110.778 169.532 110.778L170.105 117.04C170.105 117.04 172.44 124.86 172.1 126.871C171.761 128.882 168.083 131.835 163.408 131.563C157.608 131.228 155.819 125.818 155.819 125.818L156.599 113.412C156.794 110.856 156.721 108.286 156.382 105.746C155.825 101.165 157.05 94.2331 157.496 93.1159C157.942 91.9987 162.071 87.4181 164.634 85.6306C167.197 83.8431 172.212 78.7146 172.212 78.7146C172.212 78.7146 173.687 78.0922 174.058 78.5657Z" fill="white" stroke="#263238" stroke-linecap="round" stroke-linejoin="round"/>
<path d="M156.376 115.758C156.376 115.758 139.215 117.354 136.742 119.046C134.269 120.737 137.856 156.599 137.856 156.599C137.856 156.599 124.059 187.003 124.478 187.227C124.897 187.45 131.499 192.924 138.525 194.143C145.551 195.361 155.803 196.271 155.803 196.271C155.803 196.271 159.481 166.09 159.927 163.744C160.372 161.398 158.924 138.15 159.147 134.91C159.369 131.67 156.376 115.758 156.376 115.758Z" fill="white" stroke="#263238" stroke-linecap="round" stroke-linejoin="round"/>
<path d="M156.87 152.12C157.376 153.314 157.958 154.474 158.611 155.594" stroke="#263238" stroke-linecap="round" stroke-linejoin="round"/>
<path d="M152.471 123.206C153.208 129.904 154.344 140.31 154.71 144.193C154.967 146.56 155.547 148.88 156.435 151.088" stroke="#263238" stroke-linecap="round" stroke-linejoin="round"/>
<path d="M151.808 117.216C151.808 117.216 151.983 118.812 152.248 121.211" stroke="#263238" stroke-linecap="round" stroke-linejoin="round"/>
<path d="M174.058 78.5657C172.949 80.465 171.708 82.2836 170.344 84.0081C168.401 86.3436 161.036 91.1369 161.036 91.1369C161.036 91.1369 161.163 93.733 160.643 94.5098C160.123 95.2865 158.446 94.7704 158.446 94.7704C158.446 94.7704 157.284 101.117 157.671 105.788C158.059 110.459 160.388 111.747 159.741 112.917C159.093 114.087 155.013 117.173 149.457 114.986C143.9 112.8 141.051 110.576 139.629 107.076C138.206 103.575 143.189 84.9178 146.809 78.9541C150.428 72.9904 159.093 69.1014 164.395 69.7505C169.696 70.3995 179.137 73.251 179.911 75.4535C180.686 77.656 174.058 78.5657 174.058 78.5657Z" fill="#263238" stroke="#263238" stroke-linecap="round" stroke-linejoin="round"/>
<path d="M157.496 93.1C157.496 93.1 152.508 98.6647 151.484 104.671C150.46 110.677 153.537 113.252 154.737 113.768" stroke="#5C5C5C" stroke-linecap="round" stroke-linejoin="round"/>
<path d="M142.776 103.852C142.641 104.998 142.75 106.16 143.094 107.262" stroke="#5C5C5C" stroke-linecap="round" stroke-linejoin="round"/>
<path d="M166.098 82.0769C164.844 83.1954 163.504 84.2146 162.092 85.1253C155.315 89.5621 146.262 94.8981 143.519 101.128" stroke="#5C5C5C" stroke-linecap="round" stroke-linejoin="round"/>
<path d="M169.813 75.5121C169.813 75.5121 170.386 77.3102 167.817 80.3373" stroke="#5C5C5C" stroke-linecap="round" stroke-linejoin="round"/>
<path d="M170.105 117.04C170.105 117.04 179.572 122.738 181.689 124.19C183.807 125.642 180.241 139.278 180.575 141.959C180.909 144.64 181.912 151.003 180.909 153.695C179.906 156.387 179.349 158.057 179.349 158.057L177.455 170.352C177.455 170.352 180.575 193.935 180.464 194.292C180.352 194.648 169.426 196.079 169.426 196.079C169.426 196.079 171.432 172.139 172.551 167.128C173.671 162.116 177.327 154.721 176.452 146.454C175.576 138.187 170.105 117.04 170.105 117.04Z" fill="white" stroke="#263238" stroke-linecap="round" stroke-linejoin="round"/>
<path d="M178.697 146.444C178.557 149.136 177.909 151.777 176.786 154.227" stroke="#263238" stroke-linecap="round" stroke-linejoin="round"/>
<path d="M175.65 121.615C175.65 121.615 178.601 137.607 178.749 143.917" stroke="#263238" stroke-linecap="round" stroke-linejoin="round"/>
<path d="M179.896 139.278C179.896 139.278 179.216 133.697 178.304 130.766" stroke="#263238" stroke-linecap="round" stroke-linejoin="round"/>
<path d="M171.405 93.9991C171.405 94.8822 170.98 95.5951 170.449 95.5951C169.919 95.5951 169.494 94.8769 169.494 93.9991C169.494 93.1213 169.919 92.4031 170.449 92.4031C170.98 92.4031 171.405 93.1 171.405 93.9991Z" fill="#263238"/>
<path d="M179.519 93.9991C179.519 94.8822 179.095 95.5951 178.564 95.5951C178.033 95.5951 177.604 94.8769 177.604 93.9991C177.604 93.1213 178.033 92.4031 178.564 92.4031C179.095 92.4031 179.519 93.1 179.519 93.9991Z" fill="#263238"/>
<path d="M167.553 90.972C168.343 90.4494 169.239 90.1071 170.176 89.9692C171.113 89.8313 172.069 89.9012 172.976 90.174" stroke="#263238" stroke-linecap="round" stroke-linejoin="round"/>
<path d="M179.678 90.972C179.406 90.6586 179.03 90.4538 178.62 90.3952C178.21 90.3366 177.792 90.428 177.444 90.6528C177.444 90.6528 176.011 92.5733 176.329 93.8448" stroke="#263238" stroke-linecap="round" stroke-linejoin="round"/>
<path d="M176.489 101.521L173.453 102" stroke="#263238" stroke-linecap="round" stroke-linejoin="round"/>
<path d="M174.589 104.08C174.589 104.08 170.121 105.357 167.409 102" stroke="#263238" stroke-linecap="round" stroke-linejoin="round"/>
<path d="M169.537 110.778L165.153 109.358L168.985 114.002L169.537 110.778Z" fill="#263238" stroke="#263238" stroke-linecap="round" stroke-linejoin="round"/>
<path d="M248.808 116.912C247.761 118.532 246.997 120.318 246.547 122.195C245.921 125.084 245.295 128.356 245.295 128.356C245.295 128.356 248.431 125.839 248.808 125.696C249.185 125.552 248.559 122.429 248.559 122.429L250.681 120.668L248.808 116.912Z" fill="#263238" stroke="#263238" stroke-linecap="round" stroke-linejoin="round"/>
<path d="M250.06 74.5385C250.06 74.5385 246.924 75.6717 245.671 77.9327C244.419 80.1937 241.155 85.4764 241.66 87.2374C242.164 88.9983 242.408 89.7537 242.408 89.7537C242.408 89.7537 237.897 97.6752 238.396 98.4306C239.007 99.1926 239.677 99.9043 240.402 100.559C240.402 100.559 242.408 109.986 243.289 110.613C244.17 111.241 246.674 111.619 246.674 111.619L250.309 116.146L270.252 107.996L270.507 103.596C270.507 103.596 277.278 94.7918 278.153 89.7644C279.029 84.737 272.635 76.06 265.736 72.6659C258.837 69.2717 251.567 71.1444 250.06 74.5385Z" fill="white" stroke="#263238" stroke-linecap="round" stroke-linejoin="round"/>
<path d="M243.575 92.4615C244.436 93.1744 245.497 93.6002 246.611 93.6798" stroke="#263238" stroke-linecap="round" stroke-linejoin="round"/>
<path d="M265.736 72.6552C258.838 69.2611 251.568 71.1444 250.061 74.5385C250.061 74.5385 250.687 75.0439 252.714 74.9162C254.741 74.7886 259.49 72.7882 260.743 74.5385C261.995 76.2888 256.98 77.8103 255.102 80.449C253.223 83.0878 253.722 83.2154 255.224 85.237C256.726 87.2586 256.98 88.1311 256.731 89.0089C256.482 89.8867 256.105 90.6422 257.734 90.8975C259.363 91.1529 259.857 87.1256 262.372 88.3812C264.887 89.6367 265.259 93.4086 264.378 95.9249C264.163 96.6282 263.807 97.2806 263.334 97.8428C262.861 98.4051 262.279 98.8656 261.624 99.1967C261.624 99.1967 261.995 100.83 264.755 102.213C266.564 103.068 268.529 103.539 270.528 103.596C270.528 103.596 277.3 94.7918 278.175 89.7644C279.051 84.737 272.635 76.076 265.736 72.6552Z" fill="#263238" stroke="#263238" stroke-linecap="round" stroke-linejoin="round"/>
<path d="M270.507 95.1801C270.917 96.2278 271.077 97.3575 270.974 98.4785" stroke="#5C5C5C" stroke-linecap="round" stroke-linejoin="round"/>
<path d="M256.242 82.1141C256.242 82.1141 257.128 83.891 262.08 86.0243C264.871 87.2267 267.498 89.7803 269.169 92.4775" stroke="#5C5C5C" stroke-linecap="round" stroke-linejoin="round"/>
<path d="M269.907 87.4501C269.907 87.4501 274.344 90.1101 273.622 95.2758" stroke="#5C5C5C" stroke-linecap="round" stroke-linejoin="round"/>
<path d="M245.698 90.0676C245.698 90.9347 245.332 91.6636 244.881 91.6636C244.43 91.6636 244.069 90.956 244.069 90.0676C244.069 89.1791 244.43 88.4716 244.881 88.4716C245.332 88.4716 245.698 89.2004 245.698 90.0676Z" fill="#263238"/>
<path d="M243.045 86.6095C243.045 86.6095 245.3 83.9495 247.29 86.7372" stroke="#263238" stroke-linecap="round" stroke-linejoin="round"/>
<path d="M242.159 100.942C242.159 100.942 245.168 100.692 247.052 98.8136" stroke="#263238" stroke-linecap="round" stroke-linejoin="round"/>
<path d="M261.619 99.186L260.239 99.5584C259.624 101.404 258.593 103.083 257.225 104.463" fill="white"/>
<path d="M261.619 99.186L260.239 99.5584C259.624 101.404 258.593 103.083 257.225 104.463" stroke="#263238" stroke-linecap="round" stroke-linejoin="round"/>
<path d="M270.639 106.097C270.639 106.097 251.074 114.274 250.198 115.279C249.322 116.284 248.818 116.912 248.818 116.912L250.32 124.961L273.139 109.869L270.639 106.097Z" fill="white" stroke="#263238" stroke-linecap="round" stroke-linejoin="round"/>
<path d="M213.736 161.505L214.824 169.511L209.74 170.724C208.341 171.67 206.88 172.522 205.367 173.272C203.314 174.241 201.86 174.602 201.122 174.602C200.384 174.602 197.736 173.512 197.736 173.512C197.736 173.512 199.551 163.686 201.61 162.595C203.669 161.505 209.135 159.924 213.736 161.505Z" fill="white" stroke="#263238" stroke-linecap="round" stroke-linejoin="round"/>
<path d="M188.143 164.861C188.143 164.861 197.695 163.441 198.756 163.292C199.817 163.143 202.598 165.468 202.598 165.468C202.598 165.468 207.995 172.171 207.687 172.661C206.912 173.889 206.068 173.193 206.068 173.193L206.005 173.991C206.005 173.991 205.416 174.98 201.722 174.991C198.029 175.001 196.708 174.092 195.8 174.017C194.893 173.943 187.739 172.113 187.739 172.113L188.143 164.861Z" fill="white" stroke="#263238" stroke-linecap="round" stroke-linejoin="round"/>
<path d="M184.937 164.149L188.445 164.782L188.057 172.708L184.868 172.501L184.937 164.149Z" fill="white" stroke="#263238" stroke-linecap="round" stroke-linejoin="round"/>
<path d="M146.044 118.545C146.044 118.545 136.068 117.849 133.977 119.476C131.886 121.104 132.915 142.624 134.677 150.418C136.439 158.211 138.854 170.66 139.984 171.24C141.114 171.82 185.398 173.618 185.398 173.618L185.865 163.962L151.706 156.583L149.271 126.111" fill="white"/>
<path d="M146.044 118.545C146.044 118.545 136.068 117.849 133.977 119.476C131.886 121.104 132.915 142.624 134.677 150.418C136.439 158.211 138.854 170.66 139.984 171.24C141.114 171.82 185.398 173.618 185.398 173.618L185.865 163.962L151.706 156.583L149.271 126.111" stroke="#263238" stroke-linecap="round" stroke-linejoin="round"/>
<path d="M206.095 173.193L204.556 171.022" stroke="#263238" stroke-linecap="round" stroke-linejoin="round"/>
<path d="M205.034 174.448L203.171 172.07" stroke="#263238" stroke-linecap="round" stroke-linejoin="round"/>
<path d="M211.205 162.26C211.205 162.26 202.131 159.467 200.316 161.409C198.501 163.351 194.627 168.447 195.476 169.054C196.325 169.66 199.345 167.351 200.072 166.867C200.606 166.479 201.094 166.031 201.526 165.532C202.369 166.367 203.417 166.965 204.564 167.264C205.711 167.562 206.917 167.552 208.059 167.234" fill="white"/>
<path d="M211.205 162.26C211.205 162.26 202.131 159.467 200.316 161.409C198.501 163.351 194.627 168.447 195.476 169.054C196.325 169.66 199.345 167.351 200.072 166.867C200.606 166.479 201.094 166.031 201.526 165.532C202.369 166.367 203.417 166.965 204.564 167.264C205.711 167.562 206.917 167.552 208.059 167.234" stroke="#263238" stroke-linecap="round" stroke-linejoin="round"/>
<path d="M201.212 171.836C201.212 171.836 200.352 174.959 200.681 175.485C200.814 175.708 201.015 175.88 201.255 175.976C201.495 176.072 201.759 176.087 202.008 176.017C202.303 175.892 202.571 175.711 202.799 175.485C202.799 175.485 202.931 172.825 202.533 172.171C202.135 171.517 201.806 171.059 201.212 171.836Z" fill="white" stroke="#263238" stroke-linecap="round" stroke-linejoin="round"/>
<path d="M198.894 172.251C198.894 172.251 198.034 175.368 198.363 175.9C198.494 176.123 198.695 176.296 198.934 176.392C199.173 176.488 199.437 176.502 199.684 176.432C199.981 176.308 200.252 176.127 200.48 175.9C200.48 175.9 200.613 173.24 200.215 172.586C199.817 171.932 199.493 171.458 198.894 172.251Z" fill="white" stroke="#263238" stroke-linecap="round" stroke-linejoin="round"/>
<path d="M196.563 172.368C196.563 172.368 195.905 174.762 196.16 175.166C196.26 175.337 196.414 175.47 196.598 175.544C196.781 175.618 196.983 175.629 197.174 175.576C197.402 175.481 197.61 175.342 197.784 175.166C197.784 175.166 197.885 173.134 197.582 172.623C197.28 172.113 197.02 171.756 196.563 172.368Z" fill="white" stroke="#263238" stroke-linecap="round" stroke-linejoin="round"/>
<path d="M193.821 172.464C193.821 172.464 193.29 174.06 193.502 174.32C193.595 174.437 193.72 174.525 193.861 174.572C194.002 174.619 194.154 174.624 194.298 174.586C194.473 174.527 194.637 174.437 194.781 174.32C194.781 174.32 194.861 172.969 194.622 172.634C194.383 172.299 194.182 172.059 193.821 172.464Z" fill="white" stroke="#263238" stroke-linecap="round" stroke-linejoin="round"/>
<path d="M213.009 160.653L214.219 171.937L218.209 171.208L216.761 159.924L213.009 160.653Z" fill="white" stroke="#263238" stroke-linecap="round" stroke-linejoin="round"/>
<path d="M215.551 159.201L217.971 173.512L234.543 171.331L236.358 155.073L215.551 159.201Z" fill="#512210" stroke="#263238" stroke-linecap="round" stroke-linejoin="round"/>
<path d="M228.563 172.118L234.544 171.331L236.359 155.073L231.992 155.94L228.563 172.118Z" fill="#263238" stroke="#263238" stroke-linecap="round" stroke-linejoin="round"/>
<path d="M278.6 204.82L277.246 178.752C277.246 178.752 282.935 153.748 281.725 139.916C280.515 126.084 271.197 111.656 271.197 111.656C271.197 111.656 249.296 125.36 246.998 127.786C244.701 130.212 240.593 134.33 239.383 138.214C238.173 142.097 233.456 165.984 233.456 165.984C233.456 165.984 228.494 182.726 226.923 192.797C225.968 198.92 226.085 202.745 226.324 204.809L278.6 204.82Z" fill="#512210" stroke="#263238" stroke-linecap="round" stroke-linejoin="round"/>
<path d="M270.374 116.215C271.875 115.605 273.342 114.914 274.768 114.146" stroke="#263238" stroke-linecap="round" stroke-linejoin="round"/>
<path d="M240.594 143.752C242.483 140.326 244.839 136.256 245.9 135.016C247.906 132.755 262.956 119.429 268.475 117.04" stroke="#263238" stroke-linecap="round" stroke-linejoin="round"/>
<path d="M237.771 148.96C237.771 148.96 238.667 147.258 239.893 145.023" stroke="#263238" stroke-linecap="round" stroke-linejoin="round"/>
<path d="M251.684 150.269C251.684 158.068 250.623 165.787 251.153 173.506C248.404 183.434 243.453 192.254 239.893 201.569" stroke="#263238" stroke-linecap="round" stroke-linejoin="round"/>
<path d="M253.7 134.266C253.7 134.266 251.44 137.66 251.689 143.943C251.721 144.715 251.732 145.768 251.726 147.018" stroke="#263238" stroke-linecap="round" stroke-linejoin="round"/>
<path d="M275.521 137.788C275.521 137.788 270.507 176.518 270.002 179.662C269.642 181.912 261.952 194.223 257.611 201.027" stroke="#263238" stroke-linecap="round" stroke-linejoin="round"/>
<path d="M242.376 193.829L232.118 192.041L232.787 188.908L242.822 190.701" stroke="#263238" stroke-linecap="round" stroke-linejoin="round"/>
</svg>
