<svg width="171" height="187" viewBox="0 0 171 187" fill="none" xmlns="http://www.w3.org/2000/svg">
<rect x="0.850098" y="0.899902" width="168.6" height="148.8" rx="8.25" stroke="#512210" stroke-width="1.5"/>
<path d="M56.0045 186.138C55.8125 185.391 55.6471 184.693 55.5085 184.042C55.3805 183.402 55.2845 182.821 55.2205 182.298C55.1565 181.786 55.1245 181.349 55.1245 180.986C55.1245 180.239 55.2471 179.615 55.4925 179.114C55.7485 178.613 56.0845 178.213 56.5005 177.914C56.9271 177.605 57.3911 177.386 57.8925 177.258C58.3938 177.119 58.8951 177.05 59.3965 177.05C59.9085 177.05 60.3778 177.093 60.8045 177.178C60.8258 176.847 60.7991 176.549 60.7245 176.282C60.6605 176.015 60.5591 175.786 60.4205 175.594C60.2925 175.402 60.1325 175.253 59.9405 175.146C59.7591 175.039 59.5618 174.986 59.3485 174.986C59.1458 174.986 58.9431 175.039 58.7405 175.146C58.5378 175.242 58.3458 175.386 58.1645 175.578C57.9938 175.77 57.8285 176.015 57.6685 176.314L55.9245 175.354C56.2125 174.703 56.5538 174.191 56.9485 173.818C57.3431 173.434 57.7538 173.162 58.1805 173.002C58.6178 172.831 59.0445 172.746 59.4605 172.746C60.1005 172.746 60.6498 172.885 61.1085 173.162C61.5778 173.429 61.9565 173.781 62.2445 174.218C62.5325 174.645 62.7458 175.103 62.8845 175.594C63.0231 176.085 63.0925 176.554 63.0925 177.002C63.0925 177.343 63.0551 177.685 62.9805 178.026C62.9165 178.357 62.8365 178.655 62.7405 178.922C62.6551 179.189 62.5698 179.397 62.4845 179.546C61.8978 179.386 61.3431 179.269 60.8205 179.194C60.2978 179.119 59.8231 179.098 59.3965 179.13C58.9805 179.151 58.6178 179.237 58.3085 179.386C58.0098 179.525 57.7751 179.733 57.6045 180.01C57.4445 180.287 57.3645 180.639 57.3645 181.066C57.3645 181.461 57.3965 181.909 57.4605 182.41C57.5245 182.922 57.6151 183.45 57.7325 183.994C57.8498 184.538 57.9831 185.077 58.1325 185.61L56.0045 186.138ZM67.1381 177.69C67.6181 177.69 67.9861 177.647 68.2421 177.562C68.4981 177.477 68.6741 177.365 68.7701 177.226C68.8661 177.087 68.9141 176.938 68.9141 176.778C68.9141 176.522 68.8394 176.223 68.6901 175.882C68.5514 175.541 68.3754 175.183 68.1621 174.81C67.9488 174.437 67.7248 174.079 67.4901 173.738C67.2661 173.397 67.0634 173.098 66.8821 172.842L68.7861 171.578C69.2448 172.197 69.6394 172.81 69.9701 173.418C70.3008 174.015 70.5674 174.57 70.7701 175.082C70.9834 175.594 71.1328 176.031 71.2181 176.394C71.3034 176.735 71.4314 177.002 71.6021 177.194C71.7834 177.375 71.9914 177.503 72.2261 177.578C72.4608 177.653 72.6954 177.69 72.9301 177.69C73.3354 177.69 73.6234 177.797 73.7941 178.01C73.9754 178.213 74.0661 178.469 74.0661 178.778C74.0661 179.109 73.9541 179.386 73.7301 179.61C73.5168 179.823 73.1968 179.93 72.7701 179.93C72.3008 179.93 71.8901 179.866 71.5381 179.738C71.1861 179.61 70.8874 179.407 70.6421 179.13C70.3968 178.853 70.1888 178.501 70.0181 178.074L70.9941 178.282C70.9088 178.581 70.7114 178.858 70.4021 179.114C70.1034 179.359 69.7034 179.562 69.2021 179.722C68.7114 179.871 68.1301 179.946 67.4581 179.946C67.1381 179.946 66.7808 179.919 66.3861 179.866C66.0021 179.813 65.6181 179.733 65.2341 179.626C64.8608 179.519 64.5194 179.381 64.2101 179.21L64.9941 177.178C65.3888 177.349 65.7674 177.477 66.1301 177.562C66.5034 177.647 66.8394 177.69 67.1381 177.69ZM83.2547 179.93C82.7641 179.93 82.3054 179.893 81.8787 179.818C81.4627 179.743 81.0787 179.615 80.7267 179.434C80.3747 179.242 80.0601 178.981 79.7827 178.65C79.5161 178.319 79.2921 177.903 79.1107 177.402L80.3747 176.394C80.5667 176.735 80.8014 177.002 81.0787 177.194C81.3561 177.375 81.6867 177.503 82.0707 177.578C82.4547 177.653 82.9027 177.69 83.4147 177.69C83.8201 177.69 84.1081 177.797 84.2787 178.01C84.4494 178.213 84.5347 178.469 84.5347 178.778C84.5347 179.109 84.4227 179.386 84.1987 179.61C83.9854 179.823 83.6707 179.93 83.2547 179.93ZM72.7907 179.93L72.9507 177.69C73.5267 177.69 74.0974 177.658 74.6627 177.594C75.2281 177.53 75.7774 177.434 76.3107 177.306C76.8441 177.178 77.3507 177.013 77.8307 176.81C78.3214 176.607 78.7801 176.362 79.2067 176.074C78.8867 175.882 78.5401 175.717 78.1667 175.578C77.7934 175.439 77.3934 175.338 76.9667 175.274C76.5507 175.199 76.1081 175.162 75.6387 175.162C75.4681 175.162 75.2867 175.167 75.0947 175.178C74.9134 175.189 74.7267 175.21 74.5347 175.242C74.3427 175.263 74.1507 175.295 73.9587 175.338L73.6387 173.146C73.9481 173.061 74.2734 173.002 74.6147 172.97C74.9667 172.927 75.2761 172.906 75.5427 172.906C76.1187 172.906 76.6467 172.97 77.1267 173.098C77.6174 173.226 78.0654 173.386 78.4707 173.578C78.8867 173.77 79.2707 173.962 79.6227 174.154C79.9854 174.346 80.3267 174.506 80.6467 174.634C80.9774 174.762 81.2974 174.826 81.6067 174.826H82.1987L82.4547 176.954C81.9961 176.975 81.5641 177.066 81.1587 177.226C80.7641 177.375 80.3694 177.567 79.9747 177.802C79.5907 178.026 79.1747 178.261 78.7267 178.506C78.2894 178.751 77.7934 178.981 77.2387 179.194C76.6841 179.407 76.0441 179.583 75.3187 179.722C74.5934 179.861 73.7507 179.93 72.7907 179.93ZM75.5427 171.258C75.2121 171.258 74.9294 171.146 74.6947 170.922C74.4707 170.698 74.3587 170.421 74.3587 170.09C74.3587 169.759 74.4707 169.477 74.6947 169.242C74.9294 169.007 75.2121 168.89 75.5427 168.89C75.8627 168.89 76.1347 169.007 76.3587 169.242C76.5934 169.477 76.7107 169.759 76.7107 170.09C76.7107 170.421 76.5934 170.698 76.3587 170.922C76.1347 171.146 75.8627 171.258 75.5427 171.258ZM83.2595 179.93L83.4195 177.69C83.8035 177.69 84.1341 177.653 84.4115 177.578C84.6888 177.503 84.9235 177.354 85.1155 177.13C85.3075 176.895 85.4675 176.554 85.5955 176.106C85.7341 175.658 85.8568 175.061 85.9635 174.314L88.0595 174.666C88.0381 174.826 88.0061 175.013 87.9635 175.226C87.9315 175.439 87.8995 175.658 87.8675 175.882C87.8461 176.095 87.8355 176.298 87.8355 176.49C87.8355 176.682 87.8728 176.853 87.9475 177.002C88.0221 177.151 88.1395 177.279 88.2995 177.386C88.4701 177.482 88.6888 177.557 88.9555 177.61C89.2328 177.663 89.5688 177.69 89.9635 177.69C90.3688 177.69 90.6568 177.797 90.8275 178.01C90.9981 178.213 91.0835 178.469 91.0835 178.778C91.0835 179.109 90.9715 179.386 90.7475 179.61C90.5341 179.823 90.2195 179.93 89.8035 179.93C89.3235 179.93 88.8861 179.893 88.4915 179.818C88.1075 179.743 87.7715 179.621 87.4835 179.45C87.2061 179.269 86.9768 179.034 86.7955 178.746C86.6248 178.447 86.5181 178.085 86.4755 177.658H87.2435C87.0515 178.17 86.8061 178.581 86.5075 178.89C86.2195 179.189 85.8941 179.413 85.5315 179.562C85.1688 179.711 84.7901 179.807 84.3955 179.85C84.0115 179.903 83.6328 179.93 83.2595 179.93ZM88.3955 172.874C88.0861 172.874 87.8195 172.767 87.5955 172.554C87.3821 172.33 87.2755 172.069 87.2755 171.77C87.2755 171.461 87.3821 171.194 87.5955 170.97C87.8195 170.746 88.0861 170.634 88.3955 170.634C88.6941 170.634 88.9501 170.746 89.1635 170.97C89.3768 171.194 89.4835 171.461 89.4835 171.77C89.4835 172.069 89.3768 172.33 89.1635 172.554C88.9501 172.767 88.6941 172.874 88.3955 172.874ZM85.6275 172.858C85.3181 172.858 85.0515 172.751 84.8275 172.538C84.6141 172.314 84.5075 172.053 84.5075 171.754C84.5075 171.445 84.6141 171.178 84.8275 170.954C85.0515 170.73 85.3181 170.618 85.6275 170.618C85.9261 170.618 86.1821 170.73 86.3955 170.954C86.6088 171.178 86.7155 171.445 86.7155 171.754C86.7155 172.053 86.6088 172.314 86.3955 172.538C86.1821 172.751 85.9261 172.858 85.6275 172.858ZM89.8064 179.93L89.9664 177.69C90.3184 177.69 90.6064 177.663 90.8304 177.61C91.0544 177.546 91.2357 177.413 91.3744 177.21C91.5237 176.997 91.6517 176.682 91.7584 176.266C91.8757 175.839 92.0037 175.263 92.1424 174.538L94.2224 174.922C94.1797 175.157 94.121 175.45 94.0464 175.802C93.9824 176.154 93.9504 176.458 93.9504 176.714C93.9504 176.917 93.9877 177.093 94.0624 177.242C94.1477 177.381 94.2864 177.493 94.4784 177.578C94.681 177.653 94.9584 177.69 95.3104 177.69C95.5877 177.69 95.8224 177.663 96.0144 177.61C96.217 177.546 96.3877 177.413 96.5264 177.21C96.6757 176.997 96.8037 176.671 96.9104 176.234C97.0277 175.786 97.1397 175.183 97.2464 174.426L99.3584 174.762C99.3157 175.007 99.273 175.269 99.2304 175.546C99.1877 175.823 99.1504 176.079 99.1184 176.314C99.0864 176.549 99.0704 176.741 99.0704 176.89C99.0704 177.029 99.1077 177.162 99.1824 177.29C99.2677 177.407 99.417 177.503 99.6304 177.578C99.8544 177.653 100.164 177.69 100.558 177.69C101.038 177.69 101.39 177.589 101.614 177.386C101.849 177.173 101.966 176.853 101.966 176.426C101.966 176.181 101.961 175.919 101.95 175.642C101.94 175.354 101.918 175.034 101.886 174.682C101.865 174.319 101.822 173.909 101.758 173.45L103.822 173.29C103.897 174.207 103.982 174.954 104.078 175.53C104.174 176.106 104.302 176.554 104.462 176.874C104.633 177.183 104.857 177.397 105.134 177.514C105.422 177.631 105.796 177.69 106.254 177.69C106.66 177.69 106.948 177.797 107.118 178.01C107.3 178.213 107.39 178.469 107.39 178.778C107.39 179.109 107.278 179.386 107.054 179.61C106.841 179.823 106.521 179.93 106.094 179.93C105.806 179.93 105.508 179.903 105.198 179.85C104.889 179.807 104.59 179.717 104.302 179.578C104.014 179.429 103.758 179.215 103.534 178.938C103.31 178.661 103.134 178.293 103.006 177.834L103.294 177.93C103.145 178.463 102.942 178.874 102.686 179.162C102.43 179.45 102.116 179.653 101.742 179.77C101.369 179.877 100.921 179.93 100.398 179.93C99.9184 179.93 99.4917 179.866 99.1184 179.738C98.745 179.61 98.4464 179.402 98.2224 179.114C98.009 178.815 97.897 178.415 97.8864 177.914H98.4304C98.217 178.511 97.9717 178.954 97.6944 179.242C97.417 179.53 97.081 179.717 96.6864 179.802C96.2917 179.887 95.7957 179.93 95.1984 179.93C94.8357 179.93 94.4784 179.893 94.1264 179.818C93.7744 179.733 93.4597 179.546 93.1824 179.258C92.905 178.959 92.7024 178.49 92.5744 177.85L93.4384 177.818C93.2144 178.447 92.921 178.911 92.5584 179.21C92.2064 179.509 91.801 179.706 91.3424 179.802C90.8837 179.887 90.3717 179.93 89.8064 179.93ZM106.103 179.93L106.263 177.69C106.509 177.69 106.717 177.631 106.887 177.514C107.069 177.386 107.255 177.178 107.447 176.89C107.639 176.591 107.863 176.191 108.119 175.69C108.439 175.05 108.77 174.549 109.111 174.186C109.463 173.823 109.821 173.567 110.183 173.418C110.557 173.258 110.93 173.178 111.303 173.178C111.773 173.178 112.21 173.279 112.615 173.482C113.021 173.685 113.373 173.962 113.671 174.314C113.97 174.655 114.199 175.05 114.359 175.498C114.53 175.935 114.615 176.389 114.615 176.858C114.615 177.423 114.493 177.935 114.247 178.394C114.013 178.842 113.682 179.199 113.255 179.466C112.839 179.722 112.359 179.85 111.815 179.85C111.357 179.85 110.823 179.77 110.215 179.61C109.607 179.45 108.967 179.114 108.295 178.602L109.111 176.666C109.591 176.997 110.039 177.237 110.455 177.386C110.882 177.535 111.234 177.61 111.511 177.61C111.725 177.61 111.901 177.589 112.039 177.546C112.178 177.503 112.279 177.434 112.343 177.338C112.407 177.242 112.439 177.114 112.439 176.954C112.439 176.73 112.386 176.501 112.279 176.266C112.173 176.031 112.029 175.834 111.847 175.674C111.677 175.503 111.474 175.418 111.239 175.418C111.015 175.418 110.823 175.503 110.663 175.674C110.514 175.834 110.365 176.069 110.215 176.378C110.077 176.677 109.906 177.029 109.703 177.434C109.458 177.925 109.218 178.335 108.983 178.666C108.749 178.986 108.498 179.242 108.231 179.434C107.975 179.615 107.671 179.743 107.319 179.818C106.978 179.893 106.573 179.93 106.103 179.93Z" fill="#512210"/>
<path d="M110.863 6.71646C110.863 6.71646 85.352 -2.35315 60.3103 12.0878C35.2686 26.5288 22.6489 55.2009 11.7827 78.1651C0.916424 101.129 7.17686 124.489 26.2916 135.142C45.4063 145.795 58.3964 130.091 85.2255 129.326C112.055 128.56 119.253 132.394 141.508 117.246C163.762 102.099 167.781 66.311 150.228 39.8461C132.676 13.3813 110.863 6.71646 110.863 6.71646Z" fill="#EF641E"/>
<path opacity="0.7" d="M110.863 6.71646C110.863 6.71646 85.352 -2.35315 60.3103 12.0878C35.2686 26.5288 22.6489 55.2009 11.7827 78.1651C0.916424 101.129 7.17686 124.489 26.2916 135.142C45.4063 145.795 58.3964 130.091 85.2255 129.326C112.055 128.56 119.253 132.394 141.508 117.246C163.762 102.099 167.781 66.311 150.228 39.8461C132.676 13.3813 110.863 6.71646 110.863 6.71646Z" fill="white"/>
<path d="M39.1584 64.3477C40.174 64.1069 42.0138 62.6591 42.0169 62.6591C42.02 62.6591 40.6926 61.733 40.6031 61.6867C39.5473 61.1372 37.1827 60.6958 36.235 61.6311C36.0815 61.7907 35.9634 61.981 35.8884 62.1893C35.8134 62.3977 35.7832 62.6196 35.7998 62.8404C35.8164 63.0613 35.8795 63.2761 35.9848 63.4709C36.0901 63.6658 36.2353 63.8362 36.4109 63.9711C37.1364 64.573 38.294 64.5514 39.1584 64.3477Z" fill="#EF641E"/>
<path d="M43.8785 69.2807C44.7583 68.7991 46.0641 67.0611 46.166 66.9222C47.1583 67.6716 48.1999 68.3533 49.2839 68.9627C49.9013 69.3239 50.5588 69.6665 51.2102 69.9999C50.9015 69.8919 50.5928 69.7962 50.5619 69.7869C49.3981 69.5369 47.0026 69.7345 46.3327 70.8859C46.2268 71.0806 46.1631 71.2954 46.1457 71.5164C46.1284 71.7374 46.1578 71.9595 46.2321 72.1684C46.3064 72.3772 46.4238 72.568 46.5768 72.7284C46.7298 72.8888 46.9148 73.0152 47.1199 73.0993C47.9781 73.4852 49.0925 73.161 49.8735 72.735C50.6545 72.309 51.8059 70.8427 52.1054 70.4506L52.8555 70.8303C54.0625 71.4292 55.2696 72.0219 56.4364 72.6393C56.847 72.8585 57.2422 73.0869 57.6404 73.3154C57.3564 73.2197 57.1156 73.1394 57.0785 73.1332C55.9147 72.8801 53.5192 73.0777 52.8524 74.2322C52.7466 74.4267 52.6829 74.6413 52.6656 74.8621C52.6483 75.0828 52.6777 75.3047 52.752 75.5133C52.8263 75.7219 52.9437 75.9125 53.0967 76.0726C53.2496 76.2327 53.4346 76.3588 53.6396 76.4425C54.4978 76.8315 55.6091 76.5042 56.3901 76.0782C57.1712 75.6522 58.2115 74.3279 58.5696 73.8649C58.9678 74.1118 59.3691 74.3557 59.7457 74.615C59.9988 74.7941 60.2582 74.9515 60.502 75.146L61.2306 75.7078C61.6844 76.0813 62.1567 76.4641 62.5827 76.8376C62.8914 77.097 63.1661 77.3501 63.4532 77.6032C63.0457 77.381 62.24 76.9642 62.169 76.9364C61.0577 76.5104 58.6591 76.3437 57.8256 77.384C57.6915 77.5603 57.5961 77.7629 57.5455 77.9785C57.4949 78.1941 57.4902 78.418 57.5319 78.6355C57.5735 78.853 57.6605 79.0594 57.7872 79.2411C57.9138 79.4227 58.0773 79.5757 58.267 79.69C59.0573 80.2025 60.2057 80.0481 61.0453 79.7456C61.9714 79.4122 63.4656 77.9582 63.6508 77.773C64.1231 78.1959 64.5769 78.6065 64.9998 79.0078C66.1389 80.0728 67.0959 81.0298 67.846 81.8046L68.556 81.2737C67.7688 80.4927 66.7532 79.5141 65.5338 78.4244C65.0584 77.9953 64.5398 77.5477 63.9903 77.0908C64.339 76.5172 64.6534 75.9234 64.9319 75.3127C65.9228 75.4917 67.8398 75.1336 68.0868 75.0842C68.2473 75.7016 68.3955 76.2912 68.5313 76.8562C68.8832 78.3287 69.1487 79.6345 69.3463 80.6686L70.118 80.0883C69.905 79.1158 69.6395 77.9582 69.3 76.6648C69.1364 76.0474 68.9542 75.3837 68.7567 74.7076C68.9882 74.5996 70.8805 73.6982 71.5164 72.9511C72.0906 72.2751 72.637 71.2502 72.4425 70.3333C72.4036 70.1143 72.3187 69.9059 72.1936 69.7219C72.0684 69.538 71.9057 69.3826 71.7162 69.266C71.5267 69.1493 71.3146 69.0741 71.094 69.0453C70.8734 69.0164 70.6491 69.0346 70.436 69.0985C69.1734 69.5184 68.4912 71.8244 68.5035 73.0159C68.5035 73.0869 68.5961 73.8463 68.661 74.3279C68.5776 74.0501 68.5035 73.7815 68.4171 73.5006C68.2473 72.9388 68.0621 72.3831 67.8645 71.7873C67.7596 71.5002 67.6515 71.2131 67.5558 70.923C67.4601 70.6328 67.312 70.3364 67.1885 70.0432C66.8798 69.3609 66.5711 68.688 66.2099 68.015C66.7007 67.8668 68.4356 67.3112 69.1086 66.7246C69.7816 66.1381 70.4761 65.212 70.4113 64.2736C70.4044 64.0522 70.3509 63.8348 70.2543 63.6355C70.1576 63.4362 70.02 63.2596 69.8505 63.1171C69.6809 62.9747 69.4832 62.8696 69.2702 62.8087C69.0573 62.7479 68.8339 62.7326 68.6147 62.764C67.2996 62.9863 66.2778 65.1657 66.108 66.3418C66.108 66.4159 66.071 67.2679 66.0648 67.7464C65.8518 67.3451 65.6388 66.9407 65.4104 66.5425C64.7467 65.388 64.0397 64.2365 63.339 63.0882L62.7031 62.0293C62.879 61.9799 64.9535 61.3656 65.7098 60.7081C66.3828 60.1277 67.0773 59.1985 67.0125 58.257C67.0051 58.0358 66.9513 57.8186 66.8545 57.6196C66.7577 57.4206 66.6201 57.2441 66.4507 57.1017C66.2812 56.9594 66.0837 56.8542 65.871 56.7932C65.6582 56.7322 65.435 56.7166 65.2159 56.7475C63.9008 56.9728 62.879 59.1491 62.7092 60.3253C62.7092 60.4148 62.6598 61.6527 62.666 61.9676C62.1999 61.1896 61.7399 60.4241 61.3263 59.6245C60.7555 58.5666 60.2543 57.4725 59.826 56.3492C59.9062 56.3245 62.0764 55.6917 62.8512 55.0218C63.5211 54.4384 64.2157 53.5092 64.1539 52.5707C64.1462 52.3494 64.0919 52.1322 63.9948 51.9331C63.8977 51.7341 63.7598 51.5577 63.5901 51.4154C63.4204 51.273 63.2227 51.168 63.0098 51.1069C62.7969 51.0459 62.5735 51.0303 62.3542 51.0612C61.0392 51.2835 60.0174 53.4598 59.8476 54.639C59.8476 54.7316 59.7951 56.0621 59.8075 56.3029C59.7828 56.2381 59.7488 56.1733 59.7241 56.1054C59.326 54.9669 59.0296 53.7954 58.8381 52.6047C58.7239 51.9503 58.6529 51.3143 58.5973 50.6969C59.0141 50.6198 60.9095 50.2493 61.6843 49.7245C62.4592 49.1997 63.2062 48.3724 63.2464 47.4309C63.2634 47.2101 63.2337 46.9883 63.1593 46.7798C63.0849 46.5712 62.9675 46.3807 62.8146 46.2206C62.6618 46.0604 62.4769 45.9343 62.2721 45.8503C62.0672 45.7663 61.847 45.7263 61.6257 45.733C60.2952 45.8102 59.0419 47.86 58.7424 49.0145C58.727 49.0763 58.6313 49.7307 58.5696 50.2092C58.548 49.9314 58.5202 49.6412 58.5047 49.3757C58.4461 48.3693 58.4554 47.4432 58.4708 46.6221C58.4708 46.156 58.5016 45.7361 58.5233 45.3441C58.8937 45.0539 60.3755 43.8747 60.7922 43.072C61.209 42.2694 61.5238 41.1674 61.1256 40.3153C61.0389 40.1114 60.9103 39.928 60.748 39.7771C60.5857 39.6262 60.3935 39.5112 60.1838 39.4395C59.9741 39.3679 59.7517 39.3412 59.531 39.3613C59.3103 39.3813 59.0963 39.4477 58.903 39.556C57.7577 40.2382 57.591 42.6429 57.8565 43.7975C57.8781 43.8963 58.4183 45.4243 58.4368 45.4089L58.4615 45.3904C58.4307 45.7701 58.4029 46.1745 58.3843 46.6252C58.3504 47.4463 58.3226 48.3755 58.3596 49.385C58.3878 50.476 58.4796 51.5645 58.6344 52.6448C58.8025 53.8552 59.0773 55.0483 59.4555 56.2103C59.4593 56.2242 59.4645 56.2376 59.471 56.2504C59.2425 55.9417 58.5726 55.0712 58.5109 55.0156C57.6805 54.1636 55.5721 53.0091 54.3805 53.6018C54.185 53.7057 54.0136 53.8497 53.8774 54.0242C53.7412 54.1988 53.6433 54.4 53.59 54.6149C53.5367 54.8298 53.5293 55.0535 53.5681 55.2715C53.607 55.4894 53.6913 55.6968 53.8156 55.88C54.3188 56.6764 55.427 57.0191 56.313 57.0932C57.3101 57.1796 59.3598 56.448 59.5234 56.3894C59.9304 57.5615 60.4151 58.7052 60.9743 59.8128C61.3016 60.458 61.6504 61.1001 62.0085 61.7391C61.8017 61.4706 61.6164 61.2359 61.5856 61.2051C60.7552 60.3531 58.6467 59.1954 57.4521 59.7881C57.2568 59.8927 57.0856 60.0371 56.9497 60.2121C56.8138 60.387 56.7162 60.5886 56.6632 60.8037C56.6102 61.0188 56.6031 61.2426 56.6422 61.4607C56.6813 61.6788 56.7658 61.8862 56.8902 62.0694C57.3903 62.8628 58.4986 63.2055 59.3845 63.2826C60.2705 63.3598 62.0424 62.7702 62.5055 62.6097C62.6475 62.8535 62.7833 63.0974 62.9253 63.3413C63.6014 64.5051 64.2805 65.6658 64.9103 66.8234C65.1356 67.234 65.3394 67.6415 65.5462 68.0582C65.361 67.8205 65.2035 67.623 65.1758 67.5952C64.3453 66.7432 62.2369 65.5855 61.0453 66.1813C60.8499 66.2853 60.6785 66.4292 60.5423 66.6037C60.4061 66.7783 60.3081 66.9796 60.2549 67.1945C60.2016 67.4093 60.1941 67.633 60.233 67.851C60.2718 68.069 60.3561 68.2763 60.4804 68.4595C60.9836 69.256 62.0918 69.5986 62.9778 69.6727C63.8638 69.7468 65.4628 69.2189 66.0154 69.0275C66.213 69.4535 66.4105 69.8795 66.5865 70.3025C66.6976 70.5926 66.8242 70.8643 66.9199 71.1637L67.2286 72.0343C67.4015 72.593 67.5805 73.1703 67.7318 73.7229C67.8429 74.1057 67.9386 74.4699 68.0405 74.8404C67.8244 74.4298 67.3799 73.6395 67.3367 73.5778C66.6967 72.748 65.8535 72.0973 64.8887 71.6885C64.8229 71.5925 64.7474 71.5035 64.6633 71.423C64.5092 71.264 64.3233 71.1392 64.1178 71.0567C63.9122 70.9742 63.6916 70.936 63.4703 70.9444C63.249 70.9529 63.0319 71.0078 62.8332 71.1057C62.6346 71.2036 62.4587 71.3422 62.3172 71.5126C61.493 72.5591 62.1968 74.8589 62.8636 75.8344C62.9037 75.8899 63.3976 76.4765 63.7187 76.8376C63.4995 76.6524 63.2865 76.4703 63.0581 76.2851C62.6074 75.9085 62.1474 75.5504 61.6535 75.1583L60.8972 74.6304C60.6533 74.4421 60.3724 74.2754 60.1069 74.0964C59.4895 73.692 58.8351 73.3154 58.1713 72.948C58.4986 72.5529 59.6377 71.1329 59.8785 70.2716C60.1192 69.4103 60.1872 68.2589 59.613 67.4933C59.4846 67.3128 59.3196 67.1614 59.1289 67.0487C58.9382 66.9361 58.7259 66.8648 58.5059 66.8395C58.2858 66.8142 58.0629 66.8354 57.8516 66.9017C57.6403 66.9681 57.4453 67.0781 57.2792 67.2247C56.3068 68.1508 56.6618 70.5155 57.165 71.5928C57.1959 71.6607 57.6465 72.3924 57.9028 72.7875C57.5015 72.5714 57.1032 72.3522 56.6927 72.1454C55.5011 71.5465 54.2786 70.9785 53.0593 70.4074L51.9449 69.8734C52.0653 69.7345 53.4575 68.0767 53.7261 67.1136C53.9638 66.2554 54.0348 65.0978 53.4606 64.3507C53.3322 64.1703 53.1672 64.0188 52.9765 63.9062C52.7858 63.7935 52.5735 63.7222 52.3535 63.6969C52.1334 63.6716 51.9105 63.6928 51.6992 63.7592C51.4879 63.8255 51.2929 63.9356 51.1268 64.0822C50.1544 64.9928 50.5094 67.3729 51.0095 68.4503C51.0496 68.5305 51.701 69.5832 51.8769 69.8425C51.062 69.4505 50.2532 69.0522 49.4691 68.6293C48.4094 68.0598 47.3875 67.4226 46.4099 66.7215C46.4654 66.6567 47.9256 64.9342 48.2003 63.9432C48.4411 63.0882 48.509 61.9305 47.9349 61.1649C47.8068 60.9844 47.6421 60.8329 47.4515 60.7203C47.2609 60.6076 47.0488 60.5365 46.8288 60.5114C46.6089 60.4864 46.3861 60.508 46.1751 60.5749C45.9641 60.6417 45.7695 60.7523 45.6042 60.8995C44.6287 61.8101 44.9868 64.1871 45.4869 65.2645C45.527 65.3509 46.2277 66.4808 46.3697 66.6752C46.3142 66.6351 46.2493 66.5981 46.1938 66.5579C45.2328 65.8285 44.3391 65.0144 43.5235 64.1254C43.0666 63.6407 42.6561 63.153 42.2671 62.6683C42.5758 62.3751 43.9526 61.0199 44.2984 60.1586C44.6441 59.2973 44.8232 58.1891 44.3385 57.3803C44.2305 57.1869 44.0831 57.0183 43.9058 56.8855C43.7286 56.7527 43.5253 56.6587 43.3094 56.6095C43.0934 56.5603 42.8695 56.5571 42.6522 56.6C42.4349 56.6429 42.229 56.731 42.0479 56.8586C40.9798 57.6581 41.0663 60.0598 41.4522 61.1804C41.4738 61.2421 41.7609 61.841 41.9677 62.2732C41.7979 62.0509 41.6158 61.8256 41.4552 61.6126C40.8378 60.8038 40.347 60.0289 39.9117 59.3374C39.6648 58.9423 39.4487 58.5811 39.248 58.2385C39.3993 57.7939 39.9766 55.9973 39.8901 55.0928C39.8037 54.1883 39.4487 53.1017 38.6553 52.6232C38.4706 52.501 38.2621 52.4192 38.0436 52.3829C37.8251 52.3466 37.6014 52.3567 37.3871 52.4127C37.1727 52.4686 36.9726 52.569 36.7996 52.7074C36.6267 52.8458 36.4848 53.0191 36.3833 53.2159C35.8029 54.4168 36.9853 56.5098 37.8496 57.3309C37.9237 57.4019 39.2141 58.3774 39.2233 58.3527V58.328C39.4086 58.6583 39.6092 59.0133 39.8407 59.393C40.2667 60.0968 40.7668 60.8871 41.3441 61.7083C41.9692 62.6026 42.6454 63.4601 43.3692 64.2766C44.1771 65.1929 45.0644 66.0358 46.0209 66.7956L46.0549 66.8203C45.6906 66.6845 44.6565 66.3326 44.5731 66.3172C43.4093 66.064 41.0138 66.2616 40.3439 67.4161C40.2385 67.6107 40.1752 67.8253 40.1582 68.0459C40.1411 68.2665 40.1707 68.4882 40.2449 68.6967C40.3192 68.9052 40.4364 69.0957 40.5891 69.2558C40.7418 69.416 40.9264 69.5423 41.1311 69.6264C41.9831 70.0339 43.0975 69.7067 43.8785 69.2807Z" fill="#EF641E"/>
<path d="M58.3908 50.5519C58.4155 50.5519 57.7981 49.0547 57.7487 48.9621C57.1714 47.9217 55.4427 46.2486 54.1369 46.5079C53.9234 46.5582 53.7228 46.6526 53.5479 46.785C53.373 46.9174 53.2277 47.0849 53.1214 47.2767C53.015 47.4685 52.9499 47.6805 52.9302 47.8989C52.9105 48.1174 52.9367 48.3376 53.007 48.5453C53.2787 49.4436 54.2573 50.0672 55.0939 50.3728C56.057 50.734 58.3908 50.5519 58.3908 50.5519Z" fill="#EF641E"/>
<path d="M100.847 136.278L100.458 143.162C100.521 143.297 100.611 143.418 100.722 143.516C100.834 143.614 100.965 143.688 101.107 143.733C101.524 143.807 110.609 143.733 110.609 143.733C110.672 143.364 110.647 142.985 110.534 142.628C110.467 142.393 110.341 142.179 110.168 142.006C109.995 141.833 109.782 141.707 109.547 141.64C109.09 141.526 105.935 140.081 105.666 139.967C105.398 139.853 105.25 138.028 105.25 138.028L100.847 136.278Z" fill="white" stroke="#263238" stroke-width="0.342408" stroke-miterlimit="10"/>
<path d="M110.609 143.73C110.646 143.485 110.646 143.237 110.609 142.992L100.471 142.72L100.446 143.159C100.509 143.294 100.598 143.414 100.71 143.513C100.822 143.611 100.953 143.685 101.095 143.73C101.524 143.804 110.609 143.73 110.609 143.73Z" fill="white" stroke="#263238" stroke-width="0.342408" stroke-miterlimit="10"/>
<path d="M102.734 101.401C102.734 101.401 103.515 118.293 103.428 118.812L100.483 136.568C100.483 136.568 102.993 137.954 104.206 138.213C105.151 138.39 106.106 138.506 107.065 138.559C107.065 138.559 111.05 122.362 111.223 121.411C111.396 120.46 109.229 99.9439 109.229 99.9439L102.734 101.401Z" fill="#263238" stroke="#263238" stroke-width="0.342408" stroke-miterlimit="10"/>
<path d="M102.854 134.453C102.854 134.453 99.3196 139.319 99.7363 139.813C100.153 140.306 103.234 143.233 103.996 143.576C104.759 143.918 111.714 143.576 111.714 143.576C111.785 143.377 111.823 143.169 111.828 142.958C111.828 142.649 111.791 141.476 111.374 141.134C110.958 140.791 107.8 139.309 107.67 139.081C107.54 138.852 107.404 136.991 107.404 136.991L102.854 134.453Z" fill="white" stroke="#263238" stroke-width="0.342408" stroke-miterlimit="10"/>
<path d="M111.711 143.576C111.781 143.377 111.82 143.169 111.825 142.958V142.816L106.997 142.998C106.997 142.998 105.515 143.224 104.718 142.578C104.049 142.038 101.119 139.368 100.181 138.51C99.8256 139.158 99.6188 139.661 99.7361 139.803C100.156 140.297 103.234 143.224 103.996 143.566C104.759 143.909 111.711 143.576 111.711 143.576Z" fill="white" stroke="#263238" stroke-width="0.342408" stroke-miterlimit="10"/>
<path d="M100.23 93.5198C100.23 93.5198 100.752 98.5424 101.184 99.3234C101.616 100.104 102.311 101.315 102.311 101.315L108.874 119.765L102.119 134.663C102.119 134.663 107.058 137.868 108.096 138.213C108.54 138.389 109.007 138.505 109.482 138.559C109.482 138.559 117.449 119.938 117.449 118.639C117.449 117.339 111.893 98.7183 111.893 98.7183L112.269 92.3066L100.23 93.5198Z" fill="#263238" stroke="#263238" stroke-width="0.342408" stroke-miterlimit="10"/>
<path d="M106.799 95.0788L110.442 96.5358L107.423 94.1403L109.504 95.0788" stroke="#696969" stroke-width="0.342408" stroke-linecap="round" stroke-linejoin="round"/>
<path d="M104.706 107.735L108.883 119.766L102.82 133.709" stroke="#696969" stroke-width="0.342408" stroke-miterlimit="10"/>
<path d="M103.86 105.3L104.289 106.541" stroke="#696969" stroke-width="0.342408" stroke-miterlimit="10"/>
<path d="M116.992 84.2002C116.992 84.2002 119.042 82.2739 119.462 82.0393C119.882 81.8047 121.552 81.3015 121.672 80.7273C121.793 80.1532 121.632 77.3317 121.469 77.452C121.305 77.5724 119.135 80.6471 119.135 80.6471L116.307 82.8605L116.992 84.2002Z" fill="white" stroke="#263238" stroke-width="0.342408" stroke-miterlimit="10"/>
<path d="M119.904 79.7364L119.657 81.6195" stroke="#263238" stroke-width="0.342408" stroke-miterlimit="10"/>
<path d="M120.558 78.7516L120.641 81.0484" stroke="#263238" stroke-width="0.342408" stroke-miterlimit="10"/>
<path d="M121.221 77.9737C121.221 77.9737 121.181 80.3908 121.221 80.6378V77.9737Z" fill="white"/>
<path d="M121.221 77.9737C121.221 77.9737 121.181 80.3908 121.221 80.6378" stroke="#263238" stroke-width="0.342408" stroke-miterlimit="10"/>
<path d="M121.787 80.0636C121.787 80.0636 122.484 79.2023 122.321 78.6312C122.275 78.4659 122.192 78.3132 122.078 78.1852C121.964 78.0572 121.822 77.9574 121.663 77.8934L121.787 80.0636Z" fill="white" stroke="#263238" stroke-width="0.342408" stroke-miterlimit="10"/>
<path d="M116.749 81.9899C116.872 82.0702 117.854 83.5859 117.854 83.5859L116.619 85.2251C116.619 85.2251 117.237 86.3735 116.866 86.6606C116.496 86.9477 113.424 88.5436 113.424 88.5436L112.399 84.4071C112.399 84.4071 114.693 82.9716 114.817 83.0148C114.938 83.078 115.048 83.1604 115.144 83.2587L116.749 81.9899Z" fill="#EF641E" stroke="#263238" stroke-width="0.342408" stroke-miterlimit="10"/>
<path d="M118.054 81.4373L118.48 81.7306L122.993 75.2726L122.567 74.9763L118.054 81.4373Z" fill="#263238" stroke="#263238" stroke-width="0.342408" stroke-miterlimit="10"/>
<path d="M105.212 69.5462C104.959 69.6697 101.381 74.0038 100.06 75.6986C98.739 77.3934 98.8686 80.1593 98.9304 81.6658C98.9921 83.1722 98.313 94.3533 98.313 94.3533C98.313 94.3533 103.777 93.915 107.043 93.6001C110.309 93.2852 114.955 92.9827 114.955 92.9827C114.955 92.9827 113.637 87.2069 113.01 84.6293C112.384 82.0516 111.377 78.3503 110.686 76.6031C110.208 75.4291 109.641 74.2938 108.988 73.2074L105.212 69.5462Z" fill="#EF641E" stroke="#263238" stroke-width="0.342408" stroke-miterlimit="10"/>
<path d="M111.868 69.7345L109.858 71.9942L106.771 68.1015L108.593 65.9653C108.593 65.9653 109.661 64.8354 110.291 64.9589C110.92 65.0824 111.868 69.7345 111.868 69.7345Z" fill="white" stroke="#263238" stroke-width="0.342408" stroke-miterlimit="10"/>
<path d="M109.735 67.41L110.96 70.8273L111.868 69.7345L109.735 67.41Z" fill="#263238" stroke="#263238" stroke-width="0.342408" stroke-miterlimit="10"/>
<path d="M109.491 65.9035C109.491 65.9035 108.738 67.0951 108.112 66.8451C107.485 66.595 105.787 64.7706 105.025 62.5233C104.262 60.2759 107.034 59.8839 107.473 59.0072C107.911 58.1305 108.291 58.0008 108.917 54.9231C109.544 51.8453 116.579 53.04 117.647 54.673C118.715 56.3061 118.527 59.5721 121.478 58.504C124.429 57.4359 127.634 56.3061 128.325 58.9424C129.017 61.5787 126.754 64.783 127.572 65.9159C128.39 67.0488 131.026 66.2246 130.838 67.2958C130.65 68.367 129.267 69.0554 129.705 69.3054C130.143 69.5555 132.595 68.3021 131.903 69.432C131.212 70.5618 129.77 71.7565 129.582 71.2533C129.393 70.7501 129.582 70.1235 128.89 70.5001C128.199 70.8767 126.112 72.3832 125.247 71.5682C124.383 70.7532 125.497 67.799 124.053 67.4841C122.608 67.1692 119.092 68.1756 117.897 68.2373C116.703 68.299 116.579 67.9286 114.381 66.8574C112.183 65.7862 109.491 65.9035 109.491 65.9035Z" fill="#263238" stroke="#263238" stroke-width="0.342408" stroke-miterlimit="10"/>
<path d="M109.985 64.1347C109.985 64.1347 113.69 64.323 116.076 63.6933C117.168 63.4387 118.239 63.1034 119.28 62.69C119.28 62.69 119.342 65.138 118.715 65.8295C118.089 66.521 117.271 67.1476 117.271 67.6508C117.271 68.154 117.888 68.969 117.521 69.4104C117.153 69.8518 116.264 69.8488 116.014 69.8488C115.764 69.8488 113.755 71.7349 113.19 71.7349C112.625 71.7349 109.794 67.9657 109.735 67.4131C109.701 66.7437 109.701 66.0729 109.735 65.4035" fill="white"/>
<path d="M109.985 64.1347C109.985 64.1347 113.69 64.323 116.076 63.6933C117.168 63.4387 118.239 63.1034 119.28 62.69C119.28 62.69 119.342 65.138 118.715 65.8295C118.089 66.521 117.271 67.1476 117.271 67.6508C117.271 68.154 117.888 68.969 117.521 69.4104C117.153 69.8518 116.264 69.8488 116.014 69.8488C115.764 69.8488 113.755 71.7349 113.19 71.7349C112.625 71.7349 109.794 67.9657 109.735 67.4131C109.701 66.7437 109.701 66.0729 109.735 65.4035" stroke="#263238" stroke-width="0.342408" stroke-miterlimit="10"/>
<path d="M116.592 66.3419L115.9 67.1569C115.682 67.1238 115.478 67.0297 115.311 66.8855C115.145 66.7413 115.022 66.5528 114.958 66.3419" stroke="#263238" stroke-width="0.342408" stroke-miterlimit="10"/>
<path d="M114.254 68.225C114.254 68.225 114.193 69.2313 115.011 69.3579" stroke="#263238" stroke-width="0.342408" stroke-miterlimit="10"/>
<path d="M115.826 65.2738C115.826 65.2738 116.956 64.8972 117.459 65.8387" stroke="#263238" stroke-width="0.342408" stroke-miterlimit="10"/>
<path d="M110.926 65.0855C110.926 65.0855 110 62.3072 109.105 63.3259C108.21 64.3446 108.728 66.1042 109.414 66.4685C109.616 66.5771 109.843 66.6339 110.073 66.6339C110.303 66.6339 110.529 66.5771 110.732 66.4685" fill="white"/>
<path d="M110.926 65.0855C110.926 65.0855 110 62.3072 109.105 63.3259C108.21 64.3446 108.728 66.1042 109.414 66.4685C109.616 66.5771 109.843 66.6339 110.073 66.6339C110.303 66.6339 110.529 66.5771 110.732 66.4685" stroke="#263238" stroke-width="0.342408" stroke-miterlimit="10"/>
<path d="M107.022 67.0951C107.022 67.0951 111.164 71.1792 111.035 71.7441C110.905 72.3091 110.217 72.6702 110.217 72.6702C110.217 72.6702 110.405 73.8001 110.093 74.0501C109.889 74.2048 109.653 74.3104 109.402 74.3588C109.402 74.3588 105.478 70.3087 104.96 69.6697C104.441 69.0307 104.836 68.7281 105.148 68.6016C105.372 68.5189 105.604 68.4559 105.839 68.4133C105.839 68.4133 106.281 66.913 107.022 67.0951Z" fill="#EF641E" stroke="#263238" stroke-width="0.342408" stroke-miterlimit="10"/>
<path d="M101.024 76.2203C100.782 77.6808 100.652 79.1575 100.635 80.6378C100.635 82.845 101.542 93.6927 101.999 94.2792C102.456 94.8658 104.271 95.3813 105.052 94.8627C105.833 94.3441 112.588 89.9914 112.652 89.2752C112.717 88.559 111.612 85.9628 111.158 85.7684C110.705 85.5739 110.313 85.6387 109.664 86.2222C108.924 86.7967 108.145 87.3177 107.33 87.7811C107.33 87.7811 106.877 79.4678 106.358 77.452C105.839 75.4362 105.577 75.0503 105.253 74.9207" fill="#EF641E"/>
<path d="M101.024 76.2203C100.782 77.6808 100.652 79.1575 100.635 80.6378C100.635 82.845 101.542 93.6927 101.999 94.2792C102.456 94.8658 104.271 95.3813 105.052 94.8627C105.833 94.3441 112.588 89.9914 112.652 89.2752C112.717 88.559 111.612 85.9628 111.158 85.7684C110.705 85.5739 110.313 85.6387 109.664 86.2222C108.924 86.7967 108.145 87.3177 107.33 87.7811C107.33 87.7811 106.877 79.4678 106.358 77.452C105.839 75.4362 105.577 75.0503 105.253 74.9207" stroke="#263238" stroke-width="0.342408" stroke-miterlimit="10"/>
<path d="M113.001 84.6169C113.001 84.6169 114.854 80.1809 114.989 79.8568C115.125 79.5326 115.576 79.0109 115.965 78.9461C116.354 78.8813 119.342 78.233 119.601 78.1682C119.861 78.1033 120.058 78.4275 119.342 78.8813C118.626 79.3351 116.873 79.5326 116.873 79.5326L116.61 81.4805C116.61 81.4805 118.367 80.1161 118.367 80.8323C118.367 81.5484 117.067 81.9991 116.873 82.0671C116.678 82.135 116.159 82.9654 115.974 83.1043C115.676 83.2407 115.366 83.3492 115.048 83.4284C115.048 83.4284 114.918 84.2094 114.659 84.4687C114.4 84.728 113.23 85.5739 113.23 85.5739L113.001 84.6169Z" fill="white" stroke="#263238" stroke-width="0.342408" stroke-miterlimit="10"/>
<path d="M114.989 79.8568C114.989 79.8568 115.742 78.9307 115.853 78.9307C116.385 79.3061 116.893 79.7133 117.375 80.15C117.468 80.2396 116.887 81.1842 116.798 81.3354C116.708 81.4867 116.674 81.6102 116.43 81.5207C116.265 81.4524 116.111 81.3598 115.974 81.2459" fill="white"/>
<path d="M114.989 79.8568C114.989 79.8568 115.742 78.9307 115.853 78.9307C116.385 79.3061 116.893 79.7133 117.375 80.15C117.468 80.2396 116.887 81.1842 116.798 81.3354C116.708 81.4867 116.674 81.6102 116.43 81.5207C116.265 81.4524 116.111 81.3598 115.974 81.2459" stroke="#263238" stroke-width="0.342408" stroke-miterlimit="10"/>
<path d="M114.789 80.6131C114.789 80.6131 115.61 79.687 115.73 79.687C115.851 79.687 116.888 80.5082 116.888 80.6594C116.888 80.8107 116.706 81.7275 116.554 81.7584C116.34 81.7595 116.126 81.7388 115.915 81.6967" fill="white"/>
<path d="M114.789 80.6131C114.789 80.6131 115.61 79.687 115.73 79.687C115.851 79.687 116.888 80.5082 116.888 80.6594C116.888 80.8107 116.706 81.7275 116.554 81.7584C116.34 81.7595 116.126 81.7388 115.915 81.6967" stroke="#263238" stroke-width="0.342408" stroke-miterlimit="10"/>
<path d="M114.758 81.496C114.977 81.2563 115.222 81.0419 115.489 80.857C115.73 80.7335 116.28 81.2521 116.613 81.4744C116.946 81.6967 117.345 81.8232 117.163 82.0362C116.98 82.2492 116.28 81.9467 116.128 81.9467C115.959 81.9188 115.795 81.8668 115.641 81.7924L115.246 82.9809" fill="white"/>
<path d="M114.758 81.496C114.977 81.2563 115.222 81.0419 115.489 80.857C115.73 80.7335 116.28 81.2521 116.613 81.4744C116.946 81.6967 117.345 81.8232 117.163 82.0362C116.98 82.2492 116.28 81.9467 116.128 81.9467C115.959 81.9188 115.795 81.8668 115.641 81.7924L115.246 82.9809" stroke="#263238" stroke-width="0.342408" stroke-miterlimit="10"/>
<path d="M110.834 85.9629L113.106 84.1447L114.146 86.0925L112.195 88.1053C112.195 88.1053 110.834 87.846 110.834 85.9629Z" fill="#EF641E" stroke="#263238" stroke-width="0.342408" stroke-miterlimit="10"/>
<path d="M31.3981 139.473C30.4667 139.18 29.5957 138.722 28.8266 138.121C27.7986 137.235 24.5511 134.827 23.6127 134.21C22.6742 133.592 22.7884 136.445 23.1064 137.914C23.3635 139.183 23.9026 140.379 24.6838 141.412C25.2766 142.115 29.1446 143.572 29.5767 143.671C30.0089 143.77 31.7376 143.801 32.0896 143.634C32.4415 143.468 31.7068 140.692 31.3981 139.473Z" fill="white" stroke="#263238" stroke-width="0.342408" stroke-miterlimit="10"/>
<path d="M24.8814 140.211C23.9769 139.05 23.3379 135.491 23.3101 134.126C22.6927 134.271 22.8286 136.627 23.1064 137.923C23.3635 139.193 23.9026 140.388 24.6839 141.421C25.2766 142.125 29.1446 143.582 29.5767 143.68C30.1609 143.758 30.751 143.78 31.3394 143.748C29.2372 143.011 25.7921 141.378 24.8814 140.211Z" fill="white" stroke="#263238" stroke-width="0.342408" stroke-miterlimit="10"/>
<path d="M73.5971 118.321C73.5971 118.321 72.529 120.3 71.9888 121.448C71.4486 122.596 70.9855 123.424 70.9855 123.424C70.9855 123.424 70.47 122.417 70.078 122.606C69.8044 122.728 69.5189 122.823 69.2259 122.886C69.2259 122.886 68.7382 121.139 67.9911 120.222C67.2441 119.306 66.6113 119.747 65.9198 119.136C64.9412 118.271 64.5461 118.012 63.8916 117.487C63.0859 116.842 61.8542 119.574 61.8326 120.605C61.811 121.636 67.0928 128.116 68.411 129.888C69.7291 131.66 71.0596 132.774 71.9178 131.697C72.776 130.619 73.1835 129.595 73.8318 126.14C74.48 122.686 76.0637 117.404 73.5971 118.321Z" fill="#EF641E" stroke="#263238" stroke-width="0.342408" stroke-miterlimit="10"/>
<path d="M63.8856 117.487L61.487 115.688C61.2277 115.178 60.706 114.119 60.422 113.382C60.0331 112.378 59.8633 111.739 58.9711 111.042C58.079 110.344 55.9675 109.498 55.6989 109.211C55.4304 108.924 55.3223 110.02 55.8101 110.529C56.0275 110.793 56.3019 111.004 56.6127 111.147C56.6127 111.147 53.1336 110.714 53.1275 110.986C53.1213 111.258 56.0848 114.999 57.156 115.867C57.6036 116.237 58.6038 116.586 59.1718 116.993C59.4521 117.195 59.7107 117.424 59.9435 117.679C59.8108 117.753 59.7676 117.75 59.7522 117.74C59.8756 117.913 61.7186 120.543 62.2835 120.429C62.8484 120.315 64.7377 120.145 63.8856 117.487Z" fill="white" stroke="#263238" stroke-width="0.342408" stroke-miterlimit="10"/>
<path d="M53.2256 106.837L52.8506 107.092L57.6696 114.167L58.0446 113.911L53.2256 106.837Z" fill="#263238" stroke="#263238" stroke-width="0.342408" stroke-miterlimit="10"/>
<path d="M54.208 109.097C54.208 109.097 52.3558 111.097 52.5781 111.282C52.8003 111.468 53.5042 112.162 53.6956 112.076C53.887 111.989 54.8625 110.378 54.9119 110.196C54.9612 110.014 54.208 109.097 54.208 109.097Z" fill="white" stroke="#263238" stroke-width="0.342408" stroke-miterlimit="10"/>
<path d="M55.1341 110.44C55.1341 110.44 53.7326 112.496 53.8653 112.681C53.9981 112.866 55.77 114.937 55.9923 115.076C56.2145 115.215 57.4648 114.018 57.4648 114.018L55.1341 110.44Z" fill="white" stroke="#263238" stroke-width="0.342408" stroke-miterlimit="10"/>
<path d="M55.8812 111.619C55.8812 111.619 54.5723 113.678 54.7081 113.681" stroke="#263238" stroke-width="0.342408" stroke-miterlimit="10"/>
<path d="M56.7578 113.042L55.5508 114.468" stroke="#263238" stroke-width="0.342408" stroke-miterlimit="10"/>
<path d="M56.6128 111.137L57.7365 111.656C57.7365 111.656 57.4555 114.416 58.9713 115.36" fill="white"/>
<path d="M56.6128 111.137L57.7365 111.656C57.7365 111.656 57.4555 114.416 58.9713 115.36" stroke="#263238" stroke-width="0.342408" stroke-miterlimit="10"/>
<path d="M72.588 132.743C72.588 132.743 61.6662 119.701 60.4808 118.299C59.2954 116.898 56.6221 116.317 55.0539 116.805C53.4857 117.293 51.5779 121.676 51.1982 123.488C50.8185 125.3 47.7161 133.123 47.1851 134.151C46.6541 135.179 45.8454 136.29 45.8361 136.725C45.8268 137.161 45.8207 137.503 45.8207 137.503L45.2773 138.704C45.2773 138.704 47.784 139.013 48.8274 138.862C49.8708 138.71 51.3649 137.525 51.6366 136.923C51.9082 136.321 52.6738 134.839 53.5968 134.191C54.9119 133.265 57.1993 127.069 57.1993 127.069L61.5211 136.512C61.5211 136.512 70.0721 137.719 71.983 137.497C73.8938 137.275 72.588 132.743 72.588 132.743Z" fill="#263238" stroke="#263238" stroke-width="0.342408" stroke-miterlimit="10"/>
<path d="M72.1744 131.697C72.1744 131.697 70.8408 133.401 70.8346 133.75V134.095L63.5369 134.827C63.5369 134.827 56.0016 134.679 54.8717 134.917C53.7419 135.154 37.3685 139.513 36.325 139.667C35.2816 139.822 34.7815 138.942 34.3494 138.933C33.9172 138.923 33.4881 138.568 32.883 138.556C32.278 138.544 31.7408 139.402 31.392 139.482C31.1674 139.565 30.9328 139.618 30.6944 139.64C30.435 139.64 30.6203 139.022 30.4351 139.64C30.2498 140.257 29.7837 141.964 30.2004 142.751C30.4692 143.241 30.8461 143.664 31.3025 143.986C31.3025 143.986 45.3391 144.002 47.6636 144.048C49.9881 144.094 57.2055 143.458 58.073 143.387C58.9404 143.316 71.486 144.082 73.4771 144.122C75.4682 144.162 82.0559 144.122 83.195 143.446C84.3341 142.77 85.7942 138.991 85.5627 137.516C85.3312 136.04 73.2857 131.817 73.2857 131.817L72.1744 131.697Z" fill="#263238" stroke="#263238" stroke-width="0.342408" stroke-miterlimit="10"/>
<path d="M71.677 130.474C71.5538 130.775 71.5174 131.105 71.5721 131.425C71.6462 132.043 85.2074 138.525 85.6457 138.284C86.0841 138.044 86.3928 135.525 86.3928 135.525L71.6925 129.693L71.677 130.474Z" fill="#EF641E" stroke="#263238" stroke-width="0.342408" stroke-miterlimit="10"/>
<path d="M77.4562 109.708C77.4562 109.708 74.965 113.125 74.0451 115.793C73.1252 118.46 71.6465 127.613 71.1063 128.73C70.566 129.848 70.5506 130.539 71.3254 130.727C72.1003 130.916 79.4905 134.179 81.9818 135.179C84.473 136.179 86.708 137.093 87.0846 135.54C87.4612 133.987 87.4828 133.037 87.4396 130.697C87.3964 128.357 87.3562 117.351 87.1587 114.144C86.9611 110.937 85.2447 105.701 82.9912 105.831C80.7377 105.96 77.4562 109.708 77.4562 109.708Z" fill="#EF641E" stroke="#263238" stroke-width="0.342408" stroke-miterlimit="10"/>
<path d="M82.1763 97.6811C81.9108 95.798 81.0094 94.2607 79.469 93.2976C79.7125 93.0255 80.0426 92.8461 80.4033 92.7898C80.764 92.7335 81.1331 92.8039 81.4478 92.9889C81.4478 92.9889 81.6546 92.2541 81.0557 91.9979C80.8796 91.9297 80.6892 91.9069 80.502 91.9317C80.3147 91.9565 80.1368 92.0281 79.9846 92.1399C79.9846 92.1399 80.0864 91.1552 80.7532 90.6767C81.42 90.1982 82.7196 90.8804 82.7196 90.8804C82.7196 90.8804 82.4418 88.3275 80.7903 88.7874C79.1387 89.2474 79.3579 90.6396 79.3579 90.6396C79.3579 90.6396 79.0492 89.4851 78.0675 89.3832C77.0859 89.2814 76.3295 90.0871 76.3295 90.0871C76.3295 90.0871 77.1661 89.3647 78.0459 90.6149C78.2782 90.9146 78.432 91.2674 78.4935 91.6415C78.5549 92.0156 78.5221 92.3991 78.3978 92.7573C78.1364 92.6551 77.8695 92.5675 77.5983 92.4949C75.2769 91.8775 72.6282 92.5443 71.4984 93.6742C70.595 93.8969 69.7478 94.3047 69.0103 94.8719C67.7755 95.9184 68.93 97.3631 69.0998 97.5607L69.1924 98.0793C69.3092 99.131 69.4813 100.176 69.7079 101.21C69.9395 101.954 70.3439 102.207 70.3253 102.617C70.3068 103.028 69.6308 104.494 70.1123 104.994C70.5939 105.494 71.0106 105.343 71.0106 105.343C71.0106 105.343 72.903 109.322 73.7303 109.007C74.5576 108.692 75.9807 107.245 75.9807 107.245L77.8483 108.433L81.2904 104.639L80.673 102.985C80.673 102.985 82.5375 100.234 82.1763 97.6811Z" fill="white" stroke="#263238" stroke-width="0.342408" stroke-miterlimit="10"/>
<path d="M70.634 97.5021C71.6342 97.0267 74.1933 96.4401 73.755 97.2088C73.3166 97.9775 73.2178 99.3234 73.7797 99.4747C74.3415 99.6259 75.5331 100.429 75.9406 100.709C76.3481 100.99 76.8667 100.799 76.8667 100.373C76.8667 99.947 77.3174 99.1073 78.228 99.5487C79.1387 99.9902 79.1943 100.842 78.9627 101.83C78.8394 102.4 78.4997 102.9 78.015 103.225C78.015 103.225 79.1017 104.099 80.7748 103.262L80.6668 102.978C80.6668 102.978 82.519 100.222 82.167 97.6688C81.9016 95.7857 81.0002 94.2484 79.4597 93.2852C79.7032 93.0131 80.0333 92.8337 80.394 92.7775C80.7547 92.7212 81.1238 92.7915 81.4385 92.9765C81.4385 92.9765 81.6453 92.2418 81.0465 91.9856C80.8704 91.9173 80.6799 91.8946 80.4927 91.9194C80.3055 91.9442 80.1275 92.0158 79.9753 92.1276C79.9753 92.1276 80.0771 91.1428 80.7439 90.6644C81.4107 90.1859 82.7104 90.8681 82.7104 90.8681C82.7104 90.8681 82.4325 88.3151 80.781 88.7751C79.1294 89.2351 79.3486 90.6273 79.3486 90.6273C79.3486 90.6273 79.0399 89.4728 78.0582 89.3709C77.0766 89.269 76.3203 90.0747 76.3203 90.0747C76.3203 90.0747 77.1568 89.3524 78.0366 90.6026C78.2689 90.9022 78.4228 91.2551 78.4842 91.6292C78.5457 92.0033 78.5128 92.3868 78.3886 92.745C78.1271 92.6428 77.8602 92.5552 77.589 92.4826C75.2676 91.8652 72.619 92.532 71.4891 93.6618C70.5858 93.8845 69.7385 94.2924 69.001 94.8596C67.7662 95.9061 68.9207 97.3508 69.0905 97.5484C69.0998 97.5669 69.6338 97.9775 70.634 97.5021Z" fill="#263238" stroke="#263238" stroke-width="0.342408" stroke-miterlimit="10"/>
<path d="M71.4116 101.197L71.3931 102.123C71.699 102.204 72.0199 102.212 72.3292 102.144C72.6384 102.076 72.9271 101.936 73.1712 101.734" stroke="#263238" stroke-width="0.342408" stroke-miterlimit="10"/>
<path d="M70.3657 100.33C70.6075 100.031 70.9479 99.8279 71.3257 99.7572C71.7036 99.6865 72.0943 99.7527 72.4278 99.9439" stroke="#263238" stroke-width="0.342408" stroke-miterlimit="10"/>
<path d="M72.1772 105.46C72.1772 105.46 73.3812 105.414 74.1159 104.013" stroke="#263238" stroke-width="0.342408" stroke-miterlimit="10"/>
<path d="M74.3416 107.059C73.6254 107.399 72.724 106.461 72.3011 106.383C71.9584 106.319 72.0171 107.001 72.0541 107.266C72.6345 108.236 73.3229 109.174 73.7427 109.014C74.57 108.705 75.9931 107.251 75.9931 107.251L76.0579 107.294C76.2484 106.975 76.3684 106.62 76.4098 106.251C76.4191 105.686 75.0547 106.735 74.3416 107.059Z" fill="#263238" stroke="#263238" stroke-width="0.342408" stroke-miterlimit="10"/>
<path d="M84.936 103.79C84.936 103.79 82.3522 102.96 80.8488 104.577C79.3455 106.195 75.2645 110.964 76.1319 110.983C76.9994 111.001 78.5182 108.603 80.2654 107.856C82.0126 107.109 83.0437 107.133 83.6333 108.356C84.2229 109.578 86.2295 117.416 87.029 116.046C87.8285 114.675 89.2733 111.934 88.5447 109.319C87.8162 106.704 85.7911 104.327 84.936 103.79Z" fill="white" stroke="#263238" stroke-width="0.342408" stroke-miterlimit="10"/>
<path d="M78.3424 113.104C78.3424 113.104 76.1815 116.873 75.9746 118.947C75.7678 121.022 75.0732 129.675 75.0732 129.675C75.0732 129.675 74.2181 129.138 73.7736 129.647C73.3291 130.156 73.0482 131.28 73.0482 131.28C73.0482 131.28 71.8442 130.91 71.5726 131.425C71.4172 131.724 71.2375 132.01 71.0354 132.28L63.5371 134.827C63.5371 134.827 75.3912 135.494 76.3451 135.426C76.9274 135.379 77.4793 135.146 77.9194 134.762C77.9194 134.762 78.685 135.38 79.9939 134.889C81.3028 134.398 81.7504 133.799 82.1147 132.765C82.4789 131.731 84.2015 119.12 84.2015 119.12" fill="#EF641E"/>
<path d="M78.3424 113.104C78.3424 113.104 76.1815 116.873 75.9746 118.947C75.7678 121.022 75.0732 129.675 75.0732 129.675C75.0732 129.675 74.2181 129.138 73.7736 129.647C73.3291 130.156 73.0482 131.28 73.0482 131.28C73.0482 131.28 71.8442 130.91 71.5726 131.425C71.4172 131.724 71.2375 132.01 71.0354 132.28L63.5371 134.827C63.5371 134.827 75.3912 135.494 76.3451 135.426C76.9274 135.379 77.4793 135.146 77.9194 134.762C77.9194 134.762 78.685 135.38 79.9939 134.889C81.3028 134.398 81.7504 133.799 82.1147 132.765C82.4789 131.731 84.2015 119.12 84.2015 119.12" stroke="#263238" stroke-width="0.342408" stroke-miterlimit="10"/>
<path d="M63.5371 134.827C63.5371 134.827 67.1396 135.031 70.5322 135.2C70.0414 134.401 70.2699 133.246 70.5322 132.459L63.5371 134.827Z" fill="white" stroke="#263238" stroke-width="0.342408" stroke-miterlimit="10"/>
<path d="M17.5063 143.748L126.169 143.748" stroke="#263238" stroke-width="0.342408" stroke-miterlimit="10"/>
</svg>
